<?xml version="1.0" encoding="UTF-8"?>
<svg xmlns="http://www.w3.org/2000/svg" xmlns:xlink="http://www.w3.org/1999/xlink" width="24" height="24" viewBox="0 0 24 24">
  <defs>
    <path id="letter-a" d="M20.3112499,6 L3.68875012,6 L12,14.772986 L20.3112499,6 Z M21,6.72701402 L12.3657816,15.8409113 C12.3648544,15.8419042 12.3639224,15.8428942 12.3629857,15.8438812 C12.1730609,16.0443386 11.856594,16.0528918 11.6561277,15.8629763 C11.6485503,15.8557978 11.6412471,15.8484384 11.6342184,15.8409113 L3,6.72701402 L3,19 L21,19 L21,6.72701402 Z M3,5 L21,5 C21.5522847,5 22,5.44771525 22,6 L22,19 C22,19.5522847 21.5522847,20 21,20 L3,20 C2.44771525,20 2,19.5522847 2,19 L2,6 C2,5.44771525 2.44771525,5 3,5 Z"/>
  </defs>
  <use xlink:href="#letter-a"/>
</svg>
