<?xml version="1.0" encoding="UTF-8"?>
<svg xmlns="http://www.w3.org/2000/svg" xmlns:xlink="http://www.w3.org/1999/xlink" width="24" height="24" viewBox="0 0 24 24">
  <defs>
    <path id="bell-a" d="M6,11 L6,18 L18,18 L18,11 C18,7.6862915 15.3137085,5 12,5 C8.6862915,5 6,7.6862915 6,11 Z M12.4996974,4.01756068 C16.1324785,4.2737871 19,7.30202079 19,11 L19,18 C19,18.5522847 18.5522847,19 18,19 L15.4645556,19 C15.2219407,20.6961471 13.763236,22 12,22 C10.236764,22 8.77805926,20.6961471 8.53544443,19 L6,19 C5.44771525,19 5,18.5522847 5,18 L5,11 C5,7.30202079 7.86752145,4.2737871 11.5003026,4.01756068 C11.5001014,4.01173191 11.5,4.0058778 11.5,4 L11.5,2 C11.5,1.72385763 11.7238576,1.5 12,1.5 C12.2761424,1.5 12.5,1.72385763 12.5,2 L12.5,4 C12.5,4.0058778 12.4998986,4.01173191 12.4996974,4.01756068 Z M12,21 C13.209479,21 14.2183558,20.1411202 14.4499909,19 L9.55000906,19 C9.78164422,20.1411202 10.790521,21 12,21 Z"/>
  </defs>
  <use xlink:href="#bell-a"/>
</svg>
