<?xml version="1.0" encoding="UTF-8"?>
<svg xmlns="http://www.w3.org/2000/svg" xmlns:xlink="http://www.w3.org/1999/xlink" width="24" height="24" viewBox="0 0 24 24">
  <defs>
    <path id="magnifier-a" d="M9.5,17 C5.35786438,17 2,13.6421356 2,9.5 C2,5.35786438 5.35786438,2 9.5,2 C13.6421356,2 17,5.35786438 17,9.5 C17,13.6421356 13.6421356,17 9.5,17 Z M9.5,16 C13.0898509,16 16,13.0898509 16,9.5 C16,5.91014913 13.0898509,3 9.5,3 C5.91014913,3 3,5.91014913 3,9.5 C3,13.0898509 5.91014913,16 9.5,16 Z M21.8535534,21.1464466 C22.0488155,21.3417088 22.0488155,21.6582912 21.8535534,21.8535534 C21.6582912,22.0488155 21.3417088,22.0488155 21.1464466,21.8535534 L14.9592623,15.6663691 C14.7640001,15.4711069 14.7640001,15.1545244 14.9592623,14.9592623 C15.1545244,14.7640001 15.4711069,14.7640001 15.6663691,14.9592623 L21.8535534,21.1464466 Z"/>
  </defs>
  <use xlink:href="#magnifier-a"/>
</svg>
