<?xml version="1.0" encoding="UTF-8"?>
<svg xmlns="http://www.w3.org/2000/svg" xmlns:xlink="http://www.w3.org/1999/xlink" width="24" height="24" viewBox="0 0 24 24">
  <defs>
    <path id="lock-open-default-a" d="M10,10 L10,21 L21,21 L21,10 L10,10 Z M11,9 L11,7.5 C11,5.01508326 9.18642506,3 7,3 C4.81357494,3 3,5.01508326 3,7.5 L3,9.5 L2,9.5 L2,7.5 C2,4.48491674 4.23642506,2 7,2 C9.76357494,2 12,4.48491674 12,7.5 L12,9 L21,9 C21.5522847,9 22,9.44771525 22,10 L22,21 C22,21.5522847 21.5522847,22 21,22 L10,22 C9.44771525,22 9,21.5522847 9,21 L9,10 C9,9.44771525 9.44771525,9 10,9 L11,9 Z"/>
  </defs>
  <use xlink:href="#lock-open-default-a"/>
</svg>
