<?xml version="1.0" encoding="UTF-8" standalone="no"?><!DOCTYPE svg PUBLIC "-//W3C//DTD SVG 1.1//EN" "http://www.w3.org/Graphics/SVG/1.1/DTD/svg11.dtd"><svg width="100%" height="100%" viewBox="0 0 24 24" version="1.1" xmlns="http://www.w3.org/2000/svg" xmlns:xlink="http://www.w3.org/1999/xlink" xml:space="preserve" xmlns:serif="http://www.serif.com/" style="fill-rule:evenodd;clip-rule:evenodd;stroke-linejoin:round;stroke-miterlimit:1.41421;"><path d="M4.994,6.005l-0.999,0l0,-1.291c0.005,-0.355 0.3,-0.715 0.668,-0.715c1.788,0.003 2.964,-0.002 4.673,0c0.35,0.014 0.654,0.344 0.668,0.7l0,1.306l-0.999,0l0,-0.975l-4.011,0l0,0.975Z"/><path d="M14.977,6.005l-0.999,0l0,-1.291c0.005,-0.355 0.3,-0.715 0.668,-0.715c1.788,0.003 2.964,-0.002 4.673,0c0.35,0.014 0.654,0.344 0.668,0.7l0,1.306l-0.999,0l0,-0.975l-4.011,0l0,0.975Z"/><path d="M21.243,6.934c0.344,0.013 0.748,0.363 0.761,0.713c0.006,7.09 -0.006,12.203 -0.006,12.203l-19.994,-0.02c0,0 0,-8.328 0,-12.17c0.004,-0.346 0.294,-0.713 0.654,-0.726c6.226,-0.001 12.324,-0.021 18.585,0Zm-18.24,1.057l0,10.85l17.962,0l0,-10.85c-5.987,0 -11.975,0 -17.962,0Z" style="fill-rule:nonzero;"/></svg>