<?xml version="1.0" encoding="UTF-8"?>
<svg xmlns="http://www.w3.org/2000/svg" xmlns:xlink="http://www.w3.org/1999/xlink" width="24" height="24" viewBox="0 0 24 24">
  <defs>
    <path id="circle-to-circle-a" d="M15.2928932,8 L11,8 L11,7 L16,7 L17,7 L17,13 L16,13 L16,8.70710678 L7.5,17.2071068 L6.79289322,16.5 L15.2928932,8 Z M19.5,7 C18.1192881,7 17,5.88071187 17,4.5 C17,3.11928813 18.1192881,2 19.5,2 C20.8807119,2 22,3.11928813 22,4.5 C22,5.88071187 20.8807119,7 19.5,7 Z M19.5,6 C20.3284271,6 21,5.32842712 21,4.5 C21,3.67157288 20.3284271,3 19.5,3 C18.6715729,3 18,3.67157288 18,4.5 C18,5.32842712 18.6715729,6 19.5,6 Z M4.5,22 C3.11928813,22 2,20.8807119 2,19.5 C2,18.1192881 3.11928813,17 4.5,17 C5.88071187,17 7,18.1192881 7,19.5 C7,20.8807119 5.88071187,22 4.5,22 Z M4.5,21 C5.32842712,21 6,20.3284271 6,19.5 C6,18.6715729 5.32842712,18 4.5,18 C3.67157288,18 3,18.6715729 3,19.5 C3,20.3284271 3.67157288,21 4.5,21 Z"/>
  </defs>
  <use xlink:href="#circle-to-circle-a"/>
</svg>
