
<svg version="1.1" xmlns="http://www.w3.org/2000/svg" width="32" height="32" viewBox="0 0 32 32">
<title>legalInverted</title>
<path d="M16.163 3.334h-0.328c-1.793 0.020-3.563 0.423-5.188 1.183-2.552 1.2-4.637 3.211-5.928 5.717-0.911 1.784-1.385 3.759-1.385 5.761 0 6.951 5.72 12.671 12.671 12.671 1.64 0 3.263-0.319 4.781-0.937 1.465-0.6 2.805-1.469 3.951-2.561 2.068-1.965 3.411-4.573 3.807-7.399 0.193-1.385 0.159-2.792-0.104-4.165-0.224-1.171-0.616-2.308-1.16-3.369-1.291-2.507-3.376-4.517-5.928-5.717-1.625-0.76-3.395-1.163-5.188-1.183zM19.132 21.707l0.007-0.129c0.007-0.176-0.019-0.353-0.077-0.52-0.104-0.273-0.312-0.495-0.535-0.679-0.387-0.32-0.837-0.563-1.284-0.787-0.195-0.097-0.392-0.191-0.591-0.281l-0.717-0.323c-0.243-0.113-0.241-0.113-0.483-0.229-0.193-0.095-0.384-0.192-0.575-0.292-0.145-0.079-0.291-0.16-0.435-0.243-0.963-0.564-1.897-1.296-2.361-2.341-0.089-0.201-0.16-0.412-0.211-0.627-0.084-0.379-0.115-0.768-0.091-1.156l0.052-0.693 1.156 0.088-0.051 0.677c-0.005 0.089-0.005 0.089-0.007 0.179 0.001 0.267 0.031 0.529 0.108 0.785 0.257 0.856 0.984 1.459 1.713 1.919 0.121 0.077 0.247 0.152 0.372 0.224 0.168 0.096 0.339 0.187 0.509 0.275 0.26 0.133 0.523 0.26 0.787 0.381 0.309 0.143 0.623 0.279 0.932 0.423 0.205 0.097 0.205 0.097 0.409 0.197 0.156 0.080 0.311 0.159 0.464 0.244 0.113 0.061 0.224 0.127 0.335 0.193 0.619 0.376 1.229 0.851 1.532 1.528 0.057 0.128 0.103 0.261 0.136 0.397 0.067 0.272 0.079 0.549 0.063 0.828l-0.005 0.079-0.003 0.025-0.051 0.307-0.049 0.228c-0.131 0.475-0.387 0.905-0.74 1.248-0.771 0.747-1.884 1.005-2.928 1.005-0.741-0.008-1.477-0.12-2.187-0.336-0.945-0.288-1.832-0.743-2.617-1.344l-0.081-0.065-0.072-0.060 0.743-0.891c0.065 0.055 0.131 0.107 0.197 0.159 0.696 0.512 1.479 0.896 2.309 1.135 0.448 0.128 0.911 0.207 1.376 0.233 0.292 0.019 0.585 0.012 0.876-0.020 0.097-0.011 0.193-0.025 0.288-0.044 0.58-0.109 1.179-0.367 1.513-0.875 0.056-0.085 0.104-0.175 0.143-0.269l0.129-0.553zM12.099 9.499c0.125-0.389 0.343-0.744 0.633-1.032 0.692-0.692 1.681-0.968 2.636-1.015l0.28-0.004c0.436 0.007 0.871 0.055 1.301 0.133 0.787 0.14 1.548 0.397 2.257 0.764 0.268 0.14 0.527 0.299 0.776 0.471l0.085 0.060 0.077 0.057-0.684 0.935c-0.071-0.052-0.143-0.101-0.215-0.151-0.681-0.449-1.44-0.769-2.239-0.941-0.425-0.093-0.859-0.149-1.295-0.168-0.264-0.007-0.529 0.011-0.791 0.052-0.108 0.017-0.216 0.040-0.321 0.068-0.563 0.148-1.141 0.468-1.367 1.036-0.060 0.157-0.093 0.324-0.099 0.493l0.003 0.127c0.008 0.099 0.029 0.196 0.063 0.289 0.072 0.173 0.18 0.331 0.316 0.46 0.195 0.189 0.424 0.343 0.657 0.48 0.104 0.061 0.209 0.12 0.316 0.176 0.141 0.075 0.285 0.145 0.431 0.215 0.215 0.103 0.433 0.2 0.651 0.296 0.269 0.117 0.539 0.233 0.808 0.353 0.184 0.084 0.367 0.169 0.549 0.259 1.061 0.529 2.128 1.192 2.779 2.215 0.24 0.375 0.411 0.789 0.505 1.224 0.085 0.392 0.104 0.791 0.084 1.191l-0.053 0.697-1.156-0.088 0.052-0.683c0.021-0.317-0.005-0.636-0.077-0.947-0.037-0.149-0.089-0.296-0.152-0.437-0.36-0.797-1.097-1.352-1.833-1.78-0.152-0.089-0.308-0.173-0.465-0.253-0.165-0.084-0.332-0.167-0.5-0.245-0.449-0.207-0.904-0.397-1.355-0.6-0.165-0.076-0.332-0.152-0.495-0.232-0.156-0.076-0.309-0.155-0.461-0.239-0.672-0.368-1.349-0.849-1.656-1.58-0.049-0.12-0.089-0.244-0.117-0.371-0.043-0.209-0.059-0.424-0.048-0.637l0.007-0.092v-0.001l0.001-0.009 0.055-0.347 0.056-0.199z"></path>
</svg>
