<?xml version="1.0" encoding="UTF-8"?>
<svg xmlns="http://www.w3.org/2000/svg" xmlns:xlink="http://www.w3.org/1999/xlink" width="24" height="24" viewBox="0 0 24 24">
  <defs>
    <path id="update2-a" d="M20.8478261,13.0498288 L23.0845084,10.1918459 C23.2546972,9.97438237 23.5689515,9.93605867 23.786415,10.1062475 C24.0038785,10.2764363 24.0422022,10.5906906 23.8720134,10.8081541 L20.7415786,14.8081541 C20.5413916,15.0639486 20.1542606,15.0639486 19.9540736,14.8081541 L16.8236388,10.8081541 C16.65345,10.5906906 16.6917737,10.2764363 16.9092372,10.1062475 C17.1267007,9.93605867 17.440955,9.97438237 17.6111438,10.1918459 L19.8478261,13.0498288 L19.8478261,11.5 C19.8478261,7.36273701 16.3388831,4 12,4 C9.85462765,4 7.84887522,4.82599852 6.38142066,6.26395733 C6.18418638,6.45722722 5.8676202,6.45401344 5.67435031,6.25677916 C5.48108043,6.05954488 5.4842942,5.7429787 5.68152849,5.54970881 C7.33513196,3.92934267 9.59183251,3 12,3 C16.881871,3 20.8478261,6.80070699 20.8478261,11.5 L20.8478261,13.0498288 Z M3.25531686,9.19581279 C3.34671236,9.07675274 3.49047986,9 3.65217391,9 C3.81386797,9 3.95763546,9.07675274 4.04903096,9.19581279 L7.1763612,13.1918459 C7.34655002,13.4093094 7.30822633,13.7235637 7.09076283,13.8937525 C6.87329933,14.0639413 6.55904502,14.0256176 6.3888562,13.8081541 L4.15217391,10.9501712 L4.15217391,12.5 C4.15217391,16.637263 7.66111688,20 12,20 C14.1453724,20 16.1511248,19.1740015 17.6185793,17.7360427 C17.8158136,17.5427728 18.1323798,17.5459866 18.3256497,17.7432208 C18.5189196,17.9404551 18.5157058,18.2570213 18.3184715,18.4502912 C16.664868,20.0706573 14.4081675,21 12,21 C7.11812904,21 3.15217391,17.199293 3.15217391,12.5 L3.15217391,10.9501712 L0.915491631,13.8081541 C0.745302804,14.0256176 0.431048501,14.0639413 0.213585,13.8937525 C-0.00387850163,13.7235637 -0.0422021971,13.4093094 0.12798663,13.1918459 L3.25531686,9.19581279 Z"/>
  </defs>
  <use xlink:href="#update2-a"/>
</svg>
