
<svg version="1.1" xmlns="http://www.w3.org/2000/svg" width="32" height="32" viewBox="0 0 32 32">
<title>subtenant</title>
<path d="M20.952 8.705l-2.402-0.554c-1.144-0.264-2.345-0.087-3.365 0.495l-3.497 1.998c-0.040 0.023-0.075 0.053-0.103 0.088-0.125 0.156-0.1 0.385 0.057 0.51 0.601 0.481 1.38 0.678 2.137 0.54l4.058-0.738 7.458 7.458 1.056-0.598c1.62-0.938 2.164-2.977 1.242-4.57l-2.883-4.98c-1.192 0.519-2.505 0.64-3.758 0.351zM24.676 19.77l-7.288-7.288-3.37 0.613c-1.136 0.207-2.307-0.089-3.209-0.811-0.732-0.585-0.85-1.653-0.265-2.384 0.134-0.167 0.297-0.307 0.483-0.413l2.051-1.172-4.030-0.644c-1.795-0.287-3.593 0.499-4.601 2.011-1.067 1.6-1.289 3.618-0.597 5.412l0.427 1.107c0.873-0.348 1.865-0.315 2.726 0.115l1.707 0.854c0.559 0.28 1.028 0.711 1.354 1.244l3.164 5.181c0.34 0.556 0.431 1.197 0.303 1.789l1.539 1.539c0.467 0.467 1.181 0.583 1.772 0.288 0.227-0.114 0.319-0.39 0.206-0.617-0.011-0.023-0.025-0.045-0.040-0.065l-3.473-3.384 0.93-0.956 3.421 3.324c0.037 0.036 0.073 0.074 0.107 0.113l0.42 0.41c0.379 0.369 0.973 0.398 1.386 0.068 0.314-0.251 0.365-0.71 0.114-1.024-0.012-0.016-0.026-0.031-0.039-0.045l-3.691-3.909 0.967-0.918 4.501 4.722c0.457 0.48 1.193 0.561 1.744 0.194 0.348-0.232 0.442-0.703 0.21-1.051-0.025-0.038-0.054-0.073-0.085-0.106l-0.705-0.731c-0.083-0.068-0.163-0.142-0.239-0.221l-3.723-3.886 0.961-0.924 3.897 4.040c0.457 0.34 1.089 0.365 1.576 0.040 0.44-0.294 0.559-0.888 0.266-1.328-0.013-0.019-0.013-0.019-0.027-0.038l-0.849-1.148zM26.166 19.542l0.431 0.582c0.033 0.045 0.033 0.045 0.064 0.091 0.702 1.053 0.417 2.476-0.636 3.177-0.333 0.222-0.699 0.361-1.074 0.421 0.301 0.877-0.011 1.88-0.819 2.418-0.882 0.588-2.003 0.594-2.877 0.073-0.128 0.318-0.337 0.609-0.625 0.839-0.68 0.544-1.578 0.659-2.348 0.361-0.161 0.376-0.451 0.7-0.846 0.897-1.104 0.552-2.438 0.336-3.311-0.537l-1.264-1.264c-0.11 0.109-0.231 0.208-0.365 0.297-1.089 0.726-2.539 0.591-3.475-0.325l-6.172-6.038c-0.944-0.923-0.96-2.437-0.037-3.381 0.093-0.095 0.194-0.182 0.301-0.261l-0.51-1.321c-0.848-2.198-0.575-4.671 0.731-6.631 1.298-1.947 3.611-2.958 5.921-2.588l5.697 0.911c1.211-0.567 2.582-0.715 3.894-0.413l2.402 0.554c0.975 0.225 1.996 0.131 2.913-0.269l1.103-0.481 3.479 6.010c1.291 2.23 0.53 5.085-1.7 6.377-0.008 0.005-0.302 0.171-0.881 0.499zM3.768 18.087c-0.408 0.417-0.401 1.087 0.016 1.495l6.172 6.038c0.486 0.475 1.238 0.545 1.803 0.169 0.495-0.33 0.641-0.992 0.331-1.5l-3.164-5.181c-0.195-0.32-0.477-0.579-0.813-0.747l-1.707-0.854c-0.646-0.323-1.415-0.273-2.013 0.131l-0.462 0.311c-0.059 0.040-0.114 0.086-0.164 0.137z"></path>
</svg>
