<?xml version="1.0" encoding="UTF-8"?>
<svg xmlns="http://www.w3.org/2000/svg" xmlns:xlink="http://www.w3.org/1999/xlink" width="24" height="24" viewBox="0 0 24 24">
  <defs>
    <path id="add-book-a" d="M6,2 L18,2 C19.1045695,2 20,2.8954305 20,4 L20,20 C20,21.1045695 19.1045695,22 18,22 L6,22 C4.8954305,22 4,21.1045695 4,20 L4,4 C4,2.8954305 4.8954305,2 6,2 Z M6,3 C5.44771525,3 5,3.44771525 5,4 L5,20 C5,20.5522847 5.44771525,21 6,21 L18,21 C18.5522847,21 19,20.5522847 19,20 L19,4 C19,3.44771525 18.5522847,3 18,3 L6,3 Z M13.4366731,18 C13.2130681,18 13.0318004,17.7761424 13.0318004,17.5 C13.0318004,17.2238576 13.2130681,17 13.4366731,17 L17.5951274,17 C17.8187324,17 18,17.2238576 18,17.5 C18,17.7761424 17.8187324,18 17.5951274,18 L13.4366731,18 Z M15,15.4074641 C15,15.1824279 15.2238576,15 15.5,15 C15.7761424,15 16,15.1824279 16,15.4074641 L16,19.5925359 C16,19.8175721 15.7761424,20 15.5,20 C15.2238576,20 15,19.8175721 15,19.5925359 L15,15.4074641 Z M7,11.870055 L7,2.00448013 L8,2.00448013 L8,10.0699198 L9.9697355,8.84413252 L12.0318004,10.0854089 L12.0318004,2 L13.0318004,2 L13.0318004,11.8545659 L9.97841459,10.0165559 L7,11.870055 Z"/>
  </defs>
  <use fill="#212121" xlink:href="#add-book-a"/>
</svg>
