<?xml version="1.0" encoding="UTF-8"?>
<svg xmlns="http://www.w3.org/2000/svg" xmlns:xlink="http://www.w3.org/1999/xlink" width="24" height="24" viewBox="0 0 24 24">
  <defs>
    <path id="tag-a" d="M4.17433685,11.2454047 L13.9142136,20.9852814 L20.9852814,13.9142136 L11.2454047,4.17433685 L4.7635925,4.7635925 L4.17433685,11.2454047 Z M3.13603897,11.6213203 L3.84314575,3.84314575 L11.6213203,3.13603897 L22.3994949,13.9142136 L13.9142136,22.3994949 L3.13603897,11.6213203 Z M9.42893219,9.42893219 C10.2099808,8.6478836 10.2099808,7.38155365 9.42893219,6.60050506 C8.6478836,5.81945648 7.38155365,5.81945648 6.60050506,6.60050506 C5.81945648,7.38155365 5.81945648,8.6478836 6.60050506,9.42893219 C7.38155365,10.2099808 8.6478836,10.2099808 9.42893219,9.42893219 Z M8.72182541,8.72182541 C8.33130112,9.1123497 7.69813614,9.1123497 7.30761184,8.72182541 C6.91708755,8.33130112 6.91708755,7.69813614 7.30761184,7.30761184 C7.69813614,6.91708755 8.33130112,6.91708755 8.72182541,7.30761184 C9.1123497,7.69813614 9.1123497,8.33130112 8.72182541,8.72182541 Z"/>
  </defs>
  <use xlink:href="#tag-a"/>
</svg>
