<?xml version="1.0" encoding="UTF-8"?>
<svg xmlns="http://www.w3.org/2000/svg" xmlns:xlink="http://www.w3.org/1999/xlink" width="24" height="24" viewBox="0 0 24 24">
  <defs>
    <path id="asset-network-a" d="M13.9499909,20 L21,20 L21,21 L13.9499909,21 C13.7183558,22.1411202 12.709479,23 11.5,23 C10.290521,23 9.28164422,22.1411202 9.05000906,21 L2,21 L2,20 L9.05000906,20 C9.2488503,19.0204348 10.0204348,18.2488503 11,18.0500091 L11,17.3026316 L4,13.4342105 L4,5.14473684 L11.5,1 L19,5.14473684 L19,13.4342105 L12,17.3026316 L12,18.0500091 C12.9795652,18.2488503 13.7511497,19.0204348 13.9499909,20 Z M12,16.1600898 L18,12.8443004 L18,5.73464702 L11.5,2.14254176 L5,5.73464702 L5,12.8443004 L11,16.1600898 L11,16 L12,16 L12,16.1600898 Z M8,8 L9,8 L9,11 L8,11 L8,8 Z M11,6 L12,6 L12,13 L11,13 L11,6 Z M14,8 L15,8 L15,11 L14,11 L14,8 Z M11.5,22 C12.3284271,22 13,21.3284271 13,20.5 C13,19.6715729 12.3284271,19 11.5,19 C10.6715729,19 10,19.6715729 10,20.5 C10,21.3284271 10.6715729,22 11.5,22 Z"/>
  </defs>
  <use xlink:href="#asset-network-a"/>
</svg>
