<?xml version="1.0" encoding="UTF-8"?>
<svg xmlns="http://www.w3.org/2000/svg" xmlns:xlink="http://www.w3.org/1999/xlink" width="24" height="24" viewBox="0 0 24 24">
  <defs>
    <path id="cog-black-a" d="M21.6158569,14.1063795 C21.9900259,14.4015954 22.0882412,14.9262456 21.8530359,15.3571352 L19.9590994,18.6333391 C19.7247761,19.0629318 19.2124254,19.2451464 18.7538728,19.0668827 L16.6453084,18.2199218 C16.2449455,18.501752 15.8403559,18.7389183 15.4245979,18.9307673 L15.1044873,21.1621321 C15.0451392,21.6438993 14.6296884,22 14.1431516,22 L10.3431516,22 C9.85650899,22 9.44220483,21.6448821 9.38230284,21.1719836 L9.06092215,18.9311438 C8.63441074,18.7356131 8.22752229,18.4988341 7.83810048,18.2210159 L5.71611006,19.0728098 C5.27295174,19.2339582 4.75918449,19.0586371 4.53326722,18.6441352 L2.62720379,15.3463391 C2.39784193,14.9258424 2.49563905,14.400747 2.87205872,14.1051126 L4.65610607,12.7093493 C4.63107963,12.4572181 4.61815157,12.2261945 4.61815157,12 C4.61815157,11.7742757 4.63110645,11.5428589 4.65611097,11.2907444 L2.87021327,9.89426269 C2.49099444,9.59469714 2.38548705,9.06155347 2.63326722,8.64369087 L4.52720379,5.36748698 C4.76174631,4.93749236 5.27527135,4.75416392 5.73154822,4.93392091 L7.84068236,5.78081486 C8.24068965,5.49876233 8.64526553,5.26149535 9.06088615,5.06989399 L9.38121098,2.83609796 C9.44220483,2.35511785 9.85650899,2 10.3431516,2 L14.1431516,2 C14.6296884,2 15.0451392,2.35610068 15.1031775,2.82803926 L15.4245069,5.06925702 C15.8506439,5.26410912 16.2577219,5.50106371 16.6482092,5.77977147 L18.769367,4.92801633 C19.2125001,4.76687704 19.7270872,4.94213128 19.9530359,5.35669087 L21.8590994,8.65448698 C22.0881006,9.0743226 21.9900709,9.59748117 21.6140649,9.89585386 L19.829692,11.2905615 C19.8554104,11.5447785 19.8681516,11.7694089 19.8681516,12 C19.8681516,12.2306167 19.8554075,12.4552714 19.8296834,12.7095233 L21.6158569,14.1063795 Z M12.2431516,16.2173913 C14.5688157,16.2173913 16.4605429,14.3256641 16.4605429,12 C16.4605429,9.67433589 14.5688157,7.7826087 12.2431516,7.7826087 C9.91748746,7.7826087 8.02576027,9.67433589 8.02576027,12 C8.02576027,14.3256641 9.91748746,16.2173913 12.2431516,16.2173913 Z"/>
  </defs>
  <use xlink:href="#cog-black-a"/>
</svg>
