<?xml version="1.0" encoding="UTF-8"?>
<svg xmlns="http://www.w3.org/2000/svg" xmlns:xlink="http://www.w3.org/1999/xlink" width="24" height="24" viewBox="0 0 24 24">
  <defs>
    <path id="arrow-last-bottom-a" d="M4.35355339,6.14644661 L12,13.7928932 L19.6464466,6.14644661 C19.8417088,5.95118446 20.1582912,5.95118446 20.3535534,6.14644661 C20.5488155,6.34170876 20.5488155,6.65829124 20.3535534,6.85355339 L12.3535534,14.8535534 C12.1582912,15.0488155 11.8417088,15.0488155 11.6464466,14.8535534 L3.64644661,6.85355339 C3.45118446,6.65829124 3.45118446,6.34170876 3.64644661,6.14644661 C3.84170876,5.95118446 4.15829124,5.95118446 4.35355339,6.14644661 Z M21,17.5 C21,17.7761424 20.7761424,18 20.5,18 L3.5,18 C3.22385763,18 3,17.7761424 3,17.5 C3,17.2238576 3.22385763,17 3.5,17 L20.5,17 C20.7761424,17 21,17.2238576 21,17.5 Z"/>
  </defs>
  <use xlink:href="#arrow-last-bottom-a"/>
</svg>
