<?xml version="1.0" encoding="UTF-8"?>
<svg xmlns="http://www.w3.org/2000/svg" xmlns:xlink="http://www.w3.org/1999/xlink" width="24" height="24" viewBox="0 0 24 24">
  <defs>
    <path id="arrow-first-left-a" d="M17.8535534,19.6464466 C18.0488155,19.8417088 18.0488155,20.1582912 17.8535534,20.3535534 C17.6582912,20.5488155 17.3417088,20.5488155 17.1464466,20.3535534 L9.14644661,12.3535534 C8.95118446,12.1582912 8.95118446,11.8417088 9.14644661,11.6464466 L17.1464466,3.64644661 C17.3417088,3.45118446 17.6582912,3.45118446 17.8535534,3.64644661 C18.0488155,3.84170876 18.0488155,4.15829124 17.8535534,4.35355339 L10.2071068,12 L17.8535534,19.6464466 Z M6.5,3 C6.77614237,3 7,3.22385763 7,3.5 L7,20.5 C7,20.7761424 6.77614237,21 6.5,21 C6.22385763,21 6,20.7761424 6,20.5 L6,3.5 C6,3.22385763 6.22385763,3 6.5,3 Z"/>
  </defs>
  <use xlink:href="#arrow-first-left-a"/>
</svg>
