<?xml version="1.0" encoding="UTF-8"?>
<svg xmlns="http://www.w3.org/2000/svg" xmlns:xlink="http://www.w3.org/1999/xlink" width="24" height="24" viewBox="0 0 24 24">
  <defs>
    <path id="exclamation-diamond-a" d="M12.2071068,19.8786797 L19.8786797,12.2071068 C20.2692039,11.8165825 20.2692039,11.1834175 19.8786797,10.7928932 L12.2071068,3.12132034 C11.8165825,2.73079605 11.1834175,2.73079605 10.7928932,3.12132034 L3.12132034,10.7928932 C2.73079605,11.1834175 2.73079605,11.8165825 3.12132034,12.2071068 L10.7928932,19.8786797 C11.1834175,20.2692039 11.8165825,20.2692039 12.2071068,19.8786797 Z M10.0857864,20.5857864 L2.41421356,12.9142136 C1.63316498,12.133165 1.63316498,10.866835 2.41421356,10.0857864 L10.0857864,2.41421356 C10.866835,1.63316498 12.133165,1.63316498 12.9142136,2.41421356 L20.5857864,10.0857864 C21.366835,10.866835 21.366835,12.133165 20.5857864,12.9142136 L12.9142136,20.5857864 C12.133165,21.366835 10.866835,21.366835 10.0857864,20.5857864 Z M11,15 L11,17 L12,17 L12,15 L11,15 Z M11,6 L11,13 L12,13 L12,6 L11,6 Z"/>
  </defs>
  <use xlink:href="#exclamation-diamond-a"/>
</svg>
