<?xml version="1.0" encoding="UTF-8"?>
<svg xmlns="http://www.w3.org/2000/svg" xmlns:xlink="http://www.w3.org/1999/xlink" width="24" height="24" viewBox="0 0 24 24">
  <defs>
    <path id="funnel-bold-a" d="M5.86851709,5 L10.8320503,12.4452998 C10.941562,12.6095673 11,12.802575 11,13 L11,18.0857864 L13,20.0857864 L13,13 C13,12.802575 13.058438,12.6095673 13.1679497,12.4452998 L18.1314829,5 L5.86851709,5 Z M9,13.3027756 L3.16794971,4.5547002 C2.72491322,3.89014547 3.20130462,3 4,3 L20,3 C20.7986954,3 21.2750868,3.89014547 20.8320503,4.5547002 L15,13.3027756 L15,22.5 C15,23.3909049 13.9228581,23.8370716 13.2928932,23.2071068 L9.29289322,19.2071068 C9.10535684,19.0195704 9,18.7652165 9,18.5 L9,13.3027756 Z"/>
  </defs>
  <use xlink:href="#funnel-bold-a"/>
</svg>
