<?xml version="1.0" encoding="UTF-8"?>
<svg xmlns="http://www.w3.org/2000/svg" xmlns:xlink="http://www.w3.org/1999/xlink" width="24" height="24" viewBox="0 0 24 24">
  <defs>
    <path id="cross-a" d="M12,11.2928932 L18.6464466,4.64644661 C18.8417088,4.45118446 19.1582912,4.45118446 19.3535534,4.64644661 C19.5488155,4.84170876 19.5488155,5.15829124 19.3535534,5.35355339 L12.7071068,12 L19.495689,18.7885822 C19.6909512,18.9838444 19.6909512,19.3004269 19.495689,19.495689 C19.3004269,19.6909512 18.9838444,19.6909512 18.7885822,19.495689 L12,12.7071068 L5.35355339,19.3535534 C5.15829124,19.5488155 4.84170876,19.5488155 4.64644661,19.3535534 C4.45118446,19.1582912 4.45118446,18.8417088 4.64644661,18.6464466 L11.2928932,12 L4.64644661,5.35355339 C4.45118446,5.15829124 4.45118446,4.84170876 4.64644661,4.64644661 C4.84170876,4.45118446 5.15829124,4.45118446 5.35355339,4.64644661 L12,11.2928932 Z"/>
  </defs>
  <use xlink:href="#cross-a"/>
</svg>
