<?xml version="1.0" encoding="UTF-8"?>
<svg xmlns="http://www.w3.org/2000/svg" xmlns:xlink="http://www.w3.org/1999/xlink" width="24" height="24" viewBox="0 0 24 24">
  <defs>
    <path id="folder-a" d="M10.3000683,7.97831367 L7.33535031,5 L4,5 C3.44771525,5 3,5.44771525 3,6 L3,20 C3,20.5522847 3.44771525,21 4,21 L20,21 C20.5522847,21 21,20.5522847 21,20 L21,9 C21,8.44771525 20.5522847,8 20,8 L16,8 L10.3000683,7.97831367 Z M17,6.97831367 L20,7 C21.1045695,7 22,7.8954305 22,9 L22,20 C22,21.1045695 21.1045695,22 20,22 L4,22 C2.8954305,22 2,21.1045695 2,20 L2,6 C2,4.8954305 2.8954305,4 4,4 L7.7509046,4 L10.7156225,6.97831367 L17,6.97831367 Z"/>
  </defs>
  <use xlink:href="#folder-a"/>
</svg>
