<?xml version="1.0" encoding="UTF-8"?>
<svg xmlns="http://www.w3.org/2000/svg" xmlns:xlink="http://www.w3.org/1999/xlink" width="24" height="24" viewBox="0 0 24 24">
  <defs>
    <path id="check-circle-a" d="M12,21 C16.9705627,21 21,16.9705627 21,12 C21,7.02943725 16.9705627,3 12,3 C7.02943725,3 3,7.02943725 3,12 C3,16.9705627 7.02943725,21 12,21 Z M11,15.2928932 L7.35355339,11.6464466 C7.15829124,11.4511845 6.84170876,11.4511845 6.64644661,11.6464466 C6.45118446,11.8417088 6.45118446,12.1582912 6.64644661,12.3535534 L10.6464466,16.3535534 C10.7440777,16.4511845 10.8720388,16.5 11,16.5 C11.1279612,16.5 11.2559223,16.4511845 11.3535534,16.3535534 L18.3535534,9.35355339 C18.5488155,9.15829124 18.5488155,8.84170876 18.3535534,8.64644661 C18.1582912,8.45118446 17.8417088,8.45118446 17.6464466,8.64644661 L11,15.2928932 Z M12,22 C6.4771525,22 2,17.5228475 2,12 C2,6.4771525 6.4771525,2 12,2 C17.5228475,2 22,6.4771525 22,12 C22,17.5228475 17.5228475,22 12,22 Z"/>
  </defs>
  <use xlink:href="#check-circle-a"/>
</svg>
