
<svg version="1.1" xmlns="http://www.w3.org/2000/svg" width="32" height="32" viewBox="0 0 32 32">
<title>clearInverted</title>
<path d="M7.185 6.955l-0.232 0.232c-1.253 1.283-2.22 2.819-2.832 4.505-0.956 2.653-1.008 5.549-0.148 8.235 0.617 1.905 1.677 3.637 3.093 5.053 4.915 4.915 13.004 4.915 17.92 0 1.159-1.16 2.081-2.533 2.717-4.044 0.612-1.46 0.945-3.023 0.983-4.605 0.072-2.852-0.823-5.645-2.54-7.923-0.843-1.116-1.863-2.087-3.019-2.872-0.987-0.669-2.068-1.196-3.203-1.563-2.685-0.86-5.581-0.807-8.235 0.149-1.687 0.612-3.223 1.579-4.505 2.832zM16 15.057l4.195-4.196c0.261-0.26 0.683-0.26 0.944 0 0.26 0.261 0.26 0.683 0 0.944l-4.196 4.195 4.328 4.328c0.26 0.26 0.26 0.683 0 0.943s-0.683 0.26-0.943 0l-4.328-4.328-4.195 4.196c-0.261 0.26-0.683 0.26-0.944 0-0.26-0.261-0.26-0.683 0-0.944l4.196-4.195-4.196-4.195c-0.26-0.261-0.26-0.683 0-0.944 0.261-0.26 0.683-0.26 0.944 0l4.195 4.196z"></path>
</svg>
