<?xml version="1.0" encoding="UTF-8"?>
<svg xmlns="http://www.w3.org/2000/svg" xmlns:xlink="http://www.w3.org/1999/xlink" width="24" height="24" viewBox="0 0 24 24">
  <defs>
    <path id="puzzle-piece-black-a" d="M16.6432677,4.60620247 C16.4291314,4.82061582 16.2751084,5.07214981 16.1792595,5.34002798 C16.1792595,5.34002798 15.8390792,6.37580509 14.6695015,5.20927462 L11.4596728,2 L8.84045043,4.61922241 C7.66644043,5.79323241 8.70554178,6.13479784 8.70554178,6.13479784 C8.97341995,6.22953862 9.22495395,6.38383866 9.43936729,6.598252 C10.2067122,7.36531989 10.2067122,8.60969292 9.43936729,9.37676081 L9.43909027,9.37731485 C8.67146834,10.1443827 7.42764935,10.1443827 6.66002742,9.37731485 C6.44561408,9.16262449 6.29103702,8.91109049 6.19657326,8.6429353 C6.19657326,8.6429353 5.85500783,7.60411097 4.68072081,8.77812097 L2,11.4591188 L5.20511933,14.6636841 C6.37912933,15.8376941 5.34002798,16.1795365 5.34002798,16.1795365 C5.07187279,16.2748314 4.82061582,16.4280233 4.60592545,16.6432677 C3.83885757,17.4108896 3.83885757,18.6544316 4.60592545,19.4217765 L4.60620247,19.4217765 C5.37354738,20.1893985 6.61792041,20.1899525 7.38471128,19.4217765 C7.59940164,19.2081942 7.75370168,18.9563832 7.84844246,18.6885051 C7.84844246,18.6885051 8.1900079,17.6496807 9.36429492,18.8236907 L12.5403272,22 L15.2207709,19.3190022 C16.3945039,18.1449922 15.3565107,17.8028727 15.3565107,17.8028727 C15.0886325,17.7073009 14.8365445,17.5541089 14.6232392,17.3394185 C13.8556173,16.5720736 13.8556173,15.3277006 14.6224081,14.5609097 L14.6232392,14.5603557 C15.3908611,13.7927338 16.6346801,13.7927338 17.401748,14.5603557 C17.6156073,14.773938 17.7701844,15.025749 17.8649251,15.2936272 C17.8649251,15.2936272 18.2059365,16.3330055 19.3807776,15.1592725 L22,12.5400501 L18.8195354,9.3598626 C17.653559,8.18917684 18.6896131,7.84871948 18.6896131,7.84871948 C18.9580453,7.75425572 19.2093023,7.59967866 19.4231616,7.38554234 C20.1907836,6.61792041 20.1907836,5.37410142 19.4231616,4.60647949 L19.4220535,4.60647949 C18.6549857,3.83858055 17.4114437,3.83858055 16.6432677,4.60620247 Z"/>
  </defs>
  <use xlink:href="#puzzle-piece-black-a"/>
</svg>
