<?xml version="1.0" encoding="UTF-8"?>
<svg xmlns="http://www.w3.org/2000/svg" xmlns:xlink="http://www.w3.org/1999/xlink" width="24" height="24" viewBox="0 0 24 24">
  <defs>
    <path id="arrow-first-top-a" d="M4.35355339,17.8535534 C4.15829124,18.0488155 3.84170876,18.0488155 3.64644661,17.8535534 C3.45118446,17.6582912 3.45118446,17.3417088 3.64644661,17.1464466 L11.6464466,9.14644661 C11.8417088,8.95118446 12.1582912,8.95118446 12.3535534,9.14644661 L20.3535534,17.1464466 C20.5488155,17.3417088 20.5488155,17.6582912 20.3535534,17.8535534 C20.1582912,18.0488155 19.8417088,18.0488155 19.6464466,17.8535534 L12,10.2071068 L4.35355339,17.8535534 Z M21,6.5 C21,6.77614237 20.7761424,7 20.5,7 L3.5,7 C3.22385763,7 3,6.77614237 3,6.5 C3,6.22385763 3.22385763,6 3.5,6 L20.5,6 C20.7761424,6 21,6.22385763 21,6.5 Z"/>
  </defs>
  <use xlink:href="#arrow-first-top-a"/>
</svg>
