<?xml version="1.0" encoding="UTF-8"?>
<svg xmlns="http://www.w3.org/2000/svg" xmlns:xlink="http://www.w3.org/1999/xlink" width="24" height="24" viewBox="0 0 24 24">
  <defs>
    <path id="person-multiple-a" d="M8.5,12 C6.01471863,12 4,9.98528137 4,7.5 C4,5.01471863 6.01471863,3 8.5,3 C10.9852814,3 13,5.01471863 13,7.5 C13,9.98528137 10.9852814,12 8.5,12 Z M8.5,11 C10.4329966,11 12,9.43299662 12,7.5 C12,5.56700338 10.4329966,4 8.5,4 C6.56700338,4 5,5.56700338 5,7.5 C5,9.43299662 6.56700338,11 8.5,11 Z M14.5,12 L14.5,11 C16.4329966,11 18,9.43299662 18,7.5 C18,5.56700338 16.4329966,4 14.5,4 L14.5,3 C16.9852814,3 19,5.01471863 19,7.5 C19,9.98528137 16.9852814,12 14.5,12 Z M3.2569761,21.4688109 C3.27420139,21.7444155 3.06474357,21.981801 2.78913896,21.9990263 C2.51353435,22.0162516 2.27614881,21.8067938 2.25892353,21.5311891 L2.00892353,17.5311891 C1.85303711,15.0370065 3.76325355,13 6.25377606,13 L10.2621236,13 C12.7437541,13 14.7579498,15.0178648 14.7579498,17.5 L14.7579498,21.5 C14.7579498,21.7761424 14.5340922,22 14.2579498,22 C13.9818074,22 13.7579498,21.7761424 13.7579498,21.5 L13.7579498,17.5 C13.7579498,15.5697425 12.1910615,14 10.2621236,14 L6.25377606,14 C4.34048804,14 2.8870451,15.5499148 3.0069761,17.4688109 L3.2569761,21.4688109 Z M14.7579498,14 C14.4818074,14 14.2579498,13.7761424 14.2579498,13.5 C14.2579498,13.2238576 14.4818074,13 14.7579498,13 L18.3604758,13 C20.5238524,13 22.1798315,14.7655023 22.0449311,16.9239094 L21.7569761,21.5311891 C21.7397508,21.8067938 21.5023653,22.0162516 21.2267607,21.9990263 C20.9511561,21.981801 20.7416982,21.7444155 20.7589235,21.4688109 L21.0468785,16.8615311 C21.1458204,15.2784611 19.9466688,14 18.3604758,14 L14.7579498,14 Z"/>
  </defs>
  <use xlink:href="#person-multiple-a"/>
</svg>
