<?xml version="1.0" encoding="UTF-8"?>
<svg xmlns="http://www.w3.org/2000/svg" xmlns:xlink="http://www.w3.org/1999/xlink" width="24" height="24" viewBox="0 0 24 24">
  <defs>
    <path id="scope-b-a" d="M11.5,17 C14.5375661,17 17,14.5375661 17,11.5 C17,8.46243388 14.5375661,6 11.5,6 C8.46243388,6 6,8.46243388 6,11.5 C6,14.5375661 8.46243388,17 11.5,17 Z M11.5,18 C7.91014913,18 5,15.0898509 5,11.5 C5,7.91014913 7.91014913,5 11.5,5 C15.0898509,5 18,7.91014913 18,11.5 C18,15.0898509 15.0898509,18 11.5,18 Z M11.5,12.5 C10.9477153,12.5 10.5,12.0522847 10.5,11.5 C10.5,10.9477153 10.9477153,10.5 11.5,10.5 C12.0522847,10.5 12.5,10.9477153 12.5,11.5 C12.5,12.0522847 12.0522847,12.5 11.5,12.5 Z M11,2 L12,2 L12,7 L11,7 L11,2 Z M21,11 L21,12 L16,12 L16,11 L21,11 Z M11,16 L12,16 L12,21 L11,21 L11,16 Z M7,11 L7,12 L2,12 L2,11 L7,11 Z"/>
  </defs>
  <use xlink:href="#scope-b-a"/>
</svg>
