
<svg version="1.1" xmlns="http://www.w3.org/2000/svg" width="32" height="32" viewBox="0 0 32 32">
<title>moveInverted</title>
<path d="M16.163 3.334c1.793 0.020 3.563 0.423 5.188 1.183 2.552 1.2 4.637 3.211 5.928 5.717 0.544 1.061 0.936 2.199 1.16 3.369 0.263 1.373 0.297 2.78 0.104 4.165-0.396 2.825-1.739 5.433-3.807 7.399-1.145 1.092-2.485 1.961-3.951 2.561-1.519 0.619-3.141 0.937-4.781 0.937-6.951 0-12.671-5.72-12.671-12.671 0-2.003 0.475-3.977 1.385-5.761 1.291-2.507 3.376-4.517 5.928-5.717 1.625-0.76 3.395-1.163 5.188-1.183h0.328zM13.9 10.432l-1.727 1.725 0.569 0.569 2.696-2.697-2.696-2.697-0.569 0.569 1.727 1.725h-3.855c-1.103 0-2.011 0.908-2.011 2.011v9.651c0 1.103 0.908 2.011 2.011 2.011h13.269v-0.805h-13.269c-0.661 0-1.207-0.544-1.207-1.205v-9.651c0-0.661 0.545-1.205 1.207-1.205h3.855zM23.315 20.082v-0.804h-7.237v0.804h7.237zM23.315 16.866v-0.805h-7.237v0.805h7.237zM23.315 13.648v-0.804h-7.237v0.804h7.237zM23.315 10.432v-0.805h-7.237v0.805h7.237z"></path>
</svg>
