<svg xmlns="http://www.w3.org/2000/svg" width="32" height="32"><path d="M16 28.666C9.006 28.666 3.334 22.995 3.334 16S9.005 3.334 16 3.334c6.994 0 12.666 5.671 12.666 12.666S22.995 28.666 16 28.666zM9.151 17.478l-.006.108-.001.036-.002.035v.037l-.001.035-.001.036v.144l.001.036.001.072.002.036.001.036.008.144.01.108.006.071.007.072.004.036.005.036.004.035.011.072.005.035.006.036.005.036.013.071.014.071.007.035.058.285-1.259 1.073.014.037.016.042.017.044.034.085.018.044.018.042.036.084.019.042.018.042.039.083.019.042.02.041.041.083.041.082.021.04.021.041.067.121.022.039.023.04.023.039.023.04.047.078.049.078.024.038.025.039.025.038.024.038.052.076.027.038.027.037.027.038.027.037.083.111.028.036.028.037.086.108.054.066 1.559-.555.217.194.027.023.028.023.028.024.055.047.028.022.029.023.028.022.115.089.029.021.058.042.03.021.029.021.059.041.03.02.06.04.03.019.091.058.062.037.032.019.062.036.032.018.031.018.032.017.032.018.095.051.064.032.033.016.032.016.033.016.098.046.034.015.066.03.033.014.034.014.033.014.034.014.067.027.102.038.034.012.068.024.035.011.276.092.299 1.627.038.006.091.014.046.006.046.007.046.005.047.006.045.005.047.005.046.005.091.009.092.007.046.004.046.003.092.004.046.003.047.001.046.002.138.003h.184l.138-.003.046-.002.047-.001.046-.003.092-.004.046-.003.046-.004.047-.003.137-.013.138-.016.046-.006.046-.005.046-.007.046-.006.091-.014.038-.006.299-1.627.276-.092.035-.011.034-.013.068-.023.102-.038.034-.014.033-.013.068-.028.066-.028.033-.015.034-.015.066-.03.032-.015.066-.032.032-.016.033-.016.064-.032.095-.051.032-.018.032-.017.031-.018.032-.018.031-.018.032-.018.031-.019.031-.018.031-.019.03-.019.031-.019.031-.02.059-.039.031-.02.03-.02.059-.041.029-.021.03-.021.029-.021.03-.021.029-.021.115-.089.028-.022.029-.023.028-.022.055-.047.055-.048.028-.023.216-.194 1.559.555.024-.03.03-.036.057-.072.028-.036.029-.037.028-.036.083-.111.027-.037.053-.075.027-.038.102-.153.025-.039.024-.038.049-.078.047-.078.023-.04.023-.039.023-.04.022-.039.067-.121.042-.082.021-.041.02-.04.021-.041.04-.083.019-.042.038-.083.038-.085.018-.042.036-.084.018-.044.034-.085.017-.044.016-.042.014-.037-1.259-1.073.058-.285.007-.035.014-.071.013-.071.005-.036.006-.036.005-.035.011-.072.014-.107.003-.036.007-.071.004-.036.003-.036.005-.072.009-.144.005-.18v-.144l-.001-.036-.001-.035-.001-.037-.001-.035-.001-.036-.009-.144-.003-.036-.002-.036-.003-.036-.004-.036-.003-.035-.004-.037-.003-.035-.005-.036-.004-.036-.004-.035-.016-.108-.006-.035-.005-.036-.013-.071-.014-.071-.007-.036-.058-.284 1.259-1.073-.014-.037-.016-.042-.017-.043-.017-.042-.017-.043-.054-.127-.037-.084-.019-.042-.019-.041-.019-.042-.019-.041-.04-.083-.021-.041-.02-.04-.021-.041-.042-.082-.089-.161-.047-.08-.07-.118-.049-.079-.024-.038-.051-.077-.076-.115-.053-.076-.053-.074-.083-.111-.028-.036-.056-.073-.057-.072-.03-.036-.024-.03-1.559.555-.216-.194-.055-.048-.055-.047-.055-.046-.029-.023-.028-.022-.115-.089-.029-.021-.03-.022-.087-.063-.03-.021-.03-.02-.06-.04-.03-.02-.06-.039-.031-.019-.03-.019-.062-.038-.031-.018-.032-.018-.093-.054-.064-.035-.095-.051-.032-.016-.032-.017-.033-.016-.032-.016-.033-.015-.033-.016-.065-.03-.033-.015-.067-.03-.066-.028-.068-.028-.033-.014-.136-.051-.034-.012-.034-.013-.034-.012-.035-.012-.276-.091-.299-1.627-.038-.006-.046-.007-.091-.014-.091-.013-.184-.021-.184-.017-.091-.006-.046-.002-.047-.003-.092-.004-.091-.002-.046-.002-.092-.001h-.092l-.046.001h-.047l-.046.002-.091.002-.092.004-.047.003-.046.002-.091.006-.047.004-.137.013-.046.005-.047.005-.045.005-.047.005-.091.013-.091.014-.046.007-.038.006-.299 1.627-.311.103-.034.012-.068.024-.136.051-.033.014-.034.014-.033.014-.034.014-.033.014-.066.03-.034.015-.065.03-.033.016-.065.031-.065.033-.032.016-.127.068-.032.018-.031.018-.032.018-.031.018-.063.036-.062.038-.03.019-.031.019-.031.02-.03.019-.03.02-.06.04-.03.02-.03.021-.029.021-.03.021-.029.02-.03.022-.029.021-.115.089-.028.022-.029.023-.055.046-.055.047-.028.024-.027.023-.217.194-1.559-.555-.024.03-.03.036-.086.108-.028.037-.055.073-.028.037-.054.074-.027.037-.053.076-.025.038-.027.038-.024.038-.051.077-.024.038-.049.079-.07.118-.047.08-.089.161-.021.041-.021.04-.041.082-.041.083-.02.041-.019.041-.019.042-.02.041-.037.084-.072.17-.017.043-.034.086-.016.042-.014.037 1.259 1.073-.058.284-.007.036-.014.071-.013.071-.005.036-.006.035-.016.108-.004.035-.005.036-.004.036-.003.035-.004.037-.006.071-.006.072-.005.072zm3.144-.166l.014-.058.007-.03.008-.03.007-.029.008-.03.01-.029.008-.029.019-.057.011-.028.011-.029.011-.028.011-.029.012-.028.012-.027.025-.055.025-.053.041-.08.029-.052.015-.025.016-.025.015-.025.016-.024.016-.025.051-.073.017-.023.018-.024.035-.047.019-.023.037-.046.019-.022.02-.022.019-.022.04-.042.021-.021.02-.021.021-.021.042-.04.043-.04.045-.038.046-.037.023-.019.047-.036.048-.034.024-.018.024-.016.024-.017.051-.032.024-.015.025-.016.052-.03.052-.029.027-.014.053-.025.027-.014.028-.012.028-.013.055-.023.055-.021.029-.011.028-.011.086-.029.029-.008.03-.008.029-.008.03-.007.029-.007.03-.006.06-.014.03-.005.03-.006.031-.004.03-.005.092-.013.031-.003.032-.003.093-.006.094-.003h.065l.094.003.093.006.032.003.031.003.062.008.03.004.031.005.031.004.03.006.03.005.031.006.029.007.03.006.059.015.029.008.03.008.029.008.086.029.028.011.029.011.055.021.028.012.082.036.028.014.053.025.027.014.027.015.025.014.027.015.025.015.025.016.024.015.025.016.05.033.024.016.024.018.048.034.047.036.023.019.046.037.045.038.021.02.022.02.042.04.021.021.02.021.021.021.04.042.019.022.02.022.019.022.037.046.019.023.036.047.017.024.017.023.051.073.016.025.016.024.016.025.03.051.029.052.041.08.025.053.025.055.012.027.011.028.012.029.011.028.011.029.011.028.029.086.009.029.009.03.007.029.009.03.007.03.006.029.007.03.006.03.005.031.011.06.005.031.004.03.009.062.003.031.002.032.003.031.004.063.003.094v.064l-.003.095-.002.031-.002.032-.003.031-.002.031-.003.032-.009.062-.004.03-.005.031-.011.06-.005.03-.006.03-.007.03-.006.03-.007.03-.009.03-.007.029-.009.03-.009.029-.029.086-.011.028-.011.029-.011.028-.022.055-.012.028-.013.028-.013.027-.013.028-.013.027-.041.08-.029.052-.03.051-.016.024-.016.025-.016.024-.017.024-.017.025-.034.048-.017.023-.018.024-.018.023-.019.022-.018.023-.019.022-.019.023-.02.021-.019.022-.02.022-.02.021-.021.021-.02.021-.021.02-.021.021-.021.02-.022.02-.021.019-.022.02-.022.019-.023.019-.022.018-.023.018-.023.019-.023.017-.024.018-.023.017-.049.034-.025.016-.024.017-.05.031-.025.016-.025.015-.027.015-.025.014-.08.041-.027.013-.028.013-.027.013-.028.012-.028.013-.028.011-.028.012-.055.021-.029.011-.086.029-.029.009-.03.009-.029.007-.03.009-.029.007-.03.006-.03.007-.031.005-.03.006-.03.005-.062.011-.03.004-.031.004-.031.003-.031.004-.032.002-.031.003-.032.002-.031.001-.032.002-.032.001h-.031l-.032.001-.033-.001h-.031l-.032-.001-.032-.002-.031-.001-.032-.002-.031-.003-.032-.002-.031-.004-.031-.003-.062-.009-.03-.005-.031-.005-.03-.005-.03-.006-.03-.005-.031-.007-.03-.006-.029-.007-.03-.009-.029-.007-.03-.009-.029-.009-.086-.029-.028-.011-.029-.011-.028-.011-.028-.012-.028-.011-.028-.013-.028-.012-.028-.013-.053-.025-.08-.041-.025-.014-.052-.03-.025-.016-.05-.031-.025-.017-.049-.033-.024-.017-.023-.017-.024-.018-.023-.017-.023-.019-.023-.018-.022-.018-.023-.019-.022-.019-.022-.02-.021-.019-.022-.02-.021-.02-.021-.021-.021-.02-.02-.021-.041-.042-.02-.022-.019-.022-.02-.021-.019-.023-.018-.022-.019-.023-.019-.022-.018-.023-.017-.024-.018-.023-.017-.024-.017-.023-.017-.025-.017-.024-.016-.024-.016-.025-.015-.024-.016-.025-.015-.025-.029-.052-.041-.08-.013-.027-.013-.028-.013-.027-.013-.028-.023-.055-.021-.055-.011-.029-.011-.028-.019-.057-.008-.029-.01-.029-.008-.03-.016-.058-.007-.03-.006-.03-.007-.03-.006-.03-.005-.03-.006-.03-.004-.031-.005-.031-.004-.03-.008-.062-.003-.032-.002-.031-.003-.031-.002-.032-.002-.031-.003-.095v-.064l.001-.032.001-.031.001-.032.002-.032.002-.031.003-.031.002-.032.003-.031.008-.062.004-.03.005-.031.004-.031.006-.03.005-.031.006-.03zm.624-12.718l.004.032.011.081.025.161.013.08.014.081.015.08.015.081.016.08.051.239.019.08.007.03 3.231.304.118.271.034.076.035.075.017.037.018.038.019.037.036.074.076.149.019.036.02.037.019.036.04.072.021.036.041.072.021.036.042.071.021.035.111.175.069.104.023.034.024.034.023.034.049.068.049.067.024.033.05.067.076.099.027.032.052.065.08.095.054.064.055.062.028.032.055.062.029.031.057.06.204.213-.976 3.097.025.019.066.047.066.048.067.047.068.046.067.046.068.046.068.045.138.087.138.085.07.042.07.041.07.04.071.04.142.079.216.115.072.036.073.037.073.035.073.036.028.013 2.253-2.337.326.087.04.01.04.011.161.038.041.008.04.01.04.008.041.008.04.007.041.008.04.007.041.007.04.007.082.013.041.007.041.006.04.005.041.006.083.011.04.005.083.01.083.008.041.003.041.004.164.013.042.002.041.003.041.001.083.004.207.005h.083l.167-.002.167-.006.124-.006.167-.013.293-.025 1.814 2.693.03-.007.077-.022.078-.022.078-.023.077-.023.078-.024.077-.025.076-.025.077-.025.076-.027.077-.028.076-.029.076-.028.075-.03.076-.03.075-.03.075-.031.088-.037-.016-.058-.02-.07-.02-.069-.021-.07-.021-.069-.022-.069-.021-.07-.023-.069-.023-.068-.023-.069-.023-.068-.049-.136-.051-.136-.025-.067-.027-.068-.027-.067-.028-.066-.027-.067-.029-.067-.028-.066-.057-.132-.03-.066-.03-.065-.031-.066-.03-.065-.032-.065-.031-.064-.032-.065-.032-.064-.033-.065-.033-.063-.033-.064-.034-.063-.034-.064-.034-.063-.035-.063-.035-.062-.071-.124-.036-.062-.036-.06-.037-.062-.074-.121-.076-.121-.038-.059-.078-.119-.04-.059-.039-.058-.04-.058-.041-.058-.04-.058-.041-.058-.042-.057-.041-.057-.042-.056-.042-.057-.131-.169-.044-.055-.089-.11-.046-.055-.046-.054-.046-.055-.046-.054-.047-.053-.046-.054-.048-.053-.047-.053-.048-.052-.048-.053-.048-.052-.098-.103-.049-.051-.1-.102-.028-.028-.05.013-.11.023-.056.012-.055.011-.056.01-.112.017-.115.015-.056.006-.057.005-.116.008-.116.006-.058.002-.058.001h-.117l-.058-.001-.118-.004-.059-.003-.058-.004-.119-.011-.118-.013-.058-.008-.057-.008-.058-.008-.057-.01-.058-.012-.057-.011-.056-.012-.057-.013-.055-.014-.056-.014-.056-.015-.11-.032-.055-.017-.054-.017-.054-.018-.054-.019-.054-.018-.053-.02-.053-.021-.052-.021-.053-.021-.052-.022-.102-.047-.051-.024-.051-.025-.1-.051-.05-.027-.098-.055-.095-.057-.095-.059-.046-.03-.047-.032-.046-.031-.046-.033-.045-.032-.045-.034-.045-.033-.044-.035-.044-.034-.042-.036-.042-.035-.042-.036-.041-.037-.04-.037-.041-.037-.04-.038-.039-.038-.039-.039-.038-.039-.076-.081-.037-.04-.037-.041-.036-.042-.035-.041-.036-.042-.034-.043-.035-.043-.034-.043-.033-.045-.033-.043-.064-.091-.062-.091-.059-.093-.029-.048-.029-.047-.028-.049-.027-.048-.028-.049-.025-.049-.025-.05-.024-.049-.025-.05-.047-.102-.045-.102-.021-.052-.02-.051-.02-.052-.02-.053-.018-.052-.019-.054-.034-.106-.004-.015-.004-.001-.07-.018-.071-.017-.072-.017-.142-.032-.216-.045-.217-.041-.072-.013-.293-.047-.073-.011-.222-.029-.149-.017-.149-.015-.075-.006-.074-.007-.225-.016-.226-.013-.076-.003-.227-.006-.076-.001h-.076l-.076-.001-.076.001h-.076l-.076.001-.227.006-.076.003-.226.013-.225.016-.074.007-.075.006-.149.015-.149.017-.222.029-.073.011-.293.047-.072.013-.073.014-.144.028-.216.045-.142.032-.072.017-.071.017-.07.018-.142.036-.059.016z"/></svg>