<?xml version="1.0" encoding="UTF-8"?>
<svg xmlns="http://www.w3.org/2000/svg" xmlns:xlink="http://www.w3.org/1999/xlink" width="24" height="24" viewBox="0 0 24 24">
  <defs>
    <path id="scope-a-a" d="M3.55024273,13.3303666 L4.08653998,14.2229151 L2.37220538,15.2529913 L2.88724345,16.1101586 L4.60157805,15.0800824 L5.14419955,15.9831562 L21.0837603,7.56216769 L18.5883514,3.40910988 L3.55024273,13.3303666 Z M4.25944883,16.4522878 L2.54511422,17.4823639 L1,14.910862 L2.7143346,13.8807859 L2.19929653,13.0236186 L18.9083062,2 L22.48511,7.95280114 L4.7744869,17.3094551 L4.25944883,16.4522878 Z M14.6566496,5.03954398 L15.5149842,4.52645361 L18.5935264,9.67646118 L17.7351918,10.1895515 L14.6566496,5.03954398 Z M12.3504327,12.5230397 L13.22459,12.0373967 L18.7102329,21.911554 L17.8360756,22.397197 L12.3504327,12.5230397 Z M10.806726,13.0464765 L11.7011532,13.4936901 L7.2539396,22.3881172 L6.35951241,21.9409037 L10.806726,13.0464765 Z"/>
  </defs>
  <use xlink:href="#scope-a-a"/>
</svg>
