<?xml version="1.0" encoding="UTF-8"?>
<svg xmlns="http://www.w3.org/2000/svg" xmlns:xlink="http://www.w3.org/1999/xlink" width="24" height="24" viewBox="0 0 24 24">
  <defs>
    <path id="brand_my_tenant-a" d="M7,8 L13.9,8 L13.9,9 L4,9 L4,11.5 C4,11.7761424 4.22385763,12 4.5,12 L7.57084713,12 C8.39927426,12 9.07084713,12.6715729 9.07084713,13.5 C9.07084713,13.602528 9.06033521,13.7047859 9.03947624,13.8051697 L8.03375256,18.6452149 C7.86664202,19.4494344 8.20106365,20.2750459 8.88075071,20.7362621 C9.5614362,21.1981558 10.4531122,21.205377 11.1411891,20.754568 L11.1759869,20.7317694 C11.8711457,20.2763206 12.2077082,19.4350829 12.018532,18.625829 L10.9001044,13.8414441 C10.71153,13.0347649 11.212603,12.2279526 12.0192821,12.0393782 C12.131212,12.0132128 12.2457786,12 12.3607261,12 L14.581543,12 C14.5465267,11.7018479 14.556884,11.3852429 14.6110874,11.0442973 C14.7478419,10.1775433 15.2724059,9.38706784 16.1329335,8.81917505 C14.9405283,8.08274249 14.5695109,7.50126926 14.7256327,6.50911671 C14.9501011,5.09496548 16.4304907,4.38194845 18.179511,4.65900003 C19.4523333,4.86076844 20.4906899,5.36073589 21.2900544,6.0438292 L20.640402,6.80406065 C19.9771891,6.23731507 19.1075958,5.81860689 18.0230016,5.64667651 C16.7585842,5.4463879 15.8363319,5.89058287 15.7133728,6.66522228 C15.6133815,7.30066783 16.0380139,7.68727515 17.759913,8.58095713 C20.1862925,9.82000946 21.2396653,11.0293077 20.9313005,12.9743771 C20.7829887,13.9147045 20.3226117,14.6531088 19.573347,15.2318097 C20.7337765,16.0080075 21.1168072,16.7053373 20.9592039,17.7046282 C20.7109122,19.2757151 19.2044096,20.0020209 17.3094291,19.702588 C15.9662971,19.4888706 14.7402503,18.8164386 13.9501101,18.0424237 L14.6498899,17.3280652 C15.2995627,17.9644793 16.3416457,18.5360153 17.4660385,18.7149276 C18.8758403,18.9376953 19.8241773,18.4804889 19.9714382,17.5486831 C20.084861,16.8295204 19.6862433,16.3627575 18.0098508,15.4722203 C16.4077652,14.6288714 15.3916176,13.8783688 14.9041405,13 L12.3607261,13 C12.3224103,13 12.2842214,13.0044043 12.2469115,13.0131261 C11.9780184,13.0759842 11.8109941,13.3449216 11.8738522,13.6138147 L12.9922799,18.3981997 C13.2770431,19.6163536 12.7704221,20.8826523 11.7240131,21.5682306 L11.6892154,21.5910291 C10.6633986,22.263116 9.33404668,22.2523504 8.31924929,21.5637379 C7.30446482,20.8751341 6.80516757,19.642482 7.05466648,18.4417685 L8.06039017,13.6017232 C8.06734316,13.568262 8.07084713,13.534176 8.07084713,13.5 C8.07084713,13.2238576 7.84698951,13 7.57084713,13 L4.5,13 C3.67157288,13 3,12.3284271 3,11.5 L3,8 L3,3 L17,3 L17,4 L7,4 L7,8 Z M6,8 L6,4 L4,4 L4,8 L6,8 Z M17.1540464,9.39271523 C16.2325752,9.82043932 15.7118685,10.4839478 15.5987765,11.200726 C15.3886702,12.5223203 16.1673802,13.3722406 18.4773228,14.5882144 C18.5288421,14.6155825 18.5794801,14.6427616 18.6292449,14.6697647 C19.3918831,14.1998218 19.8181081,13.6136629 19.9435734,12.8181877 C20.1642333,11.4263331 19.3879964,10.5351937 17.3021893,9.47004552 C17.2519901,9.44399203 17.2026118,9.41822044 17.1540464,9.39271523 Z M10,20 C9.44771525,20 9,19.5522847 9,19 C9,18.4477153 9.44771525,18 10,18 C10.5522847,18 11,18.4477153 11,19 C11,19.5522847 10.5522847,20 10,20 Z"/>
  </defs>
  <use xlink:href="#brand_my_tenant-a"/>
</svg>
