<?xml version="1.0" encoding="UTF-8"?>
<svg xmlns="http://www.w3.org/2000/svg" xmlns:xlink="http://www.w3.org/1999/xlink" width="24" height="24" viewBox="0 0 24 24">
  <defs>
    <path id="pencil-a" d="M3.81455027,16.6499158 L3.22529462,20.7747054 L7.35008418,20.1854497 L20.7781746,6.75735931 L17.2426407,3.22182541 L3.81455027,16.6499158 Z M17.5961941,2.16116524 L21.8388348,6.40380592 C22.0340969,6.59906807 22.0340969,6.91565056 21.8388348,7.1109127 L7.93933983,21.0104076 C7.86284141,21.0869061 7.76359491,21.1365293 7.65649712,21.151829 L2.70674965,21.8589358 C2.37676648,21.9060762 2.09392377,21.6232335 2.14106422,21.2932504 L2.848171,16.3435029 C2.86347069,16.2364051 2.91309394,16.1371586 2.98959236,16.0606602 L16.8890873,2.16116524 C17.0843494,1.96590309 17.4009319,1.96590309 17.5961941,2.16116524 Z M14.4130859,6.05421448 L17.9528503,9.57722473 L18.6611176,8.8800354 L15.1186066,5.34233093 L14.4130859,6.05421448 Z"/>
  </defs>
  <use xlink:href="#pencil-a"/>
</svg>
