<?xml version="1.0" encoding="UTF-8"?>
<svg xmlns="http://www.w3.org/2000/svg" xmlns:xlink="http://www.w3.org/1999/xlink" width="24" height="24" viewBox="0 0 24 24">
  <defs>
    <path id="cross-circle-a" d="M12,11.2928932 L15.1464466,8.14644661 C15.3417088,7.95118446 15.6582912,7.95118446 15.8535534,8.14644661 C16.0488155,8.34170876 16.0488155,8.65829124 15.8535534,8.85355339 L12.7071068,12 L15.9532167,15.2461099 C16.1484788,15.441372 16.1484788,15.7579545 15.9532167,15.9532167 C15.7579545,16.1484788 15.441372,16.1484788 15.2461099,15.9532167 L12,12.7071068 L8.85355339,15.8535534 C8.65829124,16.0488155 8.34170876,16.0488155 8.14644661,15.8535534 C7.95118446,15.6582912 7.95118446,15.3417088 8.14644661,15.1464466 L11.2928932,12 L8.14644661,8.85355339 C7.95118446,8.65829124 7.95118446,8.34170876 8.14644661,8.14644661 C8.34170876,7.95118446 8.65829124,7.95118446 8.85355339,8.14644661 L12,11.2928932 Z M12,22 C6.4771525,22 2,17.5228475 2,12 C2,6.4771525 6.4771525,2 12,2 C17.5228475,2 22,6.4771525 22,12 C22,17.5228475 17.5228475,22 12,22 Z M12,21 C16.9705627,21 21,16.9705627 21,12 C21,7.02943725 16.9705627,3 12,3 C7.02943725,3 3,7.02943725 3,12 C3,16.9705627 7.02943725,21 12,21 Z"/>
  </defs>
  <use xlink:href="#cross-circle-a"/>
</svg>
