<?xml version="1.0" encoding="UTF-8"?>
<svg xmlns="http://www.w3.org/2000/svg" xmlns:xlink="http://www.w3.org/1999/xlink" width="24" height="24" viewBox="0 0 24 24">
  <defs>
    <path id="sort-a" d="M19,17.8644672 L21.2902385,15.7034811 L21.9765234,16.4308139 L18.4975909,19.7134086 L15.0159218,16.430956 L15.7019054,15.703339 L18,17.8699397 L18,5.71545225 L15.7047358,7.88118041 L15.0184509,7.15384759 L18.4973834,3.87125291 L21.9790525,7.15370553 L21.2930688,7.88132247 L19,5.71945999 L19,17.8644672 Z M2,5 L2,4 L14,4 L14,5 L2,5 Z M2,10 L2,9 L13,9 L13,10 L2,10 Z M2,15 L2,14 L12,14 L12,15 L2,15 Z M2,20 L2,19 L11,19 L11,20 L2,20 Z"/>
  </defs>
  <use xlink:href="#sort-a"/>
</svg>
