<?xml version="1.0" encoding="UTF-8" standalone="no"?><!DOCTYPE svg PUBLIC "-//W3C//DTD SVG 1.1//EN" "http://www.w3.org/Graphics/SVG/1.1/DTD/svg11.dtd"><svg width="100%" height="100%" viewBox="0 0 24 24" version="1.1" xmlns="http://www.w3.org/2000/svg" xmlns:xlink="http://www.w3.org/1999/xlink" xml:space="preserve" xmlns:serif="http://www.serif.com/" style="fill-rule:evenodd;clip-rule:evenodd;stroke-linejoin:round;stroke-miterlimit:1.41421;"><path id="cross-circle-a" d="M12,22c-5.523,0 -10,-4.477 -10,-10c0,-5.523 4.477,-10 10,-10c5.523,0 10,4.477 10,10c0,5.523 -4.477,10 -10,10Zm0,-1c4.971,0 9,-4.029 9,-9c0,-4.971 -4.029,-9 -9,-9c-4.971,0 -9,4.029 -9,9c0,4.971 4.029,9 9,9Z" style="fill-rule:nonzero;"/><path d="M15.609,7.981c0.012,0 0.023,0 0.034,0.001l0.035,0.003l0.015,0.003l0.016,0.002c0.093,0.019 0.183,0.065 0.255,0.137c0.073,0.073 0.118,0.162 0.137,0.256l0.006,0.038l0.003,0.025c0,0.01 0.001,0.02 0.001,0.03l0,0.006l0,2.915c0,0.036 -0.004,0.071 -0.011,0.105c-0.002,0.011 -0.005,0.023 -0.008,0.034c-0.001,0.002 -0.001,0.004 -0.002,0.005c-0.006,0.02 -0.013,0.039 -0.021,0.057l-0.001,0.003c-0.012,0.027 -0.026,0.052 -0.042,0.076c-0.006,0.009 -0.012,0.018 -0.019,0.026c-0.004,0.005 -0.008,0.01 -0.012,0.015l-0.001,0.001c-0.006,0.008 -0.013,0.015 -0.02,0.023c-0.001,0.001 -0.002,0.002 -0.004,0.004l-0.002,0.002c-0.021,0.022 -0.045,0.042 -0.071,0.06l-0.012,0.009c-0.003,0.001 -0.005,0.003 -0.008,0.005l-0.002,0.001l-0.003,0.002c-0.002,0.001 -0.003,0.002 -0.005,0.003l0,0l0,0c-0.01,0.006 -0.019,0.011 -0.029,0.016l-0.012,0.006c-0.003,0.002 -0.007,0.003 -0.011,0.005l-0.016,0.007l-0.003,0.001c-0.016,0.007 -0.033,0.012 -0.049,0.017l-0.003,0.001c-0.001,0 -0.002,0 -0.003,0.001l-0.003,0.001c-0.01,0.002 -0.02,0.005 -0.031,0.007l-0.003,0c-0.003,0.001 -0.006,0.001 -0.009,0.002c-0.006,0.001 -0.012,0.002 -0.018,0.003c-0.004,0 -0.007,0.001 -0.011,0.001l-0.002,0c-0.003,0.001 -0.006,0.001 -0.008,0.001l-0.002,0l-0.003,0c-0.005,0.001 -0.01,0.001 -0.014,0.001c-0.004,0.001 -0.007,0.001 -0.01,0.001l-0.001,0l-0.002,0c-0.001,0 -0.003,0 -0.005,0l-0.003,0l-0.003,0l-0.004,0c-0.004,0 -0.009,0 -0.014,0l-0.002,0l-0.003,0c-0.002,0 -0.005,0 -0.008,-0.001l-0.002,0l-0.001,0c-0.004,0 -0.008,0 -0.011,-0.001l-0.015,-0.001c-0.006,-0.001 -0.012,-0.001 -0.018,-0.002c-0.019,-0.003 -0.037,-0.007 -0.055,-0.012c-0.002,0 -0.003,-0.001 -0.005,-0.001c-0.021,-0.006 -0.041,-0.013 -0.061,-0.021l-0.003,-0.001c-0.008,-0.004 -0.016,-0.008 -0.024,-0.012c-0.001,0 -0.002,-0.001 -0.003,-0.001l-0.003,-0.002c-0.04,-0.02 -0.077,-0.046 -0.11,-0.076l-0.001,-0.001l-0.002,-0.002c-0.002,-0.002 -0.005,-0.005 -0.008,-0.008l-0.001,-0.001l-0.001,-0.001c-0.005,-0.004 -0.009,-0.009 -0.014,-0.013l0,-0.001l-0.001,-0.001c-0.001,-0.001 -0.002,-0.002 -0.003,-0.003c-0.005,-0.005 -0.009,-0.011 -0.014,-0.016l-0.002,-0.002l-0.001,-0.001l-0.001,-0.001l-0.001,-0.002c-0.009,-0.011 -0.017,-0.022 -0.025,-0.034c-0.004,-0.004 -0.007,-0.009 -0.01,-0.014l-0.001,-0.002l-0.001,-0.001c-0.001,-0.002 -0.002,-0.004 -0.004,-0.006c-0.004,-0.007 -0.008,-0.014 -0.012,-0.021l-0.001,-0.003l-0.001,-0.001c-0.001,-0.002 -0.002,-0.005 -0.003,-0.007c-0.007,-0.013 -0.013,-0.027 -0.019,-0.04c-0.001,-0.003 -0.002,-0.006 -0.003,-0.009c-0.003,-0.008 -0.006,-0.016 -0.009,-0.025l-0.001,-0.002l-0.001,-0.003c0,-0.002 -0.001,-0.005 -0.002,-0.007c-0.002,-0.009 -0.005,-0.018 -0.007,-0.027c-0.001,-0.005 -0.002,-0.01 -0.003,-0.016c-0.003,-0.011 -0.004,-0.022 -0.006,-0.033l0,-0.003l-0.001,-0.002c-0.002,-0.018 -0.003,-0.036 -0.003,-0.055l0,-0.003c0,-0.001 0,-0.002 0,-0.004l0,-1.704l-6.338,6.338c-0.195,0.195 -0.513,0.195 -0.709,0c-0.196,-0.196 -0.196,-0.514 0,-0.71l6.337,-6.337l-1.704,0c-0.277,0 -0.502,-0.225 -0.502,-0.502c0,-0.277 0.225,-0.501 0.502,-0.501l2.915,0Z" style="fill:#ebebeb;"/></svg>