<svg version="1.1" xmlns="http://www.w3.org/2000/svg" width="32" height="32" viewBox="0 0 32 32">
<title>globe</title>
<path d="M16 29.333c-7.364 0-13.333-5.97-13.333-13.333s5.97-13.333 13.333-13.333c7.364 0 13.333 5.97 13.333 13.333s-5.97 13.333-13.333 13.333zM16 28c6.627 0 12-5.373 12-12s-5.373-12-12-12c-6.627 0-12 5.373-12 12s5.373 12 12 12zM11.117 20c-0.272-1.308-0.424-2.652-0.45-4.013 0.026-1.351 0.178-2.686 0.448-3.987h-7.115v-1.333h7.437c0.79-2.862 2.166-5.52 4.053-7.763 0.266-0.317 0.754-0.317 1.020 0 1.885 2.241 3.261 4.897 4.051 7.763h7.478v1.333h-7.156c0.272 1.308 0.424 2.652 0.45 4.013-0.026 1.351-0.178 2.686-0.448 3.987h7.154v1.333h-7.476c-0.79 2.862-2.166 5.52-4.053 7.763-0.266 0.317-0.754 0.317-1.020 0-1.885-2.241-3.261-4.897-4.051-7.763h-7.439v-1.333h7.117zM19.523 20c0.289-1.299 0.451-2.636 0.477-3.987-0.026-1.362-0.188-2.707-0.479-4.013h-7.044c-0.289 1.299-0.451 2.636-0.477 3.987 0.026 1.362 0.188 2.707 0.479 4.013h7.044zM19.178 21.333h-6.354c0.674 2.28 1.749 4.411 3.176 6.27 1.429-1.86 2.503-3.993 3.178-6.27zM19.176 10.667c-0.674-2.28-1.749-4.411-3.176-6.27-1.429 1.86-2.504 3.993-3.178 6.27h6.354z"></path>
</svg>
