<?xml version="1.0" encoding="UTF-8"?>
<svg xmlns="http://www.w3.org/2000/svg" xmlns:xlink="http://www.w3.org/1999/xlink" width="24" height="24" viewBox="0 0 24 24">
  <defs>
    <path id="types-a" d="M7.34272793,18.5797559 L7.18028801,19.5664744 C4.26636634,19.0867659 2.1,16.5580085 2.1,13.5736969 C2.1,10.2192867 4.81928672,7.5 8.17369689,7.5 C9.91967597,7.5 11.5473472,8.24140202 12.6918403,9.51453782 L11.9481602,10.1830735 C10.9913817,9.11875167 9.6329766,8.5 8.17369689,8.5 C5.37157147,8.5 3.1,10.7715715 3.1,13.5736969 C3.1,16.0664819 4.9100049,18.1792654 7.34272793,18.5797559 Z M9,7.12502264 L8,7.12502264 L8,5.5 C8,4.11928813 9.11928813,3 10.5,3 L18.5,3 C19.8807119,3 21,4.11928813 21,5.5 L21,13.5 C21,14.7858686 20.0249497,15.858434 18.7544461,15.9871725 L18.6536336,14.992267 C19.4147483,14.9151443 20,14.2713613 20,13.5 L20,5.5 C20,4.67157288 19.3284271,4 18.5,4 L10.5,4 C9.67157288,4 9,4.67157288 9,5.5 L9,7.12502264 Z M14,9 L20.5,21 L7.5,21 L14,9 Z M14,11.0995914 L9.17894534,20 L18.8210547,20 L14,11.0995914 Z"/>
  </defs>
  <use xlink:href="#types-a"/>
</svg>
