<?xml version="1.0" encoding="UTF-8"?>
<svg xmlns="http://www.w3.org/2000/svg" xmlns:xlink="http://www.w3.org/1999/xlink" width="24" height="24" viewBox="0 0 24 24">
  <defs>
    <path id="roles-a" d="M20,17.2097326 L20.8680832,20 L23,20 L23,21 L5,21 L5,20 L7.13191681,20 L8,17.2097326 L8,17 L8.06525015,17 L9.19784835,13.3595058 C9.56373428,12.1834439 10.81373,11.5266664 11.9897919,11.8925524 C12.1275564,11.9354124 12.2608365,11.9915403 12.3877585,12.0601467 L13.2867244,12.5460743 C13.7318103,12.7866612 14.2681897,12.7866612 14.7132756,12.5460743 L15.6122415,12.0601467 C16.6957436,11.4744699 18.0488805,11.8780371 18.6345573,12.9615392 C18.7031638,13.0884611 18.7592916,13.2217413 18.8021516,13.3595058 L19.9347499,17 L20,17 L20,17.2097326 Z M19.1985835,18 L8.80141652,18 L8.1791943,20 L19.8208057,20 L19.1985835,18 Z M18.8874724,17 L17.8472949,13.6565723 C17.8236535,13.5805822 17.7926937,13.5070657 17.7548508,13.4370562 C17.4317948,12.8394026 16.6854121,12.6167972 16.0877585,12.9398533 L15.1887926,13.4257808 C14.4469828,13.8267591 13.5530172,13.8267591 12.8112074,13.4257808 L11.9122415,12.9398533 C11.842232,12.9020103 11.7687155,12.8710505 11.6927254,12.8474092 C11.0440163,12.6455886 10.3545257,13.0078632 10.1527051,13.6565723 L9.11252763,17 L18.8874724,17 Z M4.38413916,13 L8.5,13 L8.5,14 L3.61586084,14 L1.27778494,5.23221537 L6.32251001,6.91379039 L10,2.18558898 L13.67749,6.91379039 L18.7556991,5.22105402 L16.9789131,11.1436739 L16.0210869,10.8563261 L17.2443009,6.77894598 L13.32251,8.08620961 L10,3.81441102 L6.67748999,8.08620961 L2.72221506,6.76778463 L4.38413916,13 Z M3,16 L3,15 L8,15 L8,16 L3,16 Z"/>
  </defs>
  <use xlink:href="#roles-a"/>
</svg>
