<?xml version="1.0" encoding="UTF-8"?>
<svg xmlns="http://www.w3.org/2000/svg" xmlns:xlink="http://www.w3.org/1999/xlink" width="24" height="24" viewBox="0 0 24 24">
  <defs>
    <path id="cog-box-a" d="M5.8458278,3 C4.77756757,3 4.39725995,3.07344079 4.0063303,3.28251225 C3.69170989,3.45077309 3.45077309,3.69170989 3.28251225,4.0063303 C3.07344079,4.39725995 3,4.77756757 3,5.8458278 L3,18.1541722 C3,19.2224324 3.07344079,19.60274 3.28251225,19.9936697 C3.45077309,20.3082901 3.69170989,20.5492269 4.0063303,20.7174877 C4.39725995,20.9265592 4.77756757,21 5.8458278,21 L18.1541722,21 C19.2224324,21 19.60274,20.9265592 19.9936697,20.7174877 C20.3082901,20.5492269 20.5492269,20.3082901 20.7174877,19.9936697 C20.9265592,19.60274 21,19.2224324 21,18.1541722 L21,5.8458278 C21,4.77756757 20.9265592,4.39725995 20.7174877,4.0063303 C20.5492269,3.69170989 20.3082901,3.45077309 19.9936697,3.28251225 C19.60274,3.07344079 19.2224324,3 18.1541722,3 L5.8458278,3 Z M5.8458278,2 L18.1541722,2 C19.4914503,2 19.9763797,2.13923842 20.4652686,2.40069906 C20.9541574,2.66215969 21.3378403,3.04584256 21.5993009,3.53473144 C21.8607616,4.02362033 22,4.50854969 22,5.8458278 L22,18.1541722 C22,19.4914503 21.8607616,19.9763797 21.5993009,20.4652686 C21.3378403,20.9541574 20.9541574,21.3378403 20.4652686,21.5993009 C19.9763797,21.8607616 19.4914503,22 18.1541722,22 L5.8458278,22 C4.50854969,22 4.02362033,21.8607616 3.53473144,21.5993009 C3.04584256,21.3378403 2.66215969,20.9541574 2.40069906,20.4652686 C2.13923842,19.9763797 2,19.4914503 2,18.1541722 L2,5.8458278 C2,4.50854969 2.13923842,4.02362033 2.40069906,3.53473144 C2.66215969,3.04584256 3.04584256,2.66215969 3.53473144,2.40069906 C4.02362033,2.13923842 4.50854969,2 5.8458278,2 Z M19.7751001,13.5898498 L18.3951373,12.5081985 C18.4114148,12.3348969 18.4199317,12.1653988 18.4199317,12 C18.4199317,11.8325533 18.4112596,11.6612992 18.3944416,11.4817018 L19.7602106,10.4108234 C20.1002558,10.1249771 20.1899686,9.65078073 19.9671213,9.27868704 L18.4709406,6.69282168 C18.2462024,6.31880408 17.8014961,6.16576752 17.4035094,6.31271647 L15.785667,6.96364245 C15.5061927,6.76690527 15.2135816,6.59582745 14.9053341,6.44949199 L14.6650595,4.74095744 C14.5832517,4.3088492 14.2156606,4 13.7949317,4 L10.7949317,4 C10.3684337,4 10.0006841,4.31573234 9.92739619,4.7351023 L9.68428332,6.46210042 C9.3751582,6.61052379 9.08058094,6.78213043 8.8047031,6.97528581 L7.19984644,6.3293918 C6.79044151,6.17596823 6.34493964,6.32927859 6.12378201,6.69519394 L4.61892277,9.29576286 C4.40009123,9.66104101 4.4895125,10.1343046 4.81476333,10.4101502 L6.19472613,11.4918015 C6.17844863,11.6651031 6.16993171,11.8346012 6.16993171,12 C6.16993171,12.1674112 6.1786001,12.3386284 6.1954111,12.5181842 L4.82978851,13.5881879 C4.4895125,13.8762836 4.40009123,14.3495472 4.62274213,14.721313 L6.11892277,17.3071783 C6.34366106,17.6811959 6.7883673,17.8342325 7.18635404,17.6872835 L8.80419645,17.0363576 C9.08367068,17.2330947 9.37628182,17.4041725 9.68452934,17.550508 L9.92480389,19.2590426 C10.0043244,19.6901936 10.3736622,20 10.7949317,20 L13.7949317,20 C14.2209177,20 14.5869823,19.6851966 14.6620567,19.2672149 L14.9055678,17.5379055 C15.2146974,17.3894808 15.5092788,17.2178721 15.7851603,17.0247142 L17.390017,17.6706082 C17.7994219,17.8240318 18.2449238,17.6707214 18.4660814,17.3048061 L19.9709406,14.7042371 C20.1897722,14.338959 20.1003509,13.8656954 19.7751001,13.5898498 Z M17.5577297,13.1224003 L19.053032,14.2940117 L17.6599647,16.7014548 L15.8998464,15.9929212 C15.7348727,15.9265255 15.5470482,15.9527516 15.4065714,16.0617974 C15.0606295,16.3303368 14.6712383,16.5573125 14.2522309,16.7364176 C14.0912657,16.8052224 13.9780057,16.9531976 13.9536274,17.1265457 L13.6901599,19 L10.8977552,19 L10.636236,17.1371339 C10.6116507,16.962314 10.4966971,16.8134163 10.3337924,16.7453833 C9.91961647,16.5724133 9.53987329,16.3500663 9.18329201,16.073268 C9.04281526,15.9642221 8.85499072,15.9379961 8.69001698,16.0043918 L6.93018017,16.7126595 L5.53669191,14.3042547 L7.03213373,13.1329886 C7.17145654,13.0238252 7.24268444,12.8491385 7.21941561,12.673679 C7.18667467,12.4267947 7.16993171,12.2065754 7.16993171,12 C7.16993171,11.7924708 7.18691245,11.5715215 7.21902241,11.339809 C7.24346113,11.163454 7.1722788,10.9874073 7.03213373,10.8775997 L5.53683146,9.70598831 L6.92989871,7.29854516 L8.69001698,8.00707879 C8.85499072,8.07347447 9.04281526,8.04724844 9.18329201,7.93820256 C9.52923394,7.66966316 9.91862514,7.44268748 10.3376325,7.26358235 C10.4985977,7.19477765 10.6118577,7.04680242 10.636236,6.87345432 L10.8997035,5 L13.6922193,5 L13.9536274,6.86286609 C13.9782127,7.03768597 14.0931664,7.18658371 14.256071,7.2546167 C14.6702469,7.42758671 15.0499901,7.64993371 15.4065714,7.92673197 C15.5470482,8.03577785 15.7348727,8.06200388 15.8998464,7.9956082 L17.6596832,7.28734055 L19.0528044,9.69511089 L17.557594,10.8671177 C17.4183573,10.9762912 17.3471871,11.1509224 17.3704478,11.326321 C17.4031887,11.5732053 17.4199317,11.7934246 17.4199317,12 C17.4199317,12.2075292 17.402951,12.4284785 17.370841,12.660191 C17.3464023,12.836546 17.4175846,13.0125927 17.5577297,13.1224003 Z M12.2949317,14.7058824 C13.7896035,14.7058824 15.0008141,13.4946718 15.0008141,12 C15.0008141,10.5053282 13.7896035,9.29411765 12.2949317,9.29411765 C10.8002599,9.29411765 9.58904935,10.5053282 9.58904935,12 C9.58904935,13.4946718 10.8002599,14.7058824 12.2949317,14.7058824 Z M12.2949317,13.7058824 C11.3525447,13.7058824 10.5890494,12.942387 10.5890494,12 C10.5890494,11.057613 11.3525447,10.2941176 12.2949317,10.2941176 C13.2373187,10.2941176 14.0008141,11.057613 14.0008141,12 C14.0008141,12.942387 13.2373187,13.7058824 12.2949317,13.7058824 Z"/>
  </defs>
  <use xlink:href="#cog-box-a"/>
</svg>
