<?xml version="1.0" encoding="UTF-8"?>
<svg xmlns="http://www.w3.org/2000/svg" xmlns:xlink="http://www.w3.org/1999/xlink" width="24" height="24" viewBox="0 0 24 24">
  <defs>
    <path id="speedo2-a" d="M18.2158397,6.49126708 L11.8180195,12.8890873 L11.1109127,12.1819805 L17.4532477,5.83964547 C15.9400416,4.68544017 14.0500674,4 12,4 C7.02943725,4 3,8.02943725 3,13 C3,15.1498623 3.74769375,17.4434566 4.93891884,19 L19.087547,19 C20.2590251,17.4492071 21,15.1421777 21,13 C21,10.4402233 19.9313452,8.13004437 18.2158397,6.49126708 Z M19.5644969,20 L4.46528477,20 C2.93005967,18.2421496 2,15.5171988 2,13 C2,7.4771525 6.4771525,3 12,3 C17.5228475,3 22,7.4771525 22,13 C22,15.5008801 21.0819602,18.2465757 19.5644969,20 Z M6.01652893,11 C6.28650273,11 6.51515058,11.0909082 6.70247934,11.2727273 C6.90082744,11.4655657 7,11.7079875 7,12 C7,12.2865028 6.90082744,12.5289246 6.70247934,12.7272727 C6.51515058,12.9090918 6.28099314,13 6,13 C5.71900686,13 5.48484942,12.9090918 5.29752066,12.7272727 C5.09917256,12.5289246 5,12.2865028 5,12 C5,11.7079875 5.09917256,11.4655657 5.29752066,11.2727273 C5.49035909,11.0909082 5.73002612,11 6.01652893,11 Z M12.0165289,5.5 C12.2865027,5.5 12.5151506,5.59090818 12.7024793,5.77272727 C12.9008274,5.9655657 13,6.20798752 13,6.5 C13,6.78650281 12.9008274,7.02892463 12.7024793,7.22727273 C12.5151506,7.40909182 12.2809931,7.5 12,7.5 C11.7190069,7.5 11.4848494,7.40909182 11.2975207,7.22727273 C11.0991726,7.02892463 11,6.78650281 11,6.5 C11,6.20798752 11.0991726,5.9655657 11.2975207,5.77272727 C11.4903591,5.59090818 11.7300261,5.5 12.0165289,5.5 Z M18.0165289,11 C18.2865027,11 18.5151506,11.0909082 18.7024793,11.2727273 C18.9008274,11.4655657 19,11.7079875 19,12 C19,12.2865028 18.9008274,12.5289246 18.7024793,12.7272727 C18.5151506,12.9090918 18.2809931,13 18,13 C17.7190069,13 17.4848494,12.9090918 17.2975207,12.7272727 C17.0991726,12.5289246 17,12.2865028 17,12 C17,11.7079875 17.0991726,11.4655657 17.2975207,11.2727273 C17.4903591,11.0909082 17.7300261,11 18.0165289,11 Z"/>
  </defs>
  <use xlink:href="#speedo2-a"/>
</svg>
