<?xml version="1.0" encoding="UTF-8"?>
<svg xmlns="http://www.w3.org/2000/svg" xmlns:xlink="http://www.w3.org/1999/xlink" width="24" height="24" viewBox="0 0 24 24">
  <defs>
    <path id="speedo-a" d="M15.3748616,3.65415067 C14.3326638,3.23229996 13.1934602,3 12,3 C7.02943725,3 3,7.02943725 3,12 C3,14.4636217 3.98987721,16.6960452 5.59359813,18.321237 C7.37500817,16.8329988 9.62318927,16 12,16 C14.3767081,16 16.6248657,16.8329107 18.4064001,18.3212388 C20.0101221,16.6960468 21,14.4636226 21,12 C21,8.57846353 19.0906936,5.60286946 16.2794021,4.08053898 L12.4524094,12.2128985 C12.3348287,12.4627573 12.0369603,12.56999 11.7871015,12.4524094 C11.5372427,12.3348287 11.43001,12.0369603 11.5475906,11.7871015 L15.3748616,3.65415066 Z M6.34260251,18.9999489 C7.88833818,20.2507795 9.85667417,21 12,21 C14.1433247,21 16.1116597,20.2507803 17.657395,18.9999509 C16.0714781,17.7159857 14.0920669,17 12,17 C9.90784984,17 7.92841276,17.7160597 6.34260251,18.9999489 Z M12,22 C6.4771525,22 2,17.5228475 2,12 C2,6.4771525 6.4771525,2 12,2 C17.5228475,2 22,6.4771525 22,12 C22,17.5228475 17.5228475,22 12,22 Z M6.01652893,10 C6.28650273,10 6.51515058,10.0909082 6.70247934,10.2727273 C6.90082744,10.4655657 7,10.7079875 7,11 C7,11.2865028 6.90082744,11.5289246 6.70247934,11.7272727 C6.51515058,11.9090918 6.28099314,12 6,12 C5.71900686,12 5.48484942,11.9090918 5.29752066,11.7272727 C5.09917256,11.5289246 5,11.2865028 5,11 C5,10.7079875 5.09917256,10.4655657 5.29752066,10.2727273 C5.49035909,10.0909082 5.73002612,10 6.01652893,10 Z M18.0165289,10 C18.2865027,10 18.5151506,10.0909082 18.7024793,10.2727273 C18.9008274,10.4655657 19,10.7079875 19,11 C19,11.2865028 18.9008274,11.5289246 18.7024793,11.7272727 C18.5151506,11.9090918 18.2809931,12 18,12 C17.7190069,12 17.4848494,11.9090918 17.2975207,11.7272727 C17.0991726,11.5289246 17,11.2865028 17,11 C17,10.7079875 17.0991726,10.4655657 17.2975207,10.2727273 C17.4903591,10.0909082 17.7300261,10 18.0165289,10 Z M12.0165289,5 C12.2865027,5 12.5151506,5.09090818 12.7024793,5.27272727 C12.9008274,5.4655657 13,5.70798752 13,6 C13,6.28650281 12.9008274,6.52892463 12.7024793,6.72727273 C12.5151506,6.90909182 12.2809931,7 12,7 C11.7190069,7 11.4848494,6.90909182 11.2975207,6.72727273 C11.0991726,6.52892463 11,6.28650281 11,6 C11,5.70798752 11.0991726,5.4655657 11.2975207,5.27272727 C11.4903591,5.09090818 11.7300261,5 12.0165289,5 Z"/>
  </defs>
  <use xlink:href="#speedo-a"/>
</svg>
