<?xml version="1.0" encoding="UTF-8"?>
<svg xmlns="http://www.w3.org/2000/svg" xmlns:xlink="http://www.w3.org/1999/xlink" width="24" height="24" viewBox="0 0 24 24">
  <defs>
    <path id="exclamation-triangle-black-a" d="M22.1137402,20 C22.1137402,20.5522847 21.6660249,21 21.1137402,21 L3.00019392,21 C2.83470478,21 2.6718025,20.9589295 2.52609409,20.8804711 C2.03982333,20.618633 1.85788472,20.0121709 2.11972282,19.5259002 L10.9658733,3.09733496 C11.0554784,2.9309255 11.1904079,2.79331625 11.3550232,2.70045631 C11.8360514,2.42910711 12.4459737,2.59908547 12.7173229,3.08011359 L21.9847187,19.5086788 C22.0692992,19.658617 22.1137402,19.8278509 22.1137402,20 Z M11,16 L11,18 L13,18 L13,16 L11,16 Z M11,7 L11,14 L13,14 L13,7 L11,7 Z"/>
  </defs>
  <use xlink:href="#exclamation-triangle-black-a"/>
</svg>
