<?xml version="1.0" encoding="UTF-8"?>
<svg xmlns="http://www.w3.org/2000/svg" xmlns:xlink="http://www.w3.org/1999/xlink" width="24" height="24" viewBox="0 0 24 24">
  <defs>
    <path id="headset-a" d="M13.9287609,20.5309413 C13.6961643,21.3778118 12.920742,22 12,22 L11,22 C9.8954305,22 9,21.1045695 9,20 C9,18.8954305 9.8954305,18 11,18 L12,18 C12.9103402,18 13.6786254,18.6082095 13.9206705,19.4404433 C15.7768104,18.5307438 17,16.6310334 17,14.5 L17,8.5 C17,5.46243388 14.5375661,3 11.5,3 C8.46243388,3 6,5.46243388 6,8.5 L6,15 L4,15 C2.8954305,15 2,14.1045695 2,13 L2,10 C2,8.8954305 2.8954305,8 4,8 L5.01894482,8 C5.27425725,4.64377614 8.07838512,2 11.5,2 C14.9216149,2 17.7257427,4.64377614 17.9810552,8 L19,8 C20.1045695,8 21,8.8954305 21,10 L21,13 C21,14.1045695 20.1045695,15 19,15 L17.9809157,15 C17.7916591,17.4718761 16.2102466,19.612125 13.9287609,20.5309413 Z M5,9 L4,9 C3.44771525,9 3,9.44771525 3,10 L3,13 C3,13.5522847 3.44771525,14 4,14 L5,14 L5,9 Z M18,9 L18,14 L19,14 C19.5522847,14 20,13.5522847 20,13 L20,10 C20,9.44771525 19.5522847,9 19,9 L18,9 Z M11,19 C10.4477153,19 10,19.4477153 10,20 C10,20.5522847 10.4477153,21 11,21 L12,21 C12.5522847,21 13,20.5522847 13,20 C13,19.4477153 12.5522847,19 12,19 L11,19 Z"/>
  </defs>
  <use xlink:href="#headset-a"/>
</svg>
