<?xml version="1.0" encoding="UTF-8"?>
<svg xmlns="http://www.w3.org/2000/svg" xmlns:xlink="http://www.w3.org/1999/xlink" width="24" height="24" viewBox="0 0 24 24">
  <defs>
    <path id="plus-circle-a" d="M12,11 L16.5,11 C16.7761424,11 17,11.2238576 17,11.5 C17,11.7761424 16.7761424,12 16.5,12 L12,12 L12,16.5 C12,16.7761424 11.7761424,17 11.5,17 C11.2238576,17 11,16.7761424 11,16.5 L11,12 L7,12 C6.72385763,12 6.5,11.7761424 6.5,11.5 C6.5,11.2238576 6.72385763,11 7,11 L11,11 L11,6.5 C11,6.22385763 11.2238576,6 11.5,6 C11.7761424,6 12,6.22385763 12,6.5 L12,11 Z M11.5,21 C6.25329488,21 2,16.7467051 2,11.5 C2,6.25329488 6.25329488,2 11.5,2 C16.7467051,2 21,6.25329488 21,11.5 C21,16.7467051 16.7467051,21 11.5,21 Z M11.5,20 C16.1944204,20 20,16.1944204 20,11.5 C20,6.80557963 16.1944204,3 11.5,3 C6.80557963,3 3,6.80557963 3,11.5 C3,16.1944204 6.80557963,20 11.5,20 Z"/>
  </defs>
  <use xlink:href="#plus-circle-a"/>
</svg>
