<?xml version="1.0" encoding="UTF-8"?>
<svg xmlns="http://www.w3.org/2000/svg" xmlns:xlink="http://www.w3.org/1999/xlink" width="24" height="24" viewBox="0 0 24 24">
  <defs>
    <path id="funnel_list-a" d="M20,5 L20,4 L21,4 L21,5 L20,5 Z M17,10 L17,9 L21,9 L21,10 L17,10 Z M14,15 L14,14 L21,14 L21,15 L14,15 Z M14,20 L14,19 L21,19 L21,20 L14,20 Z M4,5 L8.8,11.4 C8.92982213,11.5730962 9,11.7836298 9,12 L9,17.5193752 L12,19.9193752 L12,12 C12,11.7836298 12.0701779,11.5730962 12.2,11.4 L17,5 L4,5 Z M2,4 L19,4 L13,12 L13,22 L8,18 L8,12 L2,4 Z"/>
  </defs>
  <use xlink:href="#funnel_list-a"/>
</svg>
