<?xml version="1.0" encoding="UTF-8"?>
<svg xmlns="http://www.w3.org/2000/svg" xmlns:xlink="http://www.w3.org/1999/xlink" width="24" height="24" viewBox="0 0 24 24">
  <defs>
    <path id="outgoing-in_mindsphere-a" d="M4.99559463,19.0903411 C4.97976095,19.0780422 4.96452552,19.0645951 4.95,19.05 C4.76534159,18.8644567 4.76534159,18.5636316 4.95,18.3780883 L14.3316312,9 L8.5,9 C8.22385763,9 8,8.77614237 8,8.5 C8,8.22385763 8.22385763,8 8.5,8 L15.4698267,8 C15.4748734,8 15.4799026,8.00007477 15.4849133,8.00022326 C15.4899241,8.00007477 15.4949533,8 15.5,8 C15.5046241,8 15.5092336,8.00006277 15.5138276,8.00018751 C15.6392419,7.99665704 15.7657878,8.04298036 15.8615062,8.13915746 C15.9569381,8.23504666 16.0030506,8.36172585 15.9998436,8.48737036 C15.9999477,8.4915676 16,8.49577769 16,8.5 L16,15.4698267 C16,15.7459691 15.7761424,15.9698267 15.5,15.9698267 C15.2238576,15.9698267 15,15.7459691 15,15.4698267 L15,9.67224998 L5.96145303,18.7073837 C7.60364303,20.1874926 9.73510893,21.025 12,21.025 C16.9843699,21.025 21.025,16.9843699 21.025,12 C21.025,7.01563013 16.9843699,2.975 12,2.975 C7.01563013,2.975 2.975,7.01563013 2.975,12 L2.025,12 C2.025,6.49095962 6.49095962,2.025 12,2.025 C17.5090404,2.025 21.975,6.49095962 21.975,12 C21.975,17.5090404 17.5090404,21.975 12,21.975 C9.34010227,21.975 6.84437697,20.9285512 4.98974373,19.0962634 L4.99559463,19.0903411 Z"/>
  </defs>
  <use xlink:href="#outgoing-in_mindsphere-a"/>
</svg>
