<?xml version="1.0" encoding="UTF-8"?>
<svg xmlns="http://www.w3.org/2000/svg" xmlns:xlink="http://www.w3.org/1999/xlink" width="24" height="24" viewBox="0 0 24 24">
  <defs>
    <path id="circle-questionmark-a" d="M12,22 C6.4771525,22 2,17.5228475 2,12 C2,6.4771525 6.4771525,2 12,2 C17.5228475,2 22,6.4771525 22,12 C22,17.5228475 17.5228475,22 12,22 Z M12,21 C16.9705627,21 21,16.9705627 21,12 C21,7.02943725 16.9705627,3 12,3 C7.02943725,3 3,7.02943725 3,12 C3,16.9705627 7.02943725,21 12,21 Z M12.421875,14.1171875 L11.3359375,14.1171875 L11.3359375,13.65625 C11.3411459,12.7812456 11.3932287,12.2265637 11.4921875,11.9921875 C11.6119798,11.6796859 12.0026009,11.2109406 12.6640625,10.5859375 C13.0963563,10.1848938 13.3880201,9.86979281 13.5390625,9.640625 C13.7213551,9.35937359 13.8125,9.07031398 13.8125,8.7734375 C13.8125,8.32551859 13.6406267,7.97656375 13.296875,7.7265625 C13.020832,7.52864484 12.6744813,7.4296875 12.2578125,7.4296875 C11.6588512,7.4296875 10.9296918,7.679685 10.0703125,8.1796875 L9.734375,7.15625 C10.6250045,6.68749766 11.5104123,6.453125 12.390625,6.453125 C13.2552127,6.453125 13.9427058,6.67708109 14.453125,7.125 C14.9322941,7.54166875 15.171875,8.07812172 15.171875,8.734375 C15.171875,9.2343775 15.0130224,9.70572695 14.6953125,10.1484375 C14.5130199,10.4036471 14.2057313,10.7317688 13.7734375,11.1328125 C13.1848929,11.6796902 12.8046884,12.0807279 12.6328125,12.3359375 C12.4921868,12.5651053 12.421875,12.8802063 12.421875,13.28125 L12.421875,14.1171875 Z M11.9140625,15.265625 C12.1692721,15.265625 12.3854158,15.3515616 12.5625,15.5234375 C12.7500009,15.7057301 12.84375,15.9348945 12.84375,16.2109375 C12.84375,16.4817722 12.7500009,16.7109366 12.5625,16.8984375 C12.3854158,17.0703134 12.1640638,17.15625 11.8984375,17.15625 C11.6328112,17.15625 11.4114592,17.0703134 11.234375,16.8984375 C11.0468741,16.7109366 10.953125,16.4817722 10.953125,16.2109375 C10.953125,15.9348945 11.0468741,15.7057301 11.234375,15.5234375 C11.4166676,15.3515616 11.6432278,15.265625 11.9140625,15.265625 Z"/>
  </defs>
  <use xlink:href="#circle-questionmark-a"/>
</svg>
