
<svg version="1.1" xmlns="http://www.w3.org/2000/svg" width="32" height="32" viewBox="0 0 32 32">
<title>phone</title>
<path d="M27.999 22.3c0.024-0.968-0.671-1.787-1.611-1.92-1.273-0.168-2.522-0.478-3.726-0.927-0.688-0.258-1.463-0.093-1.983 0.42l-1.618 1.614c-0.212 0.212-0.539 0.256-0.8 0.108-3.293-1.869-6.020-4.59-7.893-7.877-0.149-0.261-0.104-0.59 0.108-0.802l1.615-1.612c0.516-0.521 0.681-1.293 0.422-1.98-0.449-1.201-0.76-2.448-0.927-3.712-0.132-0.932-0.937-1.623-1.887-1.613h-3.821c-0.528 0-1.032 0.223-1.388 0.612s-0.531 0.909-0.485 1.422c0.407 3.825 1.711 7.501 3.81 10.734 1.903 2.989 4.442 5.523 7.442 7.426 3.22 2.084 6.886 3.386 10.69 3.798 0.528 0.048 1.051-0.129 1.441-0.486s0.611-0.861 0.609-1.392v-3.814zM29.333 26.111c0.004 0.904-0.375 1.767-1.042 2.378s-1.561 0.912-2.474 0.83c-4.023-0.436-7.887-1.808-11.278-4.002-3.16-2.004-5.84-4.678-7.845-7.827-2.21-3.404-3.585-7.28-4.015-11.324-0.081-0.897 0.219-1.788 0.828-2.453s1.468-1.044 2.371-1.045l3.815 0c1.613-0.016 2.988 1.165 3.215 2.766 0.155 1.171 0.442 2.32 0.855 3.425 0.442 1.173 0.159 2.496-0.726 3.389l-1.253 1.25c1.655 2.739 3.955 5.033 6.699 6.685l1.257-1.254c0.892-0.881 2.216-1.162 3.389-0.722 1.109 0.413 2.26 0.699 3.44 0.854 1.613 0.227 2.801 1.623 2.765 3.249v3.803z"></path>
</svg>
