<?xml version="1.0" encoding="UTF-8"?>
<svg xmlns="http://www.w3.org/2000/svg" xmlns:xlink="http://www.w3.org/1999/xlink" width="24" height="24" viewBox="0 0 24 24">
  <defs>
    <path id="graphs-a" d="M4,20 L20.5,20 L21,20 L21,21 L20.5,21 L4,21 L3,21 L3,20.5 L3,3.5 L3,3 L4,3 L4,3.5 L4,20 Z M9.75521944,9.06054542 L6.34682926,12.3428524 C6.1479228,12.5344009 5.83139651,12.5284361 5.639848,12.3295297 C5.44829949,12.1306232 5.45426428,11.8140969 5.65317074,11.6225484 L9.230335,8.17771063 C9.33727129,8.07473013 9.48444069,8.02459595 9.63200494,8.04087924 L14.4940693,8.57739398 L18.6174526,3.67804121 C18.7952655,3.4667661 19.1106837,3.43963964 19.3219588,3.61745257 C19.5332339,3.7952655 19.5603604,4.11068368 19.3825474,4.32195879 L15.0872095,9.42562598 C14.9797557,9.5533012 14.8156896,9.61895367 14.6498214,9.6006506 L9.75521944,9.06054542 Z M6.31928768,15.3969381 C6.10677975,15.5732758 5.79155807,15.5439541 5.61522035,15.3314462 C5.43888264,15.1189382 5.46820439,14.8037166 5.68071232,14.6273788 L9.19294853,11.7129477 C9.33053025,11.5987833 9.51859833,11.5667643 9.68620733,11.6289694 L14.5727039,13.4425048 L18.618831,8.67641046 C18.7975446,8.46589663 19.1130757,8.44011743 19.3235895,8.61883099 C19.5341034,8.79754456 19.5598826,9.11307571 19.381169,9.32358954 L15.1083263,14.3567412 C14.972223,14.5170627 14.750348,14.5750827 14.5531862,14.5019097 L9.60916002,12.6670232 L6.31928768,15.3969381 Z M6.23012665,18.2502785 C5.98497086,18.377374 5.68320162,18.2816671 5.55610618,18.0365114 C5.42901074,17.7913556 5.52471756,17.4895863 5.76987335,17.3624909 L9.32435877,15.5197488 C9.4471408,15.4560953 9.59080383,15.4461408 9.72119152,15.4922521 L14.7429616,17.2681885 L18.7950403,15.4471315 C19.0469158,15.3339354 19.3428648,15.4463572 19.4560609,15.6982326 C19.569257,15.9501081 19.4568352,16.2460571 19.2049597,16.3592532 L14.9701197,18.2624456 C14.8528132,18.3151647 14.7197035,18.3206549 14.5984539,18.2777753 L9.59215647,16.5073107 L6.23012665,18.2502785 Z"/>
  </defs>
  <use fill-rule="evenodd" xlink:href="#graphs-a"/>
</svg>
