<?xml version="1.0" encoding="UTF-8"?>
<svg xmlns="http://www.w3.org/2000/svg" xmlns:xlink="http://www.w3.org/1999/xlink" width="24" height="24" viewBox="0 0 24 24">
  <defs>
    <path id="variable-link-a" d="M10.6834645,16.8023782 C10.6601663,16.5272205 10.8643388,16.285274 11.1394966,16.2619758 C11.4146543,16.2386776 11.6566007,16.4428501 11.679899,16.7180079 C11.799216,18.1271711 11.3020693,19.5241296 10.2824351,20.5437638 C8.39595287,22.4302461 5.33709689,22.4302461 3.45078922,20.5437638 C1.56430968,18.6572843 1.56430968,15.598754 3.45078922,13.7122744 C4.54997808,12.6130856 6.08588137,12.1237316 7.59360687,12.3520007 C7.86663778,12.3933375 8.05446299,12.6481829 8.01312621,12.9212138 C7.97178942,13.1942447 7.71694405,13.3820699 7.44391313,13.3407332 C6.24702131,13.1595242 5.02999715,13.5472801 4.157896,14.4193812 C2.66194075,15.9153365 2.66194075,18.3407018 4.15791236,19.8366734 C5.65371007,21.3326096 8.07937583,21.3326096 9.57532835,19.836657 C10.3843824,19.027603 10.7781841,17.9210391 10.6834645,16.8023782 Z M13.3112554,7.19209608 C13.3345884,7.46725091 13.1304466,7.70922316 12.8552917,7.73255623 C12.5801369,7.75588931 12.3381647,7.55174744 12.3148316,7.27659261 C12.1953439,5.8675357 12.6925652,4.47049849 13.7122901,3.45077357 C15.5988236,1.56424004 18.6573665,1.56418604 20.5437795,3.45077357 C22.4302078,5.33720184 22.4303157,8.39590127 20.5438068,10.2822356 C19.4446672,11.3815453 17.9086728,11.870819 16.4007076,11.6422088 C16.1276849,11.6008181 15.93991,11.3459356 15.9813008,11.0729128 C16.0226915,10.7998901 16.277574,10.6121153 16.5505967,10.653506 C17.7476436,10.8349804 18.9646457,10.4473181 19.8366891,9.57513982 C21.332668,8.07929928 21.3325824,5.65379005 19.8366563,4.15786399 C18.340759,2.66182816 15.9154062,2.66187097 14.4193969,4.15788035 C13.6102586,4.96701866 13.2164084,6.07361507 13.3112554,7.19209608 Z M16.1355597,7.14644661 C16.3308218,6.95118446 16.6474043,6.95118446 16.8426664,7.14644661 C17.0379286,7.34170876 17.0379286,7.65829124 16.8426664,7.85355339 L7.85355339,16.8426664 C7.65829124,17.0379286 7.34170876,17.0379286 7.14644661,16.8426664 C6.95118446,16.6474043 6.95118446,16.3308218 7.14644661,16.1355597 L16.1355597,7.14644661 Z"/>
  </defs>
  <use xlink:href="#variable-link-a"/>
</svg>
