
<svg version="1.1" xmlns="http://www.w3.org/2000/svg" width="32" height="32" viewBox="0 0 32 32">
<title>extension</title>
<path d="M8.762 25.952h-2.713c0-2.963 1.294-5.622 3.349-7.445 0.328 0.28 0.745 0.435 1.177 0.435 0.992 0 1.809-0.817 1.809-1.809 0-0.146-0.018-0.292-0.053-0.434 1.168-0.463 2.413-0.7 3.67-0.698 5.46 0 9.951 4.492 9.952 9.951h-3.619c0.002-1.297-0.398-2.565-1.143-3.627 0.157-0.273 0.238-0.583 0.238-0.898 0-0.992-0.816-1.809-1.809-1.809-0.451 0-0.886 0.169-1.219 0.473-0.762-0.312-1.578-0.473-2.401-0.473-2.844 0-5.356 1.915-6.109 4.658-0.68 0.277-1.128 0.942-1.128 1.677h-0.002zM10.872 24.168c0.758-2.177 2.823-3.645 5.128-3.645 0.648 0 1.291 0.116 1.898 0.343-0.060 0.182-0.090 0.372-0.090 0.565 0 0.992 0.817 1.809 1.809 1.809 0.326 0 0.646-0.089 0.927-0.256 0.559 0.853 0.884 1.873 0.884 2.968h-9.046c0-0.88-0.642-1.638-1.51-1.784zM8.875 17.76c-2.372 2.059-3.735 5.050-3.732 8.192h-1.809v-15.38c0-0.499 0.405-0.905 0.905-0.905h0.905v-2.714c0-0.499 0.405-0.905 0.905-0.905h6.334c0.499 0 0.905 0.405 0.905 0.905v2.714h5.428v-2.714c0-0.499 0.405-0.905 0.905-0.905h6.334c0.499 0 0.905 0.405 0.905 0.905v2.714h0.905c0.499 0 0.905 0.405 0.905 0.905v15.38h-1.809c0-5.996-4.861-10.856-10.857-10.856-1.453 0-2.838 0.286-4.104 0.802-0.342-0.368-0.822-0.577-1.325-0.577-0.992 0-1.809 0.817-1.809 1.809 0 0.215 0.038 0.429 0.113 0.63z"></path>
</svg>
