<?xml version="1.0" encoding="UTF-8"?>
<svg xmlns="http://www.w3.org/2000/svg" xmlns:xlink="http://www.w3.org/1999/xlink" width="24" height="24" viewBox="0 0 24 24">
  <defs>
    <path id="pie-a" d="M12,21 C16.9705627,21 21,16.9705627 21,12 C21,7.02943725 16.9705627,3 12,3 C7.02943725,3 3,7.02943725 3,12 C3,16.9705627 7.02943725,21 12,21 Z M12,22 C6.4771525,22 2,17.5228475 2,12 C2,6.4771525 6.4771525,2 12,2 C17.5228475,2 22,6.4771525 22,12 C22,17.5228475 17.5228475,22 12,22 Z M12.0572143,10.8939144 L18.4640754,5.29274814 L19.1816604,6.02711684 L12.368522,11.983469 L20.2390757,17.4482583 L19.6134753,18.2543841 L11,12.2737595 L11,2.5 L12.0572143,2.5 L12.0572143,10.8939144 Z"/>
  </defs>
  <use xlink:href="#pie-a"/>
</svg>
