<?xml version="1.0" encoding="UTF-8"?>
<svg xmlns="http://www.w3.org/2000/svg" xmlns:xlink="http://www.w3.org/1999/xlink" width="24" height="24" viewBox="0 0 24 24">
  <defs>
    <path id="arrow-square-a" d="M12,3.70710678 L12,17.5 C12,17.7761424 11.7761424,18 11.5,18 C11.2238576,18 11,17.7761424 11,17.5 L11,3.70710678 L7.85355339,6.85355339 C7.65829124,7.04881554 7.34170876,7.04881554 7.14644661,6.85355339 C6.95118446,6.65829124 6.95118446,6.34170876 7.14644661,6.14644661 L11.1464466,2.14644661 C11.3417088,1.95118446 11.6582912,1.95118446 11.8535534,2.14644661 L15.8535534,6.14644661 C16.0488155,6.34170876 16.0488155,6.65829124 15.8535534,6.85355339 C15.6582912,7.04881554 15.3417088,7.04881554 15.1464466,6.85355339 L12,3.70710678 Z M6,10 L6,21 L17,21 L17,10 L14,10 L14,9 L18,9 L18,22 L5,22 L5,9 L9,9 L9,10 L6,10 Z"/>
  </defs>
  <use xlink:href="#arrow-square-a"/>
</svg>
