<?xml version="1.0" encoding="UTF-8"?>
<svg xmlns="http://www.w3.org/2000/svg" xmlns:xlink="http://www.w3.org/1999/xlink" width="24" height="24" viewBox="0 0 24 24">
  <defs>
    <path id="ticket-a" d="M10.9246212,6.63172798 L2.41421356,15.1421356 L3.47838771,16.2063098 C4.10603264,15.6441452 4.93034638,15.3137085 5.8137085,15.3137085 C7.74670512,15.3137085 9.3137085,16.8807119 9.3137085,18.8137085 C9.3137085,19.6970706 8.98327178,20.5213844 8.42110723,21.1490293 L9.48528137,22.2132034 L17.995689,13.7027958 L10.9246212,6.63172798 Z M11.631728,5.9246212 L18.7027958,12.995689 L22.2132034,9.48528137 L21.1490293,8.42110723 C20.5213844,8.98327178 19.6970706,9.3137085 18.8137085,9.3137085 C16.8807119,9.3137085 15.3137085,7.74670512 15.3137085,5.8137085 C15.3137085,4.93034638 15.6441452,4.10603264 16.2063098,3.47838771 L15.1421356,2.41421356 L11.631728,5.9246212 Z M3.56923609,17.7113717 L1,15.1421356 L15.1421356,1 L17.7113717,3.56923609 C16.8834431,3.97663115 16.3137085,4.8286355 16.3137085,5.8137085 C16.3137085,7.19442037 17.4329966,8.3137085 18.8137085,8.3137085 C19.7987815,8.3137085 20.6507858,7.74397388 21.0581809,6.91604529 L23.627417,9.48528137 L9.48528137,23.627417 L6.91604529,21.0581809 C7.74397388,20.6507858 8.3137085,19.7987815 8.3137085,18.8137085 C8.3137085,17.4329966 7.19442037,16.3137085 5.8137085,16.3137085 C4.8286355,16.3137085 3.97663115,16.8834431 3.56923609,17.7113717 Z"/>
  </defs>
  <use xlink:href="#ticket-a"/>
</svg>
