<?xml version="1.0" encoding="UTF-8"?>
<svg xmlns="http://www.w3.org/2000/svg" xmlns:xlink="http://www.w3.org/1999/xlink" width="24" height="24" viewBox="0 0 24 24">
  <defs>
    <path id="connect-4-squares-a" d="M9,17 L14,17 L14,22 L9,22 L9,17 Z M10,18 L10,21 L13,21 L13,18 L10,18 Z M2,17 L7,17 L7,22 L2,22 L2,17 Z M16,17 L21,17 L21,22 L16,22 L16,17 Z M3,18 L3,21 L6,21 L6,18 L3,18 Z M17,18 L17,21 L20,21 L20,18 L17,18 Z M7,2 L16,2 L16,7 L7,7 L7,2 Z M8,3 L8,6 L15,6 L15,3 L8,3 Z M4,12 L5,12 L5,18 L4,18 L4,12 Z M11,6 L12,6 L12,18 L11,18 L11,6 Z M18,12 L19,12 L19,18 L18,18 L18,13 L4,13 L4,12 L18,12 Z"/>
  </defs>
  <use xlink:href="#connect-4-squares-a"/>
</svg>
