<?xml version="1.0" encoding="UTF-8"?>
<svg xmlns="http://www.w3.org/2000/svg" xmlns:xlink="http://www.w3.org/1999/xlink" width="24" height="24" viewBox="0 0 24 24">
  <defs>
    <path id="speedo2-black-a" d="M19.5644969,20 L4.46528477,20 C2.93005967,18.2421496 2,15.5171988 2,13 C2,7.4771525 6.4771525,3 12,3 C17.5228475,3 22,7.4771525 22,13 C22,15.5008801 21.0819602,18.2465757 19.5644969,20 Z M5.52479339,10.5 C5.09503917,10.5 4.73553864,10.6363623 4.44628099,10.9090909 C4.14875884,11.1983486 4,11.5619813 4,12 C4,12.4297542 4.14875884,12.7933869 4.44628099,13.0909091 C4.72727413,13.3636377 5.07851029,13.5 5.5,13.5 C5.92148971,13.5 6.27272587,13.3636377 6.55371901,13.0909091 C6.85124116,12.7933869 7,12.4297542 7,12 C7,11.5619813 6.85124116,11.1983486 6.55371901,10.9090909 C6.27272587,10.6363623 5.92975409,10.5 5.52479339,10.5 Z M12.0247934,5 C11.5950392,5 11.2355386,5.13636227 10.946281,5.40909091 C10.6487588,5.69834855 10.5,6.06198128 10.5,6.5 C10.5,6.92975421 10.6487588,7.29338694 10.946281,7.59090909 C11.2272741,7.86363773 11.5785103,8 12,8 C12.4214897,8 12.7727259,7.86363773 13.053719,7.59090909 C13.3512412,7.29338694 13.5,6.92975421 13.5,6.5 C13.5,6.06198128 13.3512412,5.69834855 13.053719,5.40909091 C12.7727259,5.13636227 12.4297541,5 12.0247934,5 Z M18.5247934,10.5 C18.0950392,10.5 17.7355386,10.6363623 17.446281,10.9090909 C17.1487588,11.1983486 17,11.5619813 17,12 C17,12.4297542 17.1487588,12.7933869 17.446281,13.0909091 C17.7272741,13.3636377 18.0785103,13.5 18.5,13.5 C18.9214897,13.5 19.2727259,13.3636377 19.553719,13.0909091 C19.8512412,12.7933869 20,12.4297542 20,12 C20,11.5619813 19.8512412,11.1983486 19.553719,10.9090909 C19.2727259,10.6363623 18.9297541,10.5 18.5247934,10.5 Z M18.5355339,6.67157288 L17.3284271,5.46446609 L11.1109127,11.6819805 L12.3180195,12.8890873 L18.5355339,6.67157288 Z"/>
  </defs>
  <use xlink:href="#speedo2-black-a"/>
</svg>
