<?xml version="1.0" encoding="UTF-8"?>
<svg xmlns="http://www.w3.org/2000/svg" xmlns:xlink="http://www.w3.org/1999/xlink" width="24" height="24" viewBox="0 0 24 24">
  <defs>
    <path id="aspects-a" d="M3,5 L3,10 L8,10 L8,5 L3,5 Z M9,8.05000906 L9,11 L2,11 L2,4 L9,4 L9,7 L15.0354444,7 C15.2780593,5.30385293 16.736764,4 18.5,4 C20.4329966,4 22,5.56700338 22,7.5 C22,9.43299662 20.4329966,11 18.5,11 C16.736764,11 15.2780593,9.69614707 15.0354444,8 L10.9494914,8 C11.5977664,8.63525852 12,9.52065591 12,10.5 L12,14.5 C12,15.8807119 13.1192881,17 14.5,17 L15.0354444,17 C15.2780593,15.3038529 16.736764,14 18.5,14 C20.4329966,14 22,15.5670034 22,17.5 C22,19.4329966 20.4329966,21 18.5,21 C16.736764,21 15.2780593,19.6961471 15.0354444,18 L14.5,18 C12.5670034,18 11,16.4329966 11,14.5 L11,10.5 C11,9.29052104 10.1411202,8.28164422 9,8.05000906 Z M18.5,20 C19.8807119,20 21,18.8807119 21,17.5 C21,16.1192881 19.8807119,15 18.5,15 C17.1192881,15 16,16.1192881 16,17.5 C16,18.8807119 17.1192881,20 18.5,20 Z M18.5,10 C19.8807119,10 21,8.88071187 21,7.5 C21,6.11928813 19.8807119,5 18.5,5 C17.1192881,5 16,6.11928813 16,7.5 C16,8.88071187 17.1192881,10 18.5,10 Z"/>
  </defs>
  <use xlink:href="#aspects-a"/>
</svg>
