<?xml version="1.0" encoding="UTF-8"?>
<svg xmlns="http://www.w3.org/2000/svg" xmlns:xlink="http://www.w3.org/1999/xlink" width="24" height="24" viewBox="0 0 24 24">
  <defs>
    <path id="audit-a" d="M18.9174293,15.1073642 C18.9235806,15.1131198 18.9296586,15.1189984 18.9356602,15.125 L22.5784271,18.767767 C22.8713203,19.0606602 22.8713203,19.5355339 22.5784271,19.8284271 C22.2855339,20.1213203 21.8106602,20.1213203 21.517767,19.8284271 L17.875,16.1856602 C17.8563648,16.1670249 17.8389152,16.147653 17.8226513,16.1276382 C17.0193666,16.678015 16.0472851,17 15,17 C12.2385763,17 10,14.7614237 10,12 C10,9.23857625 12.2385763,7 15,7 C17.7614237,7 20,9.23857625 20,12 C20,13.1743279 19.5951589,14.2541001 18.9174293,15.1073642 Z M12,17 L12,19 C13,19 14,19 14,20 L8,20 C8,19 9,19 10,19 L10,17 L3.83333333,17 C2.85208616,17 2,16.2696404 2,15.2857143 L2,4.71428571 C2,3.73035957 2.85208616,3 3.83333333,3 L18.1666667,3 C19.1479138,3 20,3.73035957 20,4.71428571 L20,8.68220488 C19.7165804,8.25593828 19.3801046,7.86798982 19,7.52778699 L19,4.71428571 C19,4.31979661 18.626904,4 18.1666667,4 L3.83333333,4 C3.37309604,4 3,4.31979661 3,4.71428571 L3,15.2857143 C3,15.6802034 3.37309604,16 3.83333333,16 L10.527787,16 C10.7545889,16.2534031 11.2453265,16.5867364 12,17 Z M15,16 C17.209139,16 19,14.209139 19,12 C19,9.790861 17.209139,8 15,8 C12.790861,8 11,9.790861 11,12 C11,14.209139 12.790861,16 15,16 Z M4.5,11 C4.77614237,11 5,11.2238576 5,11.5 L5,13.5 C5,13.7761424 4.77614237,14 4.5,14 C4.22385763,14 4,13.7761424 4,13.5 L4,11.5 C4,11.2238576 4.22385763,11 4.5,11 Z M6.5,7 C6.77614237,7 7,7.22385763 7,7.5 L7,13.5 C7,13.7761424 6.77614237,14 6.5,14 C6.22385763,14 6,13.7761424 6,13.5 L6,7.5 C6,7.22385763 6.22385763,7 6.5,7 Z M8.5,10 C8.77614237,10 9,10.2238576 9,10.5 L9,13.5 C9,13.7761424 8.77614237,14 8.5,14 C8.22385763,14 8,13.7761424 8,13.5 L8,10.5 C8,10.2238576 8.22385763,10 8.5,10 Z"/>
  </defs>
  <use xlink:href="#audit-a"/>
</svg>
