<?xml version="1.0" encoding="UTF-8"?>
<svg xmlns="http://www.w3.org/2000/svg" xmlns:xlink="http://www.w3.org/1999/xlink" width="24" height="24" viewBox="0 0 24 24">
  <defs>
    <path id="shopping-cart-a" d="M6.88754212,7 L22.1229341,7 L19.901101,17 L8.0989142,17 L5.08226172,4 L2,4 L2,3 L5.85734597,3 L6.88754212,7 Z M10,22 C8.8954305,22 8,21.1045695 8,20 C8,18.8954305 8.8954305,18 10,18 C11.1045695,18 12,18.8954305 12,20 C12,21.1045695 11.1045695,22 10,22 Z M18,22 C16.8954305,22 16,21.1045695 16,20 C16,18.8954305 16.8954305,18 18,18 C19.1045695,18 20,18.8954305 20,20 C20,21.1045695 19.1045695,22 18,22 Z M7.12330803,8 L8.9010858,16 L19.098899,16 L20.8763654,8 L7.12330803,8 Z M10,21 C10.5522847,21 11,20.5522847 11,20 C11,19.4477153 10.5522847,19 10,19 C9.44771525,19 9,19.4477153 9,20 C9,20.5522847 9.44771525,21 10,21 Z M18,21 C18.5522847,21 19,20.5522847 19,20 C19,19.4477153 18.5522847,19 18,19 C17.4477153,19 17,19.4477153 17,20 C17,20.5522847 17.4477153,21 18,21 Z"/>
  </defs>
  <use xlink:href="#shopping-cart-a"/>
</svg>
