
<svg version="1.1" xmlns="http://www.w3.org/2000/svg" width="32" height="32" viewBox="0 0 32 32">
<title>legal</title>
<path d="M15.497 2.668c1.887 0.022 3.668 0.455 5.264 1.215l-0.076-0.033c2.57 1.227 4.615 3.205 5.894 5.647l0.034 0.070c0.544 1.061 0.936 2.199 1.16 3.369 0.144 0.721 0.227 1.549 0.227 2.397 0 0.624-0.045 1.237-0.131 1.837l0.008-0.069c-0.423 2.934-1.8 5.489-3.801 7.394l-0.005 0.005c-1.111 1.061-2.421 1.925-3.867 2.53l-0.084 0.031c-1.414 0.593-3.058 0.937-4.781 0.937-6.998 0-12.671-5.673-12.671-12.671 0-2.103 0.512-4.086 1.419-5.831l-0.033 0.070c1.313-2.513 3.358-4.49 5.851-5.684l0.077-0.033c1.52-0.727 3.301-1.161 5.181-1.183l0.007-0h0.328zM15.187 4.001c-1.688 0.018-3.281 0.406-4.708 1.086l0.068-0.029c-2.3 1.098-4.131 2.868-5.277 5.054l-0.030 0.063c-0.783 1.498-1.242 3.271-1.242 5.152 0 0.561 0.041 1.113 0.12 1.652l-0.007-0.061c0.377 2.625 1.61 4.91 3.401 6.613l0.005 0.005c0.995 0.949 2.167 1.723 3.459 2.265l0.075 0.028c1.267 0.53 2.739 0.838 4.283 0.838s3.016-0.308 4.358-0.866l-0.075 0.028c2.617-1.095 4.691-3.056 5.904-5.517l0.030-0.067c0.476-0.966 0.829-2.086 1-3.266l0.007-0.061c0.072-0.478 0.113-1.030 0.113-1.591 0-1.881-0.459-3.654-1.271-5.214l0.030 0.063c-1.175-2.249-3.006-4.019-5.238-5.088l-0.069-0.030c-1.359-0.651-2.952-1.039-4.634-1.057l-0.006-0h-0.293zM18.467 21.041l0.007-0.129c0.001-0.017 0.001-0.037 0.001-0.057 0-0.166-0.029-0.325-0.082-0.473l0.003 0.010c-0.104-0.273-0.312-0.495-0.535-0.679-0.387-0.32-0.837-0.563-1.284-0.787-0.087-0.049-0.281-0.143-0.477-0.234l-0.114-0.047-0.717-0.323c-0.243-0.113-0.241-0.113-0.483-0.229-0.313-0.15-0.501-0.247-0.688-0.347l0.113 0.055c-0.145-0.079-0.291-0.16-0.435-0.243-0.963-0.564-1.897-1.296-2.361-2.341-0.081-0.177-0.153-0.386-0.206-0.603l-0.005-0.024c-0.063-0.27-0.099-0.581-0.099-0.9 0-0.090 0.003-0.18 0.009-0.268l-0.001 0.012 0.052-0.693 1.156 0.088-0.051 0.677c-0.005 0.089-0.005 0.089-0.007 0.179 0.001 0.267 0.031 0.529 0.108 0.785 0.257 0.856 0.984 1.459 1.713 1.919 0.121 0.077 0.247 0.152 0.372 0.224 0.168 0.096 0.339 0.187 0.509 0.275 0.26 0.133 0.523 0.26 0.787 0.381 0.309 0.143 0.623 0.279 0.932 0.423 0.205 0.097 0.205 0.097 0.409 0.197 0.156 0.080 0.311 0.159 0.464 0.244 0.113 0.061 0.224 0.127 0.335 0.193 0.619 0.376 1.229 0.851 1.532 1.528 0.057 0.128 0.103 0.261 0.136 0.397 0.067 0.272 0.079 0.549 0.063 0.828l-0.005 0.079-0.003 0.025-0.051 0.307-0.049 0.228c-0.139 0.493-0.396 0.914-0.739 1.247l-0.001 0.001c-0.771 0.747-1.884 1.005-2.928 1.005-0.783-0.008-1.534-0.13-2.242-0.351l0.055 0.015c-1.002-0.309-1.872-0.768-2.636-1.358l0.019 0.014-0.081-0.065-0.072-0.060 0.743-0.891c0.065 0.055 0.131 0.107 0.197 0.159 0.659 0.489 1.427 0.878 2.258 1.122l0.051 0.013c0.404 0.121 0.874 0.204 1.359 0.233l0.017 0.001c0.097 0.007 0.21 0.010 0.323 0.010 0.195 0 0.387-0.011 0.576-0.032l-0.023 0.002c0.097-0.011 0.193-0.025 0.288-0.044 0.58-0.109 1.179-0.367 1.513-0.875 0.056-0.085 0.104-0.175 0.143-0.269 0.073-0.177 0.111-0.363 0.129-0.553zM11.433 8.833c0.133-0.405 0.351-0.751 0.633-1.032l0-0c0.692-0.692 1.681-0.968 2.636-1.015l0.28-0.004c0.436 0.007 0.871 0.055 1.301 0.133 0.848 0.154 1.605 0.419 2.301 0.785l-0.044-0.021c0.268 0.14 0.527 0.299 0.776 0.471l0.085 0.060 0.077 0.057-0.684 0.935c-0.071-0.052-0.143-0.101-0.215-0.151-0.64-0.428-1.39-0.754-2.195-0.933l-0.044-0.008c-0.38-0.088-0.824-0.148-1.279-0.167l-0.016-0.001c-0.034-0.001-0.074-0.002-0.114-0.002-0.239 0-0.474 0.019-0.702 0.057l0.025-0.003c-0.13 0.021-0.238 0.045-0.345 0.073l0.024-0.005c-0.563 0.148-1.141 0.468-1.367 1.036-0.058 0.146-0.093 0.315-0.099 0.491l-0 0.002 0.003 0.127c0.009 0.106 0.031 0.205 0.065 0.297l-0.002-0.008c0.075 0.18 0.182 0.333 0.315 0.459l0.001 0.001c0.195 0.189 0.424 0.343 0.657 0.48 0.104 0.061 0.209 0.12 0.316 0.176 0.141 0.075 0.285 0.145 0.431 0.215 0.215 0.103 0.433 0.2 0.651 0.296 0.269 0.117 0.539 0.233 0.808 0.353 0.184 0.084 0.367 0.169 0.549 0.259 1.061 0.529 2.128 1.192 2.779 2.215 0.228 0.351 0.403 0.761 0.501 1.199l0.005 0.025c0.085 0.392 0.104 0.791 0.084 1.191l-0.053 0.697-1.156-0.088 0.052-0.683c0.005-0.064 0.007-0.138 0.007-0.213 0-0.26-0.031-0.513-0.089-0.755l0.004 0.022c-0.043-0.169-0.095-0.315-0.159-0.454l0.007 0.017c-0.36-0.797-1.097-1.352-1.833-1.78-0.106-0.065-0.259-0.149-0.414-0.229l-0.052-0.024c-0.066-0.039-0.23-0.121-0.396-0.2l-0.104-0.045c-0.449-0.207-0.904-0.397-1.355-0.6-0.165-0.076-0.332-0.152-0.495-0.232-0.212-0.102-0.363-0.182-0.512-0.265l0.051 0.026c-0.672-0.368-1.349-0.849-1.656-1.58-0.045-0.104-0.085-0.228-0.114-0.355l-0.003-0.015c-0.033-0.153-0.051-0.329-0.051-0.509 0-0.045 0.001-0.090 0.003-0.134l-0 0.006 0.007-0.092v-0.001l0.001-0.009 0.055-0.347 0.056-0.199z"></path>
</svg>
