<?xml version="1.0" encoding="UTF-8"?>
<svg xmlns="http://www.w3.org/2000/svg" xmlns:xlink="http://www.w3.org/1999/xlink" width="24" height="24" viewBox="0 0 24 24">
  <defs>
    <path id="paperclip-a" d="M9.13163907,4.66190205 C9.31836542,4.45846192 9.63465783,4.44491273 9.83809795,4.63163907 C10.0415381,4.81836542 10.0550873,5.13465783 9.86836093,5.33809795 L4.26755339,11.4395534 C3.45607111,12.2510357 3,13.3519624 3,14.5 L3,18.5 C3,19.3288576 3.67114237,20 4.5,20 L8.5,20 C9.6480376,20 10.7489643,19.5439289 11.5505213,18.7426587 L20.0854466,9.70744661 C20.6707023,9.12219093 21,8.327358 21,7.5 C21,6.672642 20.6707023,5.87780907 20.0854466,5.29255339 L19.2074466,4.41455339 C18.6221909,3.82929771 17.827358,3.5 17,3.5 C16.172642,3.5 15.3778091,3.82929771 14.8041631,4.40254931 L7.56055339,12.1465534 C7.20153099,12.5055758 7,12.9923119 7,13.5 L7,15.5 C7,15.7758576 7.22414237,16 7.5,16 L9.5,16 C10.0076881,16 10.4944242,15.798469 10.8345542,15.4594073 L15.1275542,10.6664073 C15.3117923,10.4607111 15.6278966,10.443316 15.8335927,10.6275542 C16.0392889,10.8117923 16.056684,11.1278966 15.8724458,11.3335927 L11.5605534,16.1465534 C11.0139581,16.6931486 10.272853,17 9.5,17 L7.5,17 C6.67185763,17 6,16.3281424 6,15.5 L6,13.5 C6,12.727147 6.30685136,11.9860419 6.84183693,11.4514507 L14.0854466,3.70744661 C14.8582203,2.93467288 15.9073996,2.5 17,2.5 C18.0926004,2.5 19.1417797,2.93467288 19.9145534,3.70744661 L20.7925534,4.58544661 C21.5653271,5.35822034 22,6.40739958 22,7.5 C22,8.59260042 21.5653271,9.64177966 20.8024787,10.4043413 L12.2675534,19.4395534 C11.268545,20.4385617 9.91326869,21 8.5,21 L4.5,21 C3.11885763,21 2,19.8811424 2,18.5 L2,14.5 C2,13.0867313 2.56143827,11.731455 3.54563907,10.747902 L9.13163907,4.66190205 Z"/>
  </defs>
  <use xlink:href="#paperclip-a"/>
</svg>
