<?xml version="1.0" encoding="UTF-8"?>
<svg xmlns="http://www.w3.org/2000/svg" xmlns:xlink="http://www.w3.org/1999/xlink" width="24" height="24" viewBox="0 0 24 24">
  <defs>
    <path id="arrow-circle-down-a" d="M2,12 C2,6.4771525 6.4771525,2 12,2 C17.5228475,2 22,6.4771525 22,12 C22,17.5228475 17.5228475,22 12,22 C6.4771525,22 2,17.5228475 2,12 Z M3,12 C3,16.9705627 7.02943725,21 12,21 C16.9705627,21 21,16.9705627 21,12 C21,7.02943725 16.9705627,3 12,3 C7.02943725,3 3,7.02943725 3,12 Z M16.6464466,9.64644661 L17.3535534,10.3535534 L12,15.7071068 L6.64644661,10.3535534 L7.35355339,9.64644661 L12,14.2928932 L16.6464466,9.64644661 Z"/>
  </defs>
  <use xlink:href="#arrow-circle-down-a"/>
</svg>
