
<svg version="1.1" xmlns="http://www.w3.org/2000/svg" width="32" height="32" viewBox="0 0 32 32">
<title>types</title>
<path d="M9.219 24.869c-3.338-0.549-5.886-3.448-5.886-6.942 0-3.887 3.151-7.037 7.037-7.037 2.079 0 3.946 0.901 5.235 2.333l-6.387 11.646zM26.139 20.727l-7.324-13.356-2.326 4.243c-1.23-1.333-2.865-2.286-4.71-2.66v-2.287c0-1.555 1.26-2.815 2.815-2.815h11.259c1.555 0 2.815 1.26 2.815 2.815v11.259c0 1.458-1.108 2.656-2.528 2.801zM18.815 11.259l9.148 16.888h-18.296l9.148-16.888z"></path>
</svg>
