<?xml version="1.0" encoding="UTF-8"?>
<svg xmlns="http://www.w3.org/2000/svg" xmlns:xlink="http://www.w3.org/1999/xlink" width="24" height="24" viewBox="0 0 24 24">
  <defs>
    <path id="variable-unlink-a" d="M10.2801732,13.9375206 C10.2574506,13.6623146 10.4621287,13.4207958 10.7373346,13.3980732 C11.0125405,13.3753505 11.2540593,13.5800286 11.276782,13.8552346 C11.3905667,15.2333405 10.9161591,16.6002817 9.94182856,17.5996341 C8.13275978,19.4548526 5.19462504,19.4548526 3.38572368,17.5996341 C1.5836742,15.751614 1.5836742,12.7605289 3.38572368,10.9125087 C4.43940356,9.83194927 5.91411542,9.35015176 7.36254395,9.57516082 C7.63541342,9.61755028 7.82225438,9.87311814 7.77986492,10.1459876 C7.73747546,10.4188571 7.4819076,10.605698 7.20903814,10.5633086 C6.07803555,10.3876107 4.92788522,10.7633719 4.10167931,11.6106545 C2.67835565,13.0702875 2.67835565,15.4418554 4.10169545,16.9015049 C5.51815107,18.354229 7.80927007,18.354229 9.22584386,16.9015182 C9.9951804,16.1124242 10.3704651,15.0310922 10.2801732,13.9375206 Z M10.0347752,10.0702467 C10.2275667,9.87254475 10.5441241,9.86856401 10.7418261,10.0613555 C10.939528,10.2541469 10.9435088,10.5707044 10.7507173,10.7684064 L6.89609046,14.7212125 C6.703299,14.9189144 6.38674154,14.9228952 6.18903958,14.7301037 C5.99133763,14.5373122 5.98735688,14.2207548 6.18014835,14.0230528 L10.0347752,10.0702467 Z M12.6794918,13.855173 C12.7022484,13.5799699 12.9437925,13.3753216 13.2189956,13.3980783 C13.4941987,13.4208349 13.698847,13.662379 13.6760903,13.9375821 C13.585677,15.0309782 13.9610078,16.1123416 14.7303957,16.9014883 C16.1469986,18.354229 18.4381176,18.354229 19.8545894,16.9014883 C21.277913,15.4418554 21.277913,13.0702875 19.8545894,11.6106545 C19.0283834,10.7633719 17.8782331,10.3876107 16.7472305,10.5633086 C16.4743611,10.605698 16.2187932,10.4188571 16.1764037,10.1459876 C16.1340143,9.87311814 16.3208552,9.61755028 16.5937247,9.57516082 C18.0421532,9.35015176 19.5168651,9.83194927 20.570545,10.9125087 C22.3725945,12.7605289 22.3725945,15.751614 20.5705611,17.5996176 C18.7616436,19.4548526 15.8235089,19.4548526 14.014411,17.5996043 C13.0400231,16.600193 12.5655443,15.2331747 12.6794918,13.855173 Z M13.2055446,10.7683994 C13.0127569,10.5706937 13.0167438,10.2541364 13.2144495,10.0613487 C13.4121552,9.86856108 13.7287126,9.87254795 13.9215002,10.0702536 L17.7759778,14.0230598 C17.9687654,14.2207654 17.9647786,14.5373228 17.7670729,14.7301105 C17.5693672,14.9228981 17.2528098,14.9189112 17.0600222,14.7212055 L13.2055446,10.7683994 Z M10.0947987,5.61098833 C10.2875863,5.80869402 10.2835995,6.1252514 10.0858938,6.31803904 C9.8881881,6.51082667 9.57163072,6.50683981 9.37884308,6.30913412 L7.98255151,4.87722286 C7.78976387,4.67951717 7.79375074,4.36295979 7.99145643,4.17017215 C8.18916212,3.97738452 8.5057195,3.98137139 8.69850714,4.17907708 L10.0947987,5.61098833 Z M15.7377015,6.97705612 C16.0138439,6.97705612 16.2377015,7.20091375 16.2377015,7.47705612 C16.2377015,7.7531985 16.0138439,7.97705612 15.7377015,7.97705612 L13.7377015,7.97705612 C13.4615591,7.97705612 13.2377015,7.7531985 13.2377015,7.47705612 C13.2377015,7.20091375 13.4615591,6.97705612 13.7377015,6.97705612 L15.7377015,6.97705612 Z M9.01271642,6.97705612 C9.28885879,6.97705612 9.51271642,7.20091375 9.51271642,7.47705612 C9.51271642,7.7531985 9.28885879,7.97705612 9.01271642,7.97705612 L7.01271642,7.97705612 C6.73657404,7.97705612 6.51271642,7.7531985 6.51271642,7.47705612 C6.51271642,7.20091375 6.73657404,6.97705612 7.01271642,6.97705612 L9.01271642,6.97705612 Z M14.1275296,4.21952405 C14.3203173,4.02181836 14.6368747,4.01783149 14.8345804,4.21061912 C15.032286,4.40340676 15.0362729,4.71996414 14.8434853,4.91766983 C14.3112026,5.46345461 13.8268803,5.9600342 13.4470815,6.34949535 C13.2542872,6.5471945 12.9377297,6.55117065 12.7400305,6.35837631 C12.5423314,6.16558198 12.5383552,5.84902446 12.7311495,5.65132531 C13.1109834,5.26182822 13.5953347,4.76521886 14.1275296,4.21952405 Z M10.9446119,3.57444898 C10.9446119,3.2983066 11.1684696,3.07444898 11.4446119,3.07444898 C11.7207543,3.07444898 11.9446119,3.2983066 11.9446119,3.57444898 L11.9446119,5.57444898 C11.9446119,5.85059135 11.7207543,6.07444898 11.4446119,6.07444898 C11.1684696,6.07444898 10.9446119,5.85059135 10.9446119,5.57444898 L10.9446119,3.57444898 Z"/>
  </defs>
  <use xlink:href="#variable-unlink-a"/>
</svg>
