<?xml version="1.0" encoding="UTF-8"?>
<svg xmlns="http://www.w3.org/2000/svg" xmlns:xlink="http://www.w3.org/1999/xlink" width="24" height="24" viewBox="0 0 24 24">
  <defs>
    <path id="outgoing-in_app-a" d="M19.3342191,4 L13.5,4 C13.2238576,4 13,3.77614237 13,3.5 C13,3.22385763 13.2238576,3 13.5,3 L20.4698267,3 C20.4748734,3 20.4799026,3.00007477 20.4849133,3.00022326 C20.4899241,3.00007477 20.4949533,3 20.5,3 C20.5046241,3 20.5092336,3.00006277 20.5138276,3.00018751 C20.6392419,2.99665704 20.7657878,3.04298036 20.8615062,3.13915746 C20.9569381,3.23504666 21.0030506,3.36172585 20.9998436,3.48737035 C20.9999477,3.4915676 21,3.49577769 21,3.5 L21,10.4698267 C21,10.7459691 20.7761424,10.9698267 20.5,10.9698267 C20.2238576,10.9698267 20,10.7459691 20,10.4698267 L20,4.67484571 L5.30720108,19.4063658 C5.12254266,19.5919091 4.82315222,19.5919091 4.63849381,19.4063658 C4.4538354,19.2208225 4.4538354,18.9199974 4.63849381,18.7344542 L19.3342191,4 Z"/>
  </defs>
  <use xlink:href="#outgoing-in_app-a"/>
</svg>
