<?xml version="1.0" encoding="UTF-8"?>
<svg xmlns="http://www.w3.org/2000/svg" xmlns:xlink="http://www.w3.org/1999/xlink" width="24" height="24" viewBox="0 0 24 24">
  <defs>
    <path id="pencil-bold-a" d="M17.9497475,8.17157288 L19.363961,6.75735931 L17.2426407,4.63603897 L15.8284271,6.05025253 L17.9497475,8.17157288 Z M16.5355339,9.58578644 L14.4142136,7.46446609 L4.75735931,17.1213203 L4.40380592,19.5961941 L6.87867966,19.2426407 L16.5355339,9.58578644 Z M17.5961941,2.16116524 L21.8388348,6.40380592 C22.0340969,6.59906807 22.0340969,6.91565056 21.8388348,7.1109127 L7.93933983,21.0104076 C7.86284141,21.0869061 7.76359491,21.1365293 7.65649712,21.151829 L2.70674965,21.8589358 C2.37676648,21.9060762 2.09392377,21.6232335 2.14106422,21.2932504 L2.848171,16.3435029 C2.86347069,16.2364051 2.91309394,16.1371586 2.98959236,16.0606602 L16.8890873,2.16116524 C17.0843494,1.96590309 17.4009319,1.96590309 17.5961941,2.16116524 Z"/>
  </defs>
  <use xlink:href="#pencil-bold-a"/>
</svg>
