
<svg version="1.1" xmlns="http://www.w3.org/2000/svg" width="32" height="32" viewBox="0 0 32 32">
<title>move</title>
<path d="M13.184 6.976l-2.739-2.738 0.903-0.903 4.278 4.279-4.278 4.279-0.903-0.903 2.739-2.738h-6.115c-1.050 0-1.914 0.864-1.914 1.914v15.311c0 1.050 0.864 1.914 1.914 1.914h21.052v1.276h-21.052c-1.749 0-3.19-1.44-3.19-3.19v-15.311c0-1.749 1.44-3.19 3.19-3.19h6.115zM28.121 6.976v1.276h-11.483v-1.276h11.483zM28.121 12.079v1.276h-11.483v-1.276h11.483zM28.121 17.183v1.276h-11.483v-1.276h11.483zM28.121 22.286v1.276h-11.483v-1.276h11.483z"></path>
</svg>
