<?xml version="1.0" encoding="UTF-8"?>
<svg xmlns="http://www.w3.org/2000/svg" xmlns:xlink="http://www.w3.org/1999/xlink" width="24" height="24" viewBox="0 0 24 24">
  <defs>
    <path id="file-tree-a" d="M14,11 L14,14 L21,14 L21,11 L14,11 Z M6,13 L6,8 L2,8 L2,3 L11,3 L11,8 L7,8 L7,12 L13,12 L13,10 L22,10 L22,15 L13,15 L13,13 L7,13 L7,19 L13,19 L13,17 L22,17 L22,22 L13,22 L13,20 L6,20 L6,13 Z M14,18 L14,21 L21,21 L21,18 L14,18 Z M3,4 L3,7 L10,7 L10,4 L3,4 Z"/>
  </defs>
  <use xlink:href="#file-tree-a"/>
</svg>
