<?xml version="1.0" encoding="UTF-8"?>
<svg xmlns="http://www.w3.org/2000/svg" xmlns:xlink="http://www.w3.org/1999/xlink" width="24" height="24" viewBox="0 0 24 24">
  <defs>
    <path id="outgoing-a" d="M19.3360618,4 L13.5,4 C13.2238576,4 13,3.77614237 13,3.5 C13,3.22385763 13.2238576,3 13.5,3 L20.4698267,3 C20.4748734,3 20.4799026,3.00007477 20.4849133,3.00022326 C20.4899241,3.00007477 20.4949533,3 20.5,3 C20.5046241,3 20.5092336,3.00006277 20.5138276,3.00018751 C20.6392419,2.99665704 20.7657878,3.04298036 20.8615062,3.13915746 C20.9569381,3.23504666 21.0030506,3.36172585 20.9998436,3.48737035 C20.9999477,3.4915676 21,3.49577769 21,3.5 L21,10.4698267 C21,10.7459691 20.7761424,10.9698267 20.5,10.9698267 C20.2238576,10.9698267 20,10.7459691 20,10.4698267 L20,4.67670359 L12.3072011,12.4063658 C12.1225427,12.5919091 11.8231522,12.5919091 11.6384938,12.4063658 C11.4538354,12.2208225 11.4538354,11.9199974 11.6384938,11.7344542 L19.3360618,4 Z M17.0625,15.84375 C17.0625,15.5848665 17.2723665,15.375 17.53125,15.375 C17.7901335,15.375 18,15.5848665 18,15.84375 L18,18.65625 C18,19.9506674 16.9506674,21 15.65625,21 L5.34375,21 C4.04933262,21 3,19.9506674 3,18.65625 L3,8.34375 C3,7.04933262 4.04933262,6 5.34375,6 L8.15625,6 C8.41513348,6 8.625,6.20986652 8.625,6.46875 C8.625,6.72763348 8.41513348,6.9375 8.15625,6.9375 L5.34375,6.9375 C4.56709957,6.9375 3.9375,7.56709957 3.9375,8.34375 L3.9375,18.65625 C3.9375,19.4329004 4.56709957,20.0625 5.34375,20.0625 L15.65625,20.0625 C16.4329004,20.0625 17.0625,19.4329004 17.0625,18.65625 L17.0625,15.84375 Z"/>
  </defs>
  <use xlink:href="#outgoing-a"/>
</svg>
