<?xml version="1.0" encoding="UTF-8"?>
<svg xmlns="http://www.w3.org/2000/svg" xmlns:xlink="http://www.w3.org/1999/xlink" width="24" height="24" viewBox="0 0 24 24">
  <defs>
    <path id="bell2-a" d="M8.5,18.5 C8.5,18.2238576 8.72385763,18 9,18 L15,18 C15.2761424,18 15.5,18.2238576 15.5,18.5 C15.5,20.4329966 13.9329966,22 12,22 C10.0670034,22 8.5,20.4329966 8.5,18.5 Z M12,21 C13.209479,21 14.2183558,20.1411202 14.4499909,19 L9.55000906,19 C9.78164422,20.1411202 10.790521,21 12,21 Z M19,11 L19,15.3382679 L22.0900099,18.9285714 L2,18.9285714 L5,15.4428511 L5,11 C5,7.13400675 8.13400675,4 12,4 C15.8659932,4 19,7.13400675 19,11 Z M18,11 C18,7.6862915 15.3137085,5 12,5 C8.6862915,5 6,7.6862915 6,11 L6,15.8139242 L4.18001989,17.9285714 L19.9099901,17.9285714 L18,15.709341 L18,11 Z M12.5,4 C12.5,4.27614237 12.2761424,4.5 12,4.5 C11.7238576,4.5 11.5,4.27614237 11.5,4 L11.5,2 C11.5,1.72385763 11.7238576,1.5 12,1.5 C12.2761424,1.5 12.5,1.72385763 12.5,2 L12.5,4 Z"/>
  </defs>
  <use xlink:href="#bell2-a"/>
</svg>
