<?xml version="1.0" encoding="UTF-8"?>
<svg xmlns="http://www.w3.org/2000/svg" xmlns:xlink="http://www.w3.org/1999/xlink" width="24" height="24" viewBox="0 0 24 24">
  <defs>
    <path id="plus-a" d="M12,11 L21,11 C21.2761424,11 21.5,11.2238576 21.5,11.5 C21.5,11.7761424 21.2761424,12 21,12 L12,12 L12,20.5 C12,20.7761424 11.7761424,21 11.5,21 C11.2238576,21 11,20.7761424 11,20.5 L11,12 L3,12 C2.72385763,12 2.5,11.7761424 2.5,11.5 C2.5,11.2238576 2.72385763,11 3,11 L11,11 L11,2.5 C11,2.22385763 11.2238576,2 11.5,2 C11.7761424,2 12,2.22385763 12,2.5 L12,11 Z"/>
  </defs>
  <use xlink:href="#plus-a"/>
</svg>
