<?xml version="1.0" encoding="UTF-8"?>
<svg xmlns="http://www.w3.org/2000/svg" xmlns:xlink="http://www.w3.org/1999/xlink" width="24" height="24" viewBox="0 0 24 24">
  <defs>
    <path id="ok-clipboard-a" d="M11.1331703,3.50072596 L10.8443558,4 L9.5,4 C9.22385763,4 9,4.22385763 9,4.5 C9,4.77614237 9.22385763,5 9.5,5 L14.5,5 C14.7761424,5 15,4.77614237 15,4.5 C15,4.22385763 14.7761424,4 14.5,4 L13.1556442,4 L12.8668297,3.50072596 C12.6886826,3.19276266 12.3616677,3 12,3 C11.6383323,3 11.3113174,3.19276266 11.1331703,3.50072596 Z M12,2 C12.7402824,2 13.3866262,2.40219863 13.7324356,3 L14.5,3 C15.3284271,3 16,3.67157288 16,4.5 C16,5.32842712 15.3284271,6 14.5,6 L9.5,6 C8.67157288,6 8,5.32842712 8,4.5 C8,3.67157288 8.67157288,3 9.5,3 L10.2675644,3 C10.6133738,2.40219863 11.2597176,2 12,2 Z M8.08535285,4 L8.08535285,5 L7,5 C6.44771525,5 6,5.44771525 6,6 L6,20 C6,20.5522847 6.44771525,21 7,21 L17,21 C17.5522847,21 18,20.5522847 18,20 L18,6 C18,5.44771525 17.5522847,5 17,5 L15.9146471,5 L15.9146471,4 L17,4 C18.1045695,4 19,4.8954305 19,6 L19,20 C19,21.1045695 18.1045695,22 17,22 L7,22 C5.8954305,22 5,21.1045695 5,20 L5,6 C5,4.8954305 5.8954305,4 7,4 L8.08535285,4 Z M14.9236989,8.65437613 L15.6935114,9.29264622 L11.6871129,14.1247318 L9.35098253,11.8669534 L10.0459281,11.1478911 L11.6060861,12.6557226 L14.9236989,8.65437613 Z M8.5667313,17 C8.25373425,17 8,16.7761424 8,16.5 C8,16.2238576 8.25373425,16 8.5667313,16 L15.4332687,16 C15.7462658,16 16,16.2238576 16,16.5 C16,16.7761424 15.7462658,17 15.4332687,17 L8.5667313,17 Z M8.5667313,19 C8.25373425,19 8,18.7761424 8,18.5 C8,18.2238576 8.25373425,18 8.5667313,18 L15.4332687,18 C15.7462658,18 16,18.2238576 16,18.5 C16,18.7761424 15.7462658,19 15.4332687,19 L8.5667313,19 Z"/>
  </defs>
  <use xlink:href="#ok-clipboard-a"/>
</svg>
