
<svg version="1.1" xmlns="http://www.w3.org/2000/svg" width="32" height="32" viewBox="0 0 32 32">
<title>link</title>
<path d="M5.74 16c0-2.166 1.761-3.927 3.926-3.927h5.066v-2.407h-5.066c-3.496 0-6.333 2.837-6.333 6.333s2.837 6.333 6.333 6.333h5.066v-2.407h-5.066c-2.166 0-3.926-1.761-3.926-3.927zM10.934 17.267h10.133v-2.533h-10.133v2.533zM22.333 9.667h-5.066v2.407h5.066c2.166 0 3.927 1.761 3.927 3.927s-1.761 3.927-3.927 3.927h-5.066v2.407h5.066c3.496 0 6.333-2.837 6.333-6.333s-2.837-6.333-6.333-6.333z"></path>
</svg>
