<?xml version="1.0" encoding="UTF-8"?>
<svg xmlns="http://www.w3.org/2000/svg" xmlns:xlink="http://www.w3.org/1999/xlink" width="24" height="24" viewBox="0 0 24 24">
  <defs>
    <path id="location-marker-a" d="M12.4039387,21.7946753 L12,22.3483913 L11.5960613,21.7946753 C7.19988184,15.7684269 5,11.5378849 5,9 C5,5.13400675 8.13400675,2 12,2 C15.8659932,2 19,5.13400675 19,9 C19,11.5378849 16.8001182,15.7684269 12.4039387,21.7946753 Z M18,9 C18,5.6862915 15.3137085,3 12,3 C8.6862915,3 6,5.6862915 6,9 C6,11.176531 7.99891648,15.0903443 12,20.6479828 C16.0010835,15.0903443 18,11.176531 18,9 Z M12,12 C10.3431458,12 9,10.6568542 9,9 C9,7.34314575 10.3431458,6 12,6 C13.6568542,6 15,7.34314575 15,9 C15,10.6568542 13.6568542,12 12,12 Z M12,11 C13.1045695,11 14,10.1045695 14,9 C14,7.8954305 13.1045695,7 12,7 C10.8954305,7 10,7.8954305 10,9 C10,10.1045695 10.8954305,11 12,11 Z"/>
  </defs>
  <use xlink:href="#location-marker-a"/>
</svg>
