<?xml version="1.0" encoding="UTF-8" standalone="no"?><!DOCTYPE svg PUBLIC "-//W3C//DTD SVG 1.1//EN" "http://www.w3.org/Graphics/SVG/1.1/DTD/svg11.dtd"><svg width="100%" height="100%" viewBox="0 0 32 32" version="1.1" xmlns="http://www.w3.org/2000/svg" xmlns:xlink="http://www.w3.org/1999/xlink" xml:space="preserve" xmlns:serif="http://www.serif.com/" style="fill-rule:evenodd;clip-rule:evenodd;stroke-linejoin:round;stroke-miterlimit:1.41421;"><path d="M16.181,0.001c7.323,0.139 14.166,5.732 15.559,12.972c1.383,7.183 -2.887,15.067 -9.7,17.843c-5.693,2.32 -12.683,1 -17.141,-3.237c-4.946,-4.699 -6.383,-12.715 -3.222,-18.861c2.644,-5.143 8.191,-8.605 14.089,-8.717c0.208,-0.001 0.207,-0.001 0.415,0Zm-0.402,1c-6.882,0.13 -13.28,5.368 -14.587,12.16c-1.297,6.737 2.706,14.126 9.095,16.73c5.336,2.174 11.888,0.937 16.068,-3.035c4.693,-4.459 5.988,-12.086 2.938,-17.843c-2.505,-4.728 -7.637,-7.908 -13.125,-8.012c-0.195,-0.001 -0.194,-0.001 -0.389,0Z" style="fill-rule:nonzero;"/><path d="M20.591,15.954l-8.126,8.321l-0.715,-0.698l7.443,-7.623l-7.415,-7.581l0.715,-0.699c2.699,2.76 5.399,5.52 8.098,8.28Z" style="fill-rule:nonzero;"/></svg>