<?xml version="1.0" encoding="UTF-8" standalone="no"?><!DOCTYPE svg PUBLIC "-//W3C//DTD SVG 1.1//EN" "http://www.w3.org/Graphics/SVG/1.1/DTD/svg11.dtd"><svg width="100%" height="100%" viewBox="0 0 24 24" version="1.1" xmlns="http://www.w3.org/2000/svg" xmlns:xlink="http://www.w3.org/1999/xlink" xml:space="preserve" xmlns:serif="http://www.serif.com/" style="fill-rule:evenodd;clip-rule:evenodd;stroke-linejoin:round;stroke-miterlimit:1.41421;"><path d="M2.717,7.001l18.567,0c0.394,0 0.714,0.319 0.714,0.714l0,12.139l-19.994,0l0,-12.139c0,-0.395 0.319,-0.714 0.714,-0.714l-0.001,0Z"/><path d="M4.145,3.838l4.999,0c0.394,0 0.714,0.32 0.714,0.714l0,1.428l-6.427,0l0,-1.428c0,-0.394 0.319,-0.714 0.714,-0.714Z"/><path d="M14.856,3.838l4.999,0c0.395,0 0.714,0.32 0.714,0.714l0,1.428l-6.427,0l0,-1.428c0,-0.394 0.32,-0.714 0.714,-0.714Z"/></svg>