<?xml version="1.0" encoding="UTF-8"?>
<svg xmlns="http://www.w3.org/2000/svg" xmlns:xlink="http://www.w3.org/1999/xlink" width="24" height="24" viewBox="0 0 24 24">
  <defs>
    <path id="cog-a" d="M12.2431516,15.2173913 C14.0165309,15.2173913 15.4605429,13.7733794 15.4605429,12 C15.4605429,10.2266206 14.0165309,8.7826087 12.2431516,8.7826087 C10.4697722,8.7826087 9.02576027,10.2266206 9.02576027,12 C9.02576027,13.7733794 10.4697722,15.2173913 12.2431516,15.2173913 Z M12.2431516,16.2173913 C9.91748746,16.2173913 8.02576027,14.3256641 8.02576027,12 C8.02576027,9.67433589 9.91748746,7.7826087 12.2431516,7.7826087 C14.5688157,7.7826087 16.4605429,9.67433589 16.4605429,12 C16.4605429,14.3256641 14.5688157,16.2173913 12.2431516,16.2173913 Z M21.6158569,14.1063795 C21.9900259,14.4015954 22.0882412,14.9262456 21.8530359,15.3571352 L19.9590994,18.6333391 C19.7247761,19.0629318 19.2124254,19.2451464 18.7538728,19.0668827 L16.6453084,18.2199218 C16.2449455,18.501752 15.8403559,18.7389183 15.4245979,18.9307673 L15.1044873,21.1621321 C15.0451392,21.6438993 14.6296884,22 14.1431516,22 L10.3431516,22 C9.85650899,22 9.44220483,21.6448821 9.38230284,21.1719836 L9.06092215,18.9311438 C8.63441074,18.7356131 8.22752229,18.4988341 7.83810048,18.2210159 L5.71611006,19.0728098 C5.27295174,19.2339582 4.75918449,19.0586371 4.53326722,18.6441352 L2.62720379,15.3463391 C2.39784193,14.9258424 2.49563905,14.400747 2.87205872,14.1051126 L4.65610607,12.7093493 C4.63107963,12.4572181 4.61815157,12.2261945 4.61815157,12 C4.61815157,11.7742757 4.63110645,11.5428589 4.65611097,11.2907444 L2.87021327,9.89426269 C2.49099444,9.59469714 2.38548705,9.06155347 2.63326722,8.64369087 L4.52720379,5.36748698 C4.76174631,4.93749236 5.27527135,4.75416392 5.73154822,4.93392091 L7.84068236,5.78081486 C8.24068965,5.49876233 8.64526553,5.26149535 9.06088615,5.06989399 L9.38121098,2.83609796 C9.44220483,2.35511785 9.85650899,2 10.3431516,2 L14.1431516,2 C14.6296884,2 15.0451392,2.35610068 15.1031775,2.82803926 L15.4245069,5.06925702 C15.8506439,5.26410912 16.2577219,5.50106371 16.6482092,5.77977147 L18.769367,4.92801633 C19.2125001,4.76687704 19.7270872,4.94213128 19.9530359,5.35669087 L21.8590994,8.65448698 C22.0881006,9.0743226 21.9900709,9.59748117 21.6140649,9.89585386 L19.829692,11.2905615 C19.8554104,11.5447785 19.8681516,11.7694089 19.8681516,12 C19.8681516,12.2306167 19.8554075,12.4552714 19.8296834,12.7095233 L21.6158569,14.1063795 Z M18.9932244,13.3248621 C18.8547231,13.2165491 18.7832912,13.0434495 18.8050996,12.8689826 C18.8477618,12.5276851 18.8681516,12.2649029 18.8681516,12 C18.8681516,11.7350971 18.8477618,11.4723149 18.8050996,11.1310174 C18.7832856,10.9565052 18.8547603,10.7833648 18.9933252,10.6750592 L20.9762907,9.12514404 L19.0970492,5.87375424 L16.7615173,6.81188267 C16.5973391,6.87782921 16.4105334,6.85209979 16.2702962,6.74422504 C15.7999677,6.38243391 15.3058208,6.0946907 14.7800248,5.87972852 C14.6158172,5.8125952 14.4994765,5.66347886 14.4742996,5.48787378 L14.1177041,3 L10.3678707,3 L10.0111775,5.48787378 C9.98601317,5.6633906 9.869775,5.81245237 9.70568346,5.87963393 C9.19903946,6.08706164 8.70597376,6.37638276 8.21136549,6.74775252 C8.07155946,6.85272393 7.88707924,6.87704936 7.72484188,6.81190518 L5.38924803,5.87406797 L3.50999302,9.12511879 L5.49223066,10.6751208 C5.63074583,10.7834321 5.70218706,10.9565406 5.68037747,11.1310174 C5.63925156,11.4600246 5.61815157,11.7389517 5.61815157,12 C5.61815157,12.2615735 5.63918629,12.5394532 5.68037747,12.8689826 C5.70218141,13.0434142 5.63078295,13.2164818 5.49233138,13.3248005 L3.51001245,14.875682 L5.38910027,18.126806 L7.72484188,17.1889209 C7.88900806,17.1230022 8.07578686,17.1487394 8.21600696,17.256601 C8.6844552,17.6169459 9.17880943,17.90473 9.70624836,18.1214238 C9.87004858,18.1887198 9.98603391,18.3376377 10.0111742,18.5129295 L10.3678031,21 L14.1176078,21 L14.4743028,18.5129295 C14.4994558,18.3375492 14.6155438,18.1885766 14.7794604,18.1213287 C15.2866906,17.9132343 15.7798808,17.6239519 16.2753658,17.2527525 C16.4151487,17.1480322 16.5994447,17.1238427 16.7615173,17.1889434 L19.0968916,18.1270422 L20.9764084,14.8757822 L18.9932244,13.3248621 Z M19.0812038,5.84633911 C19.0821542,5.84808154 19.0830893,5.84970365 19.0840183,5.85120861 L19.0812038,5.84633911 Z"/>
  </defs>
  <use xlink:href="#cog-a"/>
</svg>
