<?xml version="1.0" encoding="UTF-8"?>
<svg xmlns="http://www.w3.org/2000/svg" xmlns:xlink="http://www.w3.org/1999/xlink" width="24" height="24" viewBox="0 0 24 24">
  <defs>
    <path id="pencil-square-a" d="M9.81195252,18.5667271 L9.43788578,21.0621142 L11.9332729,20.6880475 L20.863961,11.7573593 L18.7426407,9.63603897 L9.81195252,18.5667271 Z M19.0961941,8.5753788 L21.9246212,11.4038059 C22.1198833,11.5990681 22.1198833,11.9156506 21.9246212,12.1109127 L12.5238819,21.511652 C12.4482177,21.5873163 12.3502751,21.6367106 12.244452,21.6525738 L8.91726921,22.1513294 C8.58477162,22.2011719 8.29882808,21.9152284 8.34867056,21.5827308 L8.84742622,18.255548 C8.86328944,18.1497249 8.91268374,18.0517823 8.98834802,17.9761181 L18.3890873,8.5753788 C18.5843494,8.38011665 18.9009319,8.38011665 19.0961941,8.5753788 Z M17.2852631,11.0915833 L16.5899658,11.7908478 L18.7055206,13.9181519 L19.408905,13.2115784 L17.2852631,11.0915833 Z M4,20 L7,20 L7,21 L3,21 L3,2 L18,2 L18,6.5 L17,6.5 L17,3 L4,3 L4,20 Z"/>
  </defs>
  <use xlink:href="#pencil-square-a"/>
</svg>
