<?xml version="1.0" encoding="UTF-8"?>
<svg xmlns="http://www.w3.org/2000/svg" xmlns:xlink="http://www.w3.org/1999/xlink" width="24" height="24" viewBox="0 0 24 24">
  <defs>
    <path id="person-a" d="M20,22 L4,22 C4,19.711 3.997,17.422 4.003,15.133 C4.00737888,14.7479452 4.07216726,14.3659637 4.195,14.001 C4.37085796,13.4750543 4.70383926,13.0157216 5.149,12.685 C5.308,12.57 5.481,12.473 5.662,12.397 C5.93363327,12.2852127 6.22048547,12.2147637 6.513,12.188 C7.16,12.136 7.809,12.101 8.456,12.058 L9.333,11.999 L12,14.536 L14.67,12 C15.609,12.064 16.55,12.119 17.489,12.193 C17.782,12.222 18.068,12.285 18.34,12.399 C18.521,12.475 18.694,12.572 18.852,12.687 C19.341,13.042 19.678,13.564 19.849,14.139 C19.94,14.441 19.983,14.752 19.998,15.067 C20.02,15.821 20,16.576 20,17.33 L20,22 Z M8.523,13.056 C7.868,13.1 7.211,13.122 6.557,13.189 C6.32834203,13.212289 6.10648019,13.2802406 5.904,13.389 C5.811,13.439 5.724,13.499 5.644,13.567 C5.37600739,13.8047583 5.18575955,14.1176568 5.098,14.465 C5.04833923,14.6514062 5.01784767,14.8423973 5.007,15.035 L5.005,15.092 C4.999,15.309 5.002,15.525 5.002,15.742 L5.001,16.902 L5,21 L19,21 L19,17.33 C19,16.588 19.02,15.846 18.998,15.105 C18.991372,14.8269394 18.9400495,14.5517562 18.846,14.29 C18.7304108,13.9614507 18.5163602,13.6765154 18.233,13.474 C18.1337173,13.4061163 18.0270307,13.3497535 17.915,13.306 C17.7336746,13.2379894 17.5432749,13.1972135 17.35,13.185 L15.04,13.028 L12,15.915 L8.962,13.027 L8.523,13.056 Z M12.11,2.001 C12.289,2.008 12.467,2.02 12.644,2.046 C12.983,2.096 13.316,2.188 13.631,2.325 C14.0608238,2.50972187 14.449935,2.7775119 14.776,3.113 C14.893,3.232 15.002,3.36 15.102,3.494 C15.745,4.353 16,5.44 16,6.499 C16,6.816 15.978,7.132 15.93,7.444 C15.806,8.249 15.502,9.034 14.977,9.664 C14.5469774,10.1796489 13.9834303,10.5671092 13.348,10.784 C12.9135748,10.9295276 12.4581454,11.0025044 12,11 C11.543,11 11.086,10.932 10.653,10.784 C10.0171605,10.5673646 9.45322628,10.1798761 9.023,9.664 C8.498,9.034 8.194,8.249 8.07,7.444 C8.02264808,7.13124082 7.99924673,6.81532252 8,6.499 C8,5.44 8.255,4.353 8.898,3.494 C9.1175812,3.19948022 9.37978909,2.9392945 9.676,2.722 C9.892,2.565 10.124,2.431 10.369,2.325 C10.684,2.188 11.017,2.096 11.356,2.046 C11.534,2.02 11.712,2.008 11.891,2.001 L12.11,2.001 Z M11.914,3.001 C11.4955575,3.00884941 11.0829972,3.10102074 10.701,3.272 C10.5482136,3.34374524 10.4025636,3.42979592 10.266,3.529 C10.1495302,3.61470661 10.0401745,3.70968218 9.939,3.813 C9.393,4.369 9.12,5.134 9.033,5.897 C9.011,6.097 9,6.298 9,6.499 C9,7.39 9.209,8.325 9.791,9.023 C9.97586938,9.24751371 10.1973142,9.43920718 10.446,9.59 C10.634,9.705 10.837,9.796 11.047,9.861 C11.355,9.957 11.678,10 12,10 C12.322,10 12.645,9.957 12.953,9.861 C13.3254949,9.74560974 13.6681927,9.55002622 13.957,9.288 C14.047,9.205 14.131,9.117 14.209,9.023 C14.791,8.325 15,7.39 15,6.499 C15,6.298 14.989,6.097 14.967,5.897 C14.88,5.134 14.607,4.369 14.062,3.813 C13.8414261,3.5892403 13.5831423,3.40610595 13.299,3.272 C12.9170375,3.10091602 12.5044557,3.00873986 12.086,3.001 L11.914,3.001 Z"/>
  </defs>
  <use fill-rule="evenodd" xlink:href="#person-a"/>
</svg>
