<?xml version="1.0" encoding="UTF-8"?>
<svg xmlns="http://www.w3.org/2000/svg" xmlns:xlink="http://www.w3.org/1999/xlink" width="24" height="24" viewBox="0 0 24 24">
  <defs>
    <path id="arrow-circle-clock-fill-a" d="M18,13.9999902 L18,12.3333235 L16.7000294,10.6000294 C16.2029732,9.93728773 15.2627711,9.80297315 14.6000294,10.3000294 C13.9372877,10.7970857 13.8029732,11.7372877 14.3000294,12.4000294 L17.3000294,16.4000294 C17.3249526,16.4332603 17.350911,16.4651108 17.3778187,16.4955809 C15.8325455,18.6194197 13.3274987,20 10.5,20 C5.80557963,20 2,16.1944204 2,11.5 C2,6.80557963 5.80557963,3 10.5,3 C15.1944204,3 19,6.80557963 19,11.5 L19,14.0000687 L21.1000294,11.2000294 C21.2657149,10.9791155 21.5791155,10.934344 21.8000294,11.1000294 C22.0209433,11.2657149 22.0657149,11.5791155 21.9000294,11.8000294 L18.9000294,15.8000294 C18.7000294,16.0666961 18.3000294,16.0666961 18.1000294,15.8000294 L15.1000294,11.8000294 C14.934344,11.5791155 14.9791155,11.2657149 15.2000294,11.1000294 C15.4209433,10.934344 15.734344,10.9791155 15.9000294,11.2000294 L18,13.9999902 Z M4.94447309,13.7826041 L5.45896884,14.640097 L11.3433297,11.1089283 L11.3433297,6.32583306 L10.3433297,6.32583306 L10.3433297,10.5427379 L4.94447309,13.7826041 Z"/>
  </defs>
  <use fill-rule="evenodd" xlink:href="#arrow-circle-clock-fill-a"/>
</svg>
