<?xml version="1.0" encoding="UTF-8"?>
<svg xmlns="http://www.w3.org/2000/svg" xmlns:xlink="http://www.w3.org/1999/xlink" width="24" height="24" viewBox="0 0 24 24">
  <defs>
    <path id="arrow-exclamation-circle-a" d="M4.01061834,11.9025432 L2.28752575,14.2 C2.142551,14.3932997 1.86832541,14.4324747 1.67502575,14.2875 C1.48172609,14.1425253 1.442551,13.8682997 1.58752575,13.675 L4.21252575,10.175 C4.38752575,9.94166667 4.73752575,9.94166667 4.91252575,10.175 L7.53752575,13.675 C7.68250049,13.8682997 7.64332541,14.1425253 7.45002575,14.2875 C7.25672609,14.4324747 6.98250049,14.3932997 6.83752575,14.2 L5.0049719,11.7565949 C5.1397116,15.2275055 7.99608041,18 11.5,18 C13.4030955,18 15.1719594,17.1781529 16.399292,15.771796 C16.5808623,15.5637411 16.8967159,15.5422711 17.1047708,15.7238413 C17.3128258,15.9054116 17.3342958,16.2212652 17.1527255,16.4293201 C15.7374437,18.0510414 13.6949973,19 11.5,19 C7.4929088,19 4.2197839,15.8575167 4.01061834,11.9025432 Z M18.9989541,11.6264547 L20.8375257,9.17502575 C20.9825005,8.98172609 21.2567261,8.942551 21.4500257,9.08752575 C21.6433254,9.23250049 21.6825005,9.50672609 21.5375257,9.70002575 L18.9125257,13.2000257 C18.7375257,13.4333591 18.3875257,13.4333591 18.2125257,13.2000257 L15.5875257,9.70002575 C15.442551,9.50672609 15.4817261,9.23250049 15.6750257,9.08752575 C15.8683254,8.942551 16.142551,8.98172609 16.2875257,9.17502575 L17.9998681,11.4581489 C17.977355,7.88755837 15.0758902,5 11.5,5 C9.55006125,5 7.7419759,5.86312291 6.51392835,7.32971577 C6.33664526,7.54143567 6.02129603,7.56935223 5.80957612,7.39206914 C5.59785622,7.21478606 5.56993966,6.89943682 5.74722275,6.68771692 C7.16330354,4.99656581 9.25092748,4 11.5,4 C15.6421356,4 19,7.35786438 19,11.5 C19,11.5421939 18.9996511,11.5843464 18.9989541,11.6264547 Z M11,14 L12,14 L12,16 L11,16 L11,14 Z M11,7 L12,7 L12,13 L11,13 L11,7 Z"/>
  </defs>
  <use xlink:href="#arrow-exclamation-circle-a"/>
</svg>
