<?xml version="1.0" encoding="UTF-8"?>
<svg xmlns="http://www.w3.org/2000/svg" xmlns:xlink="http://www.w3.org/1999/xlink" width="24" height="24" viewBox="0 0 24 24">
  <defs>
    <path id="trashcan-a" d="M4.54468254,6 L3.5,6 C3.22385763,6 3,5.77614237 3,5.5 C3,5.22385763 3.22385763,5 3.5,5 L8,5 L8,4.5 C8,3.11928813 9.11928813,2 10.5,2 L13.5,2 C14.8807119,2 16,3.11928813 16,4.5 L16,5 L20.5,5 C20.7761424,5 21,5.22385763 21,5.5 C21,5.77614237 20.7761424,6 20.5,6 L19.4553175,6 L18.252815,18.8266925 C18.0842015,20.6252374 16.5745266,22 14.7680952,22 L9.23190475,22 C7.42547338,22 5.91579855,20.6252374 5.74718496,18.8266925 L4.54468254,6 Z M9,5 L15,5 L15,4.5 C15,3.67157288 14.3284271,3 13.5,3 L10.5,3 C9.67157288,3 9,3.67157288 9,4.5 L9,5 Z M5.54906746,6 L6.74281919,18.7333518 C6.86325746,20.0180267 7.94159663,21 9.23190475,21 L14.7680952,21 C16.0584034,21 17.1367425,20.0180267 17.2571808,18.7333518 L18.4509325,6 L5.54906746,6 Z"/>
  </defs>
  <use xlink:href="#trashcan-a"/>
</svg>
