<?xml version="1.0" encoding="UTF-8" standalone="no"?><!DOCTYPE svg PUBLIC "-//W3C//DTD SVG 1.1//EN" "http://www.w3.org/Graphics/SVG/1.1/DTD/svg11.dtd"><svg width="100%" height="100%" viewBox="0 0 24 24" version="1.1" xmlns="http://www.w3.org/2000/svg" xmlns:xlink="http://www.w3.org/1999/xlink" xml:space="preserve" xmlns:serif="http://www.serif.com/" style="fill-rule:evenodd;clip-rule:evenodd;stroke-linejoin:round;stroke-miterlimit:1.41421;"><path d="M7,18l0,-10.929c0,-0.131 0.052,-0.257 0.144,-0.35c0.117,-0.12 0.332,-0.265 0.66,-0.399c0.501,-0.203 1.145,-0.322 1.946,-0.322c0.788,0 1.326,0.156 2.438,0.608c0.997,0.405 1.443,0.535 2.062,0.535c0.675,0 1.192,-0.095 1.57,-0.249c0.199,-0.081 0.3,-0.15 0.324,-0.173c0.313,-0.319 0.856,-0.097 0.856,0.35l0,6.858c0,0.131 -0.052,0.257 -0.144,0.35c-0.117,0.12 -0.332,0.265 -0.66,0.399c-0.501,0.203 -1.145,0.322 -1.946,0.322c-0.788,0 -1.326,-0.156 -2.438,-0.608c-0.997,-0.405 -1.443,-0.535 -2.062,-0.535c-0.675,0 -1.192,0.095 -1.57,0.249c-0.073,0.03 -0.132,0.058 -0.18,0.082l0,3.812l-1,0Zm2.75,-5.143c0.788,0 1.326,0.156 2.438,0.608c0.997,0.406 1.443,0.535 2.062,0.535c0.675,0 1.192,-0.095 1.57,-0.249c0.073,-0.03 0.132,-0.058 0.18,-0.082l0,-5.776c-0.47,0.159 -1.05,0.25 -1.75,0.25c-0.788,0 -1.326,-0.156 -2.438,-0.608c-0.997,-0.406 -1.443,-0.535 -2.062,-0.535c-0.675,0 -1.192,0.095 -1.57,0.249c-0.073,0.03 -0.132,0.058 -0.18,0.082l0,5.776c0.47,-0.159 1.05,-0.25 1.75,-0.25Z"/></svg>