<?xml version="1.0" encoding="UTF-8"?>
<svg xmlns="http://www.w3.org/2000/svg" xmlns:xlink="http://www.w3.org/1999/xlink" width="24" height="24" viewBox="0 0 24 24">
  <defs>
    <path id="exclamation-triangle-a" d="M20.7877634,20 L11.5203677,3.57143478 L2.67421716,20 L20.7877634,20 Z M21.7877634,20 C21.7877634,20.5522847 21.3400482,21 20.7877634,21 L2.67421716,21 C2.50872802,21 2.34582574,20.9589295 2.20011734,20.8804711 C1.71384657,20.618633 1.53190796,20.0121709 1.79374606,19.5259002 L10.6398966,3.09733496 C10.7295017,2.9309255 10.8644311,2.79331625 11.0290465,2.70045631 C11.5100746,2.42910711 12.1199969,2.59908547 12.3913461,3.08011359 L21.6587419,19.5086788 C21.7433224,19.658617 21.7877634,19.8278509 21.7877634,20 Z M11,16 L11,18 L12,18 L12,16 L11,16 Z M11,7 L11,14 L12,14 L12,7 L11,7 Z"/>
  </defs>
  <use xlink:href="#exclamation-triangle-a"/>
</svg>
