<?xml version="1.0" encoding="UTF-8"?>
<svg xmlns="http://www.w3.org/2000/svg" xmlns:xlink="http://www.w3.org/1999/xlink" width="24" height="24" viewBox="0 0 24 24">
  <defs>
    <path id="asset-black-a" d="M12,1.5 L21,6.75 L21,17.25 L12,22.5 L3,17.25 L3,6.75 L12,1.5 Z M8,9.5 C7.44771525,9.5 7,9.94771525 7,10.5 L7,13.6285841 C7,14.1808688 7.44771525,14.6285841 8,14.6285841 C8.55228475,14.6285841 9,14.1808688 9,13.6285841 L9,10.5 C9,9.94771525 8.55228475,9.5 8,9.5 Z M12,7.5 C11.4477153,7.5 11,7.94771525 11,8.5 L11,16.5 C11,17.0522847 11.4477153,17.5 12,17.5 C12.5522847,17.5 13,17.0522847 13,16.5 L13,8.5 C13,7.94771525 12.5522847,7.5 12,7.5 Z M16,9.5 C15.4477153,9.5 15,9.94771525 15,10.5 L15,13.6285841 C15,14.1808688 15.4477153,14.6285841 16,14.6285841 C16.5522847,14.6285841 17,14.1808688 17,13.6285841 L17,10.5 C17,9.94771525 16.5522847,9.5 16,9.5 Z"/>
  </defs>
  <use xlink:href="#asset-black-a"/>
</svg>
