<?xml version="1.0" encoding="UTF-8"?>
<svg xmlns="http://www.w3.org/2000/svg" xmlns:xlink="http://www.w3.org/1999/xlink" width="24" height="24" viewBox="0 0 24 24">
  <defs>
    <path id="calender-a" d="M19.6,20 C20.3908131,20 21,19.4870005 21,18.9 L21,6.1 C21,5.51299946 20.3908131,5 19.6,5 L4.4,5 C3.60918686,5 3,5.51299946 3,6.1 L3,18.9 C3,19.4870005 3.60918686,20 4.4,20 L19.6,20 Z M8,16 L3,16 L3,17 L8,17 L8,20 L9,20 L9,17 L15,17 L15,20 L16,20 L16,17 L21,17 L21,16 L16,16 L16,13 L21,13 L21,12 L16,12 L16,9 L15,9 L15,12 L9,12 L9,9 L8,9 L8,12 L3,12 L3,13 L8,13 L8,16 Z M9,16 L9,13 L15,13 L15,16 L9,16 Z M18,4 L19.6,4 C20.9086869,4 22,4.91900054 22,6.1 L22,18.9 C22,20.0809995 20.9086869,21 19.6,21 L4.4,21 C3.09131314,21 2,20.0809995 2,18.9 L2,6.1 C2,4.91900054 3.09131314,4 4.4,4 L6,4 L6,2.65 C6,2.37385763 6.22385763,2.15 6.5,2.15 C6.77614237,2.15 7,2.37385763 7,2.65 L7,4 L17,4 L17,2.65 C17,2.37385763 17.2238576,2.15 17.5,2.15 C17.7761424,2.15 18,2.37385763 18,2.65 L18,4 Z M3,9 L21,9 L21,8 L3,8 L3,9 Z"/>
  </defs>
  <use xlink:href="#calender-a"/>
</svg>
