<?xml version="1.0" encoding="UTF-8"?>
<svg xmlns="http://www.w3.org/2000/svg" xmlns:xlink="http://www.w3.org/1999/xlink" width="24" height="24" viewBox="0 0 24 24">
  <defs>
    <path id="house-black-a" d="M5,9.24031242 L2.31234752,11.3904344 C2.09671656,11.5629392 1.78207037,11.5279785 1.6095656,11.3123475 C1.43706082,11.0967166 1.47202151,10.7820704 1.68765248,10.6095656 L11.6799099,2.61575963 C11.682451,2.61363829 11.6850095,2.61154547 11.6875849,2.60948123 C11.8765186,2.45847273 12.1413451,2.46653897 12.3200901,2.61575964 L22.3123475,10.6095656 C22.5279785,10.7820704 22.5629392,11.0967166 22.3904344,11.3123475 C22.2179296,11.5279785 21.9032834,11.5629392 21.6876525,11.3904344 L19,9.24031242 L19,21 L14,21 L14,13.9972535 L10,13.9996949 L10,21 L5,21 L5,9.24031242 Z"/>
  </defs>
  <use xlink:href="#house-black-a"/>
</svg>
