<?xml version="1.0" encoding="UTF-8" standalone="no"?><!DOCTYPE svg PUBLIC "-//W3C//DTD SVG 1.1//EN" "http://www.w3.org/Graphics/SVG/1.1/DTD/svg11.dtd"><svg width="100%" height="100%" viewBox="0 0 24 24" version="1.1" xmlns="http://www.w3.org/2000/svg" xmlns:xlink="http://www.w3.org/1999/xlink" xml:space="preserve" xmlns:serif="http://www.serif.com/" style="fill-rule:evenodd;clip-rule:evenodd;stroke-linejoin:round;stroke-miterlimit:1.41421;"><path id="arrow-last-right-a" d="M6.146,19.646c-0.195,0.196 -0.195,0.512 0,0.708c0.196,0.195 0.512,0.195 0.708,0l8,-8c0.195,-0.196 0.195,-0.512 0,-0.708l-8,-8c-0.196,-0.195 -0.512,-0.195 -0.708,0c-0.195,0.196 -0.195,0.512 0,0.708l7.647,7.646l-7.647,7.646Zm11.354,-16.646c-0.276,0 -0.5,0.224 -0.5,0.5l0,17c0,0.276 0.224,0.5 0.5,0.5c0.276,0 0.5,-0.224 0.5,-0.5l0,-17c0,-0.276 -0.224,-0.5 -0.5,-0.5Z" style="fill-rule:nonzero;"/></svg>