<?xml version="1.0" encoding="UTF-8"?>
<svg xmlns="http://www.w3.org/2000/svg" xmlns:xlink="http://www.w3.org/1999/xlink" width="24" height="24" viewBox="0 0 24 24">
  <defs>
    <path id="megaphone-a" d="M6.00000017,9 C4.34314575,9 3,10.3431458 3,12 C3,13.6568542 4.34314575,15 6,15 L9,15 L9,9 L6.00000017,9 Z M9.50015926,15.8661257 C9.35303659,15.9512677 9.18220932,16 9,16 L7,16 L7,19.5 C7,19.7761424 6.77614237,20 6.5,20 C6.22385763,20 6,19.7761424 6,19.5 L6,16 C3.790861,16 2,14.209139 2,12 C2,9.790861 3.790861,8 6,8 L9,8 C9.18220932,8 9.35303659,8.0487323 9.50015926,8.13387434 C9.51734473,8.1239612 9.53489149,8.11452026 9.5527864,8.10557281 L17.5527864,4.10557281 C18.2176875,3.77312226 19,4.25661798 19,5 L19,8.53544443 C20.6961471,8.77805926 22,10.236764 22,12 C22,13.763236 20.6961471,15.2219407 19,15.4645556 L19,19 C19,19.743382 18.2176875,20.2268777 17.5527864,19.8944272 L9.5527864,15.8944272 C9.53489149,15.8854797 9.51734473,15.8760388 9.50015926,15.8661257 Z M19,14.4499909 C20.1411202,14.2183558 21,13.209479 21,12 C21,10.790521 20.1411202,9.78164422 19,9.55000906 L19,14.4499909 Z M10,9 L10,15 L18,19 L18,5 L10,9 Z"/>
  </defs>
  <use xlink:href="#megaphone-a"/>
</svg>
