
<svg version="1.1" xmlns="http://www.w3.org/2000/svg" width="32" height="32" viewBox="0 0 32 32">
<title>navigaterightInverted</title>
<path d="M16.163 3.334h-0.328c-1.793 0.020-3.563 0.423-5.188 1.183-2.552 1.2-4.637 3.211-5.928 5.717-0.911 1.784-1.385 3.759-1.385 5.761 0 6.951 5.72 12.671 12.671 12.671 1.64 0 3.263-0.319 4.781-0.937 1.465-0.6 2.805-1.469 3.951-2.561 2.068-1.965 3.411-4.573 3.807-7.399 0.193-1.385 0.159-2.792-0.104-4.165-0.224-1.171-0.616-2.308-1.16-3.369-1.291-2.507-3.376-4.517-5.928-5.717-1.625-0.76-3.395-1.163-5.188-1.183zM19.71 15.991l-6.041 6.040-1.413-1.413 4.625-4.627-4.625-4.627 1.413-1.413 6.041 6.040z"></path>
</svg>
