<?xml version="1.0" encoding="UTF-8"?>
<svg xmlns="http://www.w3.org/2000/svg" xmlns:xlink="http://www.w3.org/1999/xlink" width="24" height="24" viewBox="0 0 24 24">
  <defs>
    <path id="puzzle-piece-a" d="M9.0858139,6.9518054 C8.92899394,6.79498544 8.74305751,6.67841579 8.54940473,6.60979387 C8.44371058,6.5750509 8.31266412,6.51102219 8.17906437,6.40302528 C7.57769968,5.91690512 7.63097464,5.12159142 8.48689704,4.26566901 L11.4596423,1.29292373 L11.8131957,1.6464161 L15.0225934,4.85526036 C15.4896376,5.3210877 15.5969309,5.32807972 15.6699041,5.2377599 C15.690449,5.21233125 15.7041156,5.18434135 15.7084878,5.17158225 C15.8314667,4.82788115 16.0277234,4.51497884 16.2894859,4.2528777 C17.2016985,3.34132263 18.647948,3.29256462 19.6160494,4.10647949 L19.776715,4.2529261 C20.7395991,5.21581017 20.7395991,6.77621166 19.7769438,7.73886681 C19.5139535,8.00219771 19.1998909,8.19920467 18.8457062,8.32372997 C18.7011262,8.43148231 18.708111,8.53945188 19.1730734,9.00629381 L22.7071222,12.5400347 L22.3535534,12.8936035 L19.7341641,15.5129927 C18.8777538,16.3685953 18.0823961,16.4216447 17.5965128,15.8200833 C17.4885278,15.6863895 17.4245408,15.5552584 17.3935381,15.4603432 C17.3213722,15.2562953 17.2046401,15.0701521 17.048067,14.9137814 C16.4762691,14.3415706 15.5491311,14.3415706 14.9005893,14.9763808 L14.9759615,14.9144631 C14.4043476,15.486077 14.4045393,16.4138184 14.9779349,16.9870112 C15.1318373,17.141913 15.317439,17.258064 15.5130268,17.3280015 C15.6186402,17.3628113 15.7495582,17.4269218 15.8829974,17.5349951 C16.4836224,18.0214447 16.4300466,18.8166313 15.5743609,19.672519 L12.5403483,22.7071587 L12.1867584,22.353538 L9.01078323,19.1772858 C8.54051,18.7071235 8.4314509,18.6998044 8.35783156,18.7908444 C8.33723337,18.8163168 8.32353939,18.8443352 8.31982953,18.8552211 C8.19790995,19.1999469 8.00074874,19.514203 7.73858356,19.7750107 C6.82820221,20.6870366 5.380981,20.735704 4.4122997,19.9217765 L4.25230824,19.7752661 C3.29007394,18.8126843 3.29007394,17.2527075 4.25191675,16.2901702 C4.5143372,16.0270726 4.82736679,15.8310881 5.18377665,15.7045781 C5.3289477,15.5963403 5.32164607,15.4873176 4.8515965,15.017268 L1.29288093,11.4591676 L1.64642834,11.1055837 L4.32720912,8.42452588 C5.18328438,7.56865258 5.97859462,7.51527774 6.46476201,8.11648798 C6.57277157,8.25005608 6.63680852,8.38107816 6.66816728,8.47680559 C6.73991635,8.68048036 6.85652907,8.86650665 7.01345316,9.02363384 C7.58567525,9.59544293 8.51273462,9.59560968 9.08516367,9.02413411 C9.65787538,8.45135245 9.65787538,7.52366037 9.0858139,6.9518054 Z M16.6542953,5.49604401 C16.6195966,5.60169427 16.5556435,5.73267386 16.4477502,5.8662147 C15.9630521,6.46613148 15.1697802,6.41443609 14.3159786,5.56285853 L11.4597034,2.70707627 L9.19400382,4.9727758 C8.72393827,5.44284135 8.71664493,5.55171987 8.80771645,5.62533861 C8.83323023,5.64596297 8.86129729,5.65967641 8.87225779,5.66341077 C9.21620592,5.7850553 9.53001386,5.98179179 9.79285684,6.24463479 C10.755424,7.20685447 10.755549,8.76762805 9.79323176,9.73000316 C8.82966117,10.6931557 7.26945652,10.6931557 6.30624586,9.73063992 C6.04302485,9.46707882 5.84613461,9.15298991 5.7215896,8.79910993 C5.72147633,8.79876546 5.70778235,8.77074705 5.68718416,8.74527466 C5.61356482,8.65423461 5.50450572,8.66155378 5.03429246,9.1316561 L2.70711907,11.45907 L5.55867272,14.3101307 C6.41458053,15.1660385 6.46784721,15.9613774 5.86659069,16.4476282 C5.73300524,16.5556621 5.60196656,16.6197261 5.507456,16.6506712 C5.30116969,16.7239796 5.11595827,16.8399385 4.95960646,16.9966935 C4.39335771,17.5633512 4.38769833,18.4776825 4.94256645,19.0510275 C5.53205836,19.6407322 6.45955329,19.64086 7.03207382,19.0673096 C7.18825335,18.9119361 7.30473365,18.7262777 7.37345879,18.5323304 C7.4082072,18.4266479 7.47224415,18.2956258 7.58025371,18.1620577 C8.0664211,17.5608475 8.86173134,17.6142223 9.71786372,18.4701528 L12.540306,21.2928413 L14.8671758,18.9654905 C15.3373188,18.4952366 15.3446886,18.3858518 15.2536199,18.3120947 C15.2282106,18.2915156 15.2002801,18.2778381 15.1884967,18.2737987 C14.8428512,18.1504815 14.5292553,17.9542306 14.2697496,17.6930357 C13.3069524,16.7305859 13.3066299,15.1695812 14.345058,14.1448846 L14.2696858,14.2068023 C15.2325911,13.243897 16.7930911,13.243897 17.7550722,14.2065732 C18.0176478,14.4688087 18.2146817,14.7830028 18.3400086,15.1377562 C18.3401339,15.1381384 18.3538372,15.166221 18.3744497,15.1917409 C18.4480008,15.2828028 18.5569647,15.2755351 19.0272242,14.8057192 L21.2928779,12.5400655 L18.4652702,9.71270272 C17.6147425,8.85873977 17.5634165,8.06535472 18.1631316,7.58050152 C18.296743,7.47248037 18.4278063,7.40844756 18.523636,7.37707175 C18.7272131,7.30543108 18.91276,7.18904022 19.0696082,7.03198894 C19.630318,6.47127919 19.6417309,5.56999227 19.1038469,4.99541805 C18.4965848,4.38749797 17.5698074,4.38737483 16.9968717,4.95970542 C16.8405123,5.1163196 16.7236945,5.30259977 16.6542953,5.49604401 Z"/>
  </defs>
  <use xlink:href="#puzzle-piece-a"/>
</svg>
