<?xml version="1.0" encoding="UTF-8"?>
<svg xmlns="http://www.w3.org/2000/svg" xmlns:xlink="http://www.w3.org/1999/xlink" width="24" height="24" viewBox="0 0 24 24">
  <defs>
    <path id="exclamation-circle-a" d="M11.5,20 C16.1944204,20 20,16.1944204 20,11.5 C20,6.80557963 16.1944204,3 11.5,3 C6.80557963,3 3,6.80557963 3,11.5 C3,16.1944204 6.80557963,20 11.5,20 Z M11.5,21 C6.25329488,21 2,16.7467051 2,11.5 C2,6.25329488 6.25329488,2 11.5,2 C16.7467051,2 21,6.25329488 21,11.5 C21,16.7467051 16.7467051,21 11.5,21 Z M11,15 L11,17 L12,17 L12,15 L11,15 Z M11,6 L11,13 L12,13 L12,6 L11,6 Z"/>
  </defs>
  <use xlink:href="#exclamation-circle-a"/>
</svg>
