<?xml version="1.0" encoding="UTF-8"?>
<svg xmlns="http://www.w3.org/2000/svg" xmlns:xlink="http://www.w3.org/1999/xlink" width="24" height="24" viewBox="0 0 24 24">
  <defs>
    <path id="users-a" d="M14.5,14 C12.0147186,14 10,11.9852814 10,9.5 C10,7.01471863 12.0147186,5 14.5,5 C16.9852814,5 19,7.01471863 19,9.5 C19,11.9852814 16.9852814,14 14.5,14 Z M14.5,13 C16.4329966,13 18,11.4329966 18,9.5 C18,7.56700338 16.4329966,6 14.5,6 C12.5670034,6 11,7.56700338 11,9.5 C11,11.4329966 12.5670034,13 14.5,13 Z M8,22 L7,22 L7,18.75 C7,16.6763732 8.67192355,15 10.7470703,15 L18.2529297,15 C20.3213082,15 22,16.6815107 22,18.75 L22,22 L21,22 L21,18.75 C21,17.2334202 19.7686475,16 18.2529297,16 L10.7470703,16 C9.22480415,16 8,17.2280638 8,18.75 L8,22 Z M12.7216972,3.35823541 L12.0058135,4.05645489 C11.3509428,3.38501664 10.4566992,3 9.5,3 C7.56700338,3 6,4.56700338 6,6.5 C6,8.43299662 7.56700338,10 9.5,10 L9.5,11 C7.01471863,11 5,8.98528137 5,6.5 C5,4.01471863 7.01471863,2 9.5,2 C10.7290427,2 11.8805056,2.49576244 12.7216972,3.35823541 Z M3,19.5 L2,19.5 L2,16 C2,13.7911598 3.78683753,12 5.99149665,12 L9.60850335,12 L9.60850335,13 L5.99149665,13 C4.33966385,13 3,14.3429045 3,16 L3,19.5 Z"/>
  </defs>
  <use xlink:href="#users-a"/>
</svg>
