<?xml version="1.0" encoding="UTF-8" standalone="no"?><!DOCTYPE svg PUBLIC "-//W3C//DTD SVG 1.1//EN" "http://www.w3.org/Graphics/SVG/1.1/DTD/svg11.dtd"><svg width="100%" height="100%" viewBox="0 0 24 24" version="1.1" xmlns="http://www.w3.org/2000/svg" xmlns:xlink="http://www.w3.org/1999/xlink" xml:space="preserve" xmlns:serif="http://www.serif.com/" style="fill-rule:evenodd;clip-rule:evenodd;stroke-linejoin:round;stroke-miterlimit:1.41421;"><path id="grid-squares-a" d="M3.5,3.5l0,3l3,0l0,-3l-3,0Zm-1,-1l5,0l0,5l-5,0l0,-5Zm7,0l5,0l0,5l-5,0l0,-5Zm1,1l0,3l3,0l0,-3l-3,0Zm6,-1l5,0l0,5l-5,0l0,-5Zm1,1l0,3l3,0l0,-3l-3,0Zm-15,6l5,0l0,5l-5,0l0,-5Zm1,1l0,3l3,0l0,-3l-3,0Zm6,-1l5,0l0,5l-5,0l0,-5Zm1,1l0,3l3,0l0,-3l-3,0Zm6,-1l5,0l0,5l-5,0l0,-5Zm1,1l0,3l3,0l0,-3l-3,0Zm-15,6l5,0l0,5l-5,0l0,-5Zm1,1l0,3l3,0l0,-3l-3,0Zm6,-1l5,0l0,5l-5,0l0,-5Zm1,1l0,3l3,0l0,-3l-3,0Zm6,-1l5,0l0,5l-5,0l0,-5Zm1,1l0,3l3,0l0,-3l-3,0Z" style="fill-rule:nonzero;"/></svg>