<?xml version="1.0" encoding="UTF-8"?>
<svg xmlns="http://www.w3.org/2000/svg" xmlns:xlink="http://www.w3.org/1999/xlink" width="24" height="24" viewBox="0 0 24 24">
  <defs>
    <path id="dots-h-black-a" d="M6.5,13 C5.67157288,13 5,12.3284271 5,11.5 C5,10.6715729 5.67157288,10 6.5,10 C7.32842712,10 8,10.6715729 8,11.5 C8,12.3284271 7.32842712,13 6.5,13 Z M11.5,13 C10.6715729,13 10,12.3284271 10,11.5 C10,10.6715729 10.6715729,10 11.5,10 C12.3284271,10 13,10.6715729 13,11.5 C13,12.3284271 12.3284271,13 11.5,13 Z M16.5,13 C15.6715729,13 15,12.3284271 15,11.5 C15,10.6715729 15.6715729,10 16.5,10 C17.3284271,10 18,10.6715729 18,11.5 C18,12.3284271 17.3284271,13 16.5,13 Z"/>
  </defs>
  <use xlink:href="#dots-h-black-a"/>
</svg>
