<?xml version="1.0" encoding="UTF-8"?>
<svg xmlns="http://www.w3.org/2000/svg" xmlns:xlink="http://www.w3.org/1999/xlink" width="24" height="24" viewBox="0 0 24 24">
  <defs>
    <path id="list-bulleted-plus-a" d="M19,18 L21.5,18 C21.7761424,18 22,18.2238576 22,18.5 C22,18.7761424 21.7761424,19 21.5,19 L19,19 L19,21.5 C19,21.7761424 18.7761424,22 18.5,22 C18.2238576,22 18,21.7761424 18,21.5 L18,19 L15.5,19 C15.2238576,19 15,18.7761424 15,18.5 C15,18.2238576 15.2238576,18 15.5,18 L18,18 L18,15.5 C18,15.2238576 18.2238576,15 18.5,15 C18.7761424,15 19,15.2238576 19,15.5 L19,18 Z M7,7 L7,6 L22,6 L22,7 L7,7 Z M3,7 L3,6 L5,6 L5,7 L3,7 Z M7,12 L7,11 L22,11 L22,12 L7,12 Z M3,12 L3,11 L5,11 L5,12 L3,12 Z M7,17 L7,16 L14,16 L14,17 L7,17 Z M3,17 L3,16 L5,16 L5,17 L3,17 Z"/>
  </defs>
  <use xlink:href="#list-bulleted-plus-a"/>
</svg>
