
<svg version="1.1" xmlns="http://www.w3.org/2000/svg" width="32" height="32" viewBox="0 0 32 32">
<title>loupeInverted</title>
<path d="M16.163 3.334h-0.328c-1.793 0.020-3.563 0.423-5.188 1.183-2.552 1.2-4.637 3.211-5.928 5.717-0.911 1.784-1.385 3.759-1.385 5.761 0 6.951 5.72 12.671 12.671 12.671 1.64 0 3.263-0.319 4.781-0.937 1.465-0.6 2.805-1.469 3.951-2.561 2.068-1.965 3.411-4.573 3.807-7.399 0.193-1.385 0.159-2.792-0.104-4.165-0.224-1.171-0.616-2.308-1.16-3.369-1.291-2.507-3.376-4.517-5.928-5.717-1.625-0.76-3.395-1.163-5.188-1.183zM23.285 22.743c0.151 0.151 0.151 0.392 0 0.541-0.149 0.151-0.391 0.151-0.541 0l-4.736-4.736c-0.149-0.149-0.149-0.392 0-0.541s0.392-0.149 0.541 0l4.736 4.736zM13.827 19.57c-3.171 0-5.741-2.571-5.741-5.743 0-3.171 2.571-5.741 5.741-5.741 3.172 0 5.743 2.571 5.743 5.741 0 3.172-2.571 5.743-5.743 5.743zM13.827 18.803c2.749 0 4.976-2.227 4.976-4.976 0-2.748-2.227-4.976-4.976-4.976-2.748 0-4.976 2.228-4.976 4.976 0 2.749 2.228 4.976 4.976 4.976z"></path>
</svg>
