<?xml version="1.0" encoding="UTF-8"?>
<svg xmlns="http://www.w3.org/2000/svg" xmlns:xlink="http://www.w3.org/1999/xlink" width="24" height="24" viewBox="0 0 24 24">
  <defs>
    <path id="arrow-circle-counter_clockwise-a" d="M6.55723531,7.42271933 C6.75465792,7.2296421 7.07122082,7.23316449 7.26429833,7.43058681 C7.45737584,7.62800913 7.45385344,7.94457155 7.25643083,8.13764878 C5.82249191,9.54002592 5,11.4540423 5,13.5000125 C5,17.642142 8.35786438,21.0000015 12.5,21.0000015 C16.6421356,21.0000015 20,17.642142 20,13.5000125 C20,9.35788298 16.6421356,6.00002354 12.5,6.00002354 C12.2238576,6.00002354 12,5.77616624 12,5.50002428 C12,5.22388231 12.2238576,5.00002501 12.5,5.00002501 C17.1944204,5.00002501 21,8.80559904 21,13.5000125 C21,18.194426 17.1944204,22 12.5,22 C7.80557963,22 4,18.194426 4,13.5000125 C4,11.1821801 4.93284927,9.01135174 6.55723531,7.42271933 Z M11.5000392,4.99999559 L13,4.99999559 L13,5.99999411 L11.4999608,5.99999411 L14.3,8.10002045 C14.5209139,8.26570563 14.5656854,8.57910585 14.4,8.80001942 C14.2343146,9.020933 13.9209139,9.06570446 13.7,8.90001927 L9.7,5.90002369 C9.43333333,5.70002398 9.43333333,5.30002457 9.7,5.10002486 L13.7,2.10002928 C13.9209139,1.9343441 14.2343146,1.97911556 14.4,2.20002913 C14.5656854,2.42094271 14.5209139,2.73434292 14.3,2.9000281 L11.5000392,4.99999559 Z M11,5.37502446 L10.8333333,5.50002428 L11,5.62502409 L11,5.37502446 Z"/>
  </defs>
  <use xlink:href="#arrow-circle-counter_clockwise-a"/>
</svg>
