<?xml version="1.0" encoding="UTF-8"?>
<svg xmlns="http://www.w3.org/2000/svg" xmlns:xlink="http://www.w3.org/1999/xlink" width="24" height="24" viewBox="0 0 24 24">
  <defs>
    <path id="eye-line_trough-a" d="M12,17 C15.5722149,17 18.8932044,15.1119649 20.8390735,12.0008117 C18.894485,8.88813937 15.5729935,6.99913699 12.0002416,7.0000003 C8.42700647,6.99913699 5.10551503,8.88813937 3.16092647,12.0008117 C5.10679564,15.1119649 8.42778507,17 12,17 Z M12,6.00000033 C16.1218379,5.99900434 19.9321911,8.28564262 22,12.0011192 C19.9306242,15.714665 16.1210219,18 12,18 C7.87897812,18 4.06937584,15.714665 2,12.0011192 C4.06780887,8.28564262 7.87816214,5.99900434 12,6.00000033 Z M11.9999995,14.999999 C12.7963536,15.0005722 13.5595651,14.6847616 14.1221634,14.1221634 C14.6847616,13.5595651 15.0005722,12.7963536 14.999999,11.9999995 C14.999999,10.3431455 13.6568534,9 11.9999995,9 C10.3431455,9 9,10.3431455 9,11.9999995 C9,13.6568534 10.3431455,14.999999 11.9999995,14.999999 Z M11.9999995,15.999999 C9.79086077,15.999999 8,14.2091382 8,11.9999995 C8,9.79086077 9.79086077,8 11.9999995,8 C14.2091382,8 15.999999,9.79086077 15.999999,11.9999995 C16.0007632,13.0610994 15.5795813,14.078959 14.8292701,14.8292701 C14.078959,15.5795813 13.0610994,16.0007632 11.9999995,15.999999 Z M2.85355339,21.8535534 C2.65829124,22.0488155 2.34170876,22.0488155 2.14644661,21.8535534 C1.95118446,21.6582912 1.95118446,21.3417088 2.14644661,21.1464466 L21.1464466,2.14644661 C21.3417088,1.95118446 21.6582912,1.95118446 21.8535534,2.14644661 C22.0488155,2.34170876 22.0488155,2.65829124 21.8535534,2.85355339 L2.85355339,21.8535534 Z"/>
  </defs>
  <use xlink:href="#eye-line_trough-a"/>
</svg>
