
<svg version="1.1" xmlns="http://www.w3.org/2000/svg" width="32" height="32" viewBox="0 0 32 32">
<title>leaf</title>
<path d="M25.525 22.863c0.164-0.012 0.288-0.163 0.276-0.339-0.013-0.176-0.156-0.309-0.32-0.299l-1.149 0.080-0.047-0.669c-0.916 0.064-1.905 0.508-2.055 1.547l-10.064 0.703c-2.376 0.167-3.407 0.664-3.231 3.175l0.015 0.205c0.061 0.829 0.132 1.769-0.277 2.276-0.203 0.251-0.519 0.387-0.967 0.419-0.459 0.032-0.8-0.061-1.041-0.288-0.449-0.421-0.504-1.277-0.54-1.844l-0.477-6.819c20.947 1.485 19.125-20.32 19.125-20.32-2.924 4.455-6.953 0.484-14.624 5.957-7.669 5.473-5.235 14.317-5.235 14.317h0.007l0.484 6.911c0.044 0.693 0.112 1.741 0.787 2.376 0.389 0.364 0.917 0.525 1.568 0.48 0.64-0.044 1.132-0.275 1.46-0.681 0.604-0.747 0.52-1.907 0.451-2.837l-0.015-0.203c-0.121-1.728 0.168-2.187 2.564-2.353l10.053-0.703c0.257 1.097 1.324 1.396 2.267 1.331l-0.049-0.719 1.147-0.080c0.165-0.011 0.289-0.163 0.277-0.339-0.013-0.176-0.156-0.309-0.32-0.297l-1.149 0.080-0.069-0.987 1.149-0.080zM11.272 13.284c3.891-1.923 3.963-1.695 6.396-3.808 0 0-1.096 4.729-10.937 9.424 0 0 1.060-3.897 4.543-5.616z"></path>
</svg>
