<?xml version="1.0" encoding="UTF-8"?>
<svg xmlns="http://www.w3.org/2000/svg" xmlns:xlink="http://www.w3.org/1999/xlink" width="24" height="24" viewBox="0 0 24 24">
  <defs>
    <path id="hat-man-a" d="M17.1336491,8 L6.86635089,8 L6.24412866,10 L17.7558713,10 L17.1336491,8 Z M16.822538,7 L15.8472949,3.86528994 C15.8236535,3.78929984 15.7926937,3.71578326 15.7548508,3.64577382 C15.4317948,3.0481202 14.6854121,2.82551485 14.0877585,3.14857087 L13.1887926,3.6344984 C12.4469828,4.03547668 11.5530172,4.03547668 10.8112074,3.6344984 L9.91224148,3.14857087 C9.84223204,3.11072792 9.76871546,3.07976813 9.69272536,3.05612677 C9.04401628,2.85430616 8.35452573,3.21658085 8.15270513,3.86528994 L7.177462,7 L16.822538,7 Z M5.19685118,10 L7.19784835,3.56822339 C7.56373428,2.39216147 8.81372999,1.73538406 9.98979191,2.10126999 C10.1275564,2.14413005 10.2608365,2.20025788 10.3877585,2.26886435 L11.2867244,2.75479188 C11.7318103,2.99537885 12.2681897,2.99537885 12.7132756,2.75479188 L13.6122415,2.26886435 C14.6957436,1.68318753 16.0488805,2.08675467 16.6345573,3.17025678 C16.7031638,3.29717876 16.7592916,3.43045891 16.8021516,3.56822339 L18.8031488,10 L21,10 L21,11 L3,11 L3,10 L5.19685118,10 Z M18,13 L12.9241605,13 C13.0952404,13.1207675 13.2441588,13.276185 13.3686764,13.4594785 C13.5435703,13.7169273 13.6290677,13.9260664 13.7845423,14.3843135 L13.7955581,14.4167814 C13.8875413,14.6877708 13.934502,14.8029972 13.9755786,14.8658451 C13.8618584,14.6918513 14.2328652,15.2799283 14.3128372,15.3814992 C14.6269194,15.780409 15.1320207,16 16.2896118,16 C16.8464921,16 17.2772149,15.5903039 17.6142548,14.7651624 C17.7529791,14.4255373 17.8576469,14.0515785 17.930537,13.6761981 C17.9681982,13.4822447 17.9900955,13.3295681 18,13.2380737 L18,13 Z M5.99686136,13 L5.99623398,13.1998892 C6.00347286,13.2830629 6.02594281,13.4520711 6.06946302,13.6761981 C6.14235311,14.0515785 6.24702088,14.4255373 6.38574524,14.7651624 C6.72278511,15.5903039 7.1535079,16 7.71038825,16 C8.86805855,16 9.37353079,15.7802916 9.68745211,15.3815418 C9.76747962,15.279889 10.1448732,14.6811968 10.0239405,14.8665815 C10.0650379,14.803581 10.1119082,14.68845 10.2041092,14.4168008 L10.2146273,14.3857989 C10.3703233,13.9268875 10.455729,13.7178892 10.6306186,13.4602776 C10.7552874,13.2766411 10.9044153,13.1209456 11.075766,13 L5.99686136,13 Z M19,13.2865948 C19,13.2865948 18.6768101,17 16.2896118,17 C13.9097587,17 13.5211962,15.9984592 13.13851,15.412943 C12.7558237,14.8274268 12.749213,13.7132544 12,13.7132544 C11.250787,13.7132544 11.2434418,14.8274268 10.86149,15.412943 C10.4795383,15.9984592 10.0902413,17 7.71038825,17 C5.32318993,17 5,13.2865948 5,13.2865948 L5,12 L19,12 L19,13.2865948 Z M3,17.2900999 L3,21 L10.8320113,21 L3,17.2900999 Z M21,21 L21,17.2900999 L13.1679887,21 L21,21 Z M12,20.4467422 L22,15.7099001 L22,22 L2,22 L2,15.7099001 L12,20.4467422 Z"/>
  </defs>
  <use xlink:href="#hat-man-a"/>
</svg>
