<?xml version="1.0" encoding="UTF-8"?>
<svg xmlns="http://www.w3.org/2000/svg" xmlns:xlink="http://www.w3.org/1999/xlink" width="24" height="24" viewBox="0 0 24 24">
  <defs>
    <path id="share-a" d="M8.23937674,14.6787054 C7.5981329,15.4838986 6.60933742,16 5.5,16 C3.56700338,16 2,14.4329966 2,12.5 C2,10.5670034 3.56700338,9 5.5,9 C6.57806373,9 7.54228619,9.48741244 8.18432064,10.2538906 L14.2885096,5.89375564 C14.1029072,5.4666804 14,4.99535783 14,4.5 C14,2.56700338 15.5670034,1 17.5,1 C19.4329966,1 21,2.56700338 21,4.5 C21,6.43299662 19.4329966,8 17.5,8 C16.4219363,8 15.4577138,7.51258756 14.8156794,6.7461094 L8.71149042,11.1062444 C8.89709279,11.5333196 9,12.0046422 9,12.5 C9,12.9645491 8.90949534,13.4079597 8.7451565,13.8135613 L14.5024216,16.6921938 C15.1153832,15.6780022 16.2285137,15 17.5,15 C19.4329966,15 21,16.5670034 21,18.5 C21,20.4329966 19.4329966,22 17.5,22 C15.5670034,22 14,20.4329966 14,18.5 C14,18.1944014 14.0391661,17.8979506 14.1127525,17.6153933 L8.23937674,14.6787054 Z M5.5,15 C6.88071187,15 8,13.8807119 8,12.5 C8,11.1192881 6.88071187,10 5.5,10 C4.11928813,10 3,11.1192881 3,12.5 C3,13.8807119 4.11928813,15 5.5,15 Z M17.5,7 C18.8807119,7 20,5.88071187 20,4.5 C20,3.11928813 18.8807119,2 17.5,2 C16.1192881,2 15,3.11928813 15,4.5 C15,5.88071187 16.1192881,7 17.5,7 Z M17.5,21 C18.8807119,21 20,19.8807119 20,18.5 C20,17.1192881 18.8807119,16 17.5,16 C16.1192881,16 15,17.1192881 15,18.5 C15,19.8807119 16.1192881,21 17.5,21 Z"/>
  </defs>
  <use xlink:href="#share-a"/>
</svg>
