<?xml version="1.0" encoding="UTF-8"?>
<svg xmlns="http://www.w3.org/2000/svg" xmlns:xlink="http://www.w3.org/1999/xlink" width="24" height="24" viewBox="0 0 24 24">
  <defs>
    <path id="arrow-circle-clock-a" d="M15.7572479,14.0712535 L15.2427521,14.9287465 L10,11.7830952 L10,7 L11,7 L11,11.2169048 L15.7572479,14.0712535 Z M16.5773021,17.4427647 C14.9886674,19.0671507 12.8178358,20 10.5,20 C5.80557963,20 2,16.1944204 2,11.5 C2,6.80557963 5.80557963,3 10.5,3 C15.1944204,3 19,6.80557963 19,11.5 C19,11.7761424 18.7761424,12 18.5,12 C18.2238576,12 18,11.7761424 18,11.5 C18,7.35786438 14.6421356,4 10.5,4 C6.35786438,4 3,7.35786438 3,11.5 C3,15.6421356 6.35786438,19 10.5,19 C12.5459732,19 14.4599924,18.1775081 15.8623716,16.7435692 C16.0554491,16.5461466 16.372012,16.5426242 16.5694346,16.7357017 C16.7668572,16.9287792 16.7703796,17.2453421 16.5773021,17.4427647 Z M15.9,10.2000294 L18.5,13.6666961 L21.1,10.2000294 C21.2656854,9.97911553 21.5790861,9.934344 21.8,10.1000294 C22.0209139,10.2657149 22.0656854,10.5791155 21.9,10.8000294 L18.9,14.8000294 C18.7,15.0666961 18.3,15.0666961 18.1,14.8000294 L15.1,10.8000294 C14.9343146,10.5791155 14.9790861,10.2657149 15.2,10.1000294 C15.4209139,9.934344 15.7343146,9.97911553 15.9,10.2000294 Z"/>
  </defs>
  <use xlink:href="#arrow-circle-clock-a"/>
</svg>
