<?xml version="1.0" encoding="UTF-8"?>
<svg xmlns="http://www.w3.org/2000/svg" xmlns:xlink="http://www.w3.org/1999/xlink" width="24" height="24" viewBox="0 0 24 24">
  <defs>
    <path id="asset-arrow-a" d="M7,9.5 L8,9.5 L8,14.6231056 L7,14.6231056 L7,9.5 Z M11,7.5 L12,7.5 L12,17.5 L11,17.5 L11,7.5 Z M16,3.98684211 L16,5.12938386 L11.5,2.64254176 L3,7.33991018 L3,16.6600898 L11.5,21.3574582 L16,18.8706161 L16,20.0131579 L11.5,22.5 L2,17.25 L2,6.75 L11.5,1.5 L16,3.98684211 Z M20.2928932,13 L13,13 L13,12 L20.2928932,12 L17.7928932,9.5 L18.5,8.79289322 L22.2071068,12.5 L18.5,16.2071068 L17.7928932,15.5 L20.2928932,13 Z"/>
  </defs>
  <use fill-rule="evenodd" xlink:href="#asset-arrow-a"/>
</svg>
