<?xml version="1.0" encoding="UTF-8" standalone="no"?><!DOCTYPE svg PUBLIC "-//W3C//DTD SVG 1.1//EN" "http://www.w3.org/Graphics/SVG/1.1/DTD/svg11.dtd"><svg width="100%" height="100%" viewBox="0 0 32 32" version="1.1" xmlns="http://www.w3.org/2000/svg" xmlns:xlink="http://www.w3.org/1999/xlink" xml:space="preserve" xmlns:serif="http://www.serif.com/" style="fill-rule:evenodd;clip-rule:evenodd;stroke-linejoin:round;stroke-miterlimit:1.41421;"><path d="M14.844,4.668l-0.385,0.666l-1.792,0c-0.368,0 -0.667,0.298 -0.667,0.667c0,0.369 0.298,0.667 0.667,0.667l6.667,0c0.368,0 0.667,-0.298 0.667,-0.667c0,-0.369 -0.298,-0.667 -0.667,-0.667l-1.792,0l-0.385,-0.666c-0.238,-0.411 -0.674,-0.668 -1.156,-0.668c-0.482,0 -0.918,0.257 -1.156,0.668l-0.001,0Zm1.156,-2.001c0.987,0 1.849,0.536 2.31,1.333l1.023,0c1.105,0 2,0.895 2,2c0,1.105 -0.895,2 -2,2l-6.667,0c-1.105,0 -2,-0.895 -2,-2c0,-1.105 0.895,-2 2,-2l1.023,0c0.461,-0.797 1.323,-1.333 2.31,-1.333l0.001,0Zm-5.22,2.666l0,1.333l-1.447,0c-0.736,0 -1.333,0.597 -1.333,1.333l0,18.667c0,0.736 0.597,1.333 1.333,1.333l13.333,0c0.736,0 1.333,-0.597 1.333,-1.333l0,-18.667c0,-0.736 -0.597,-1.333 -1.333,-1.333l-1.447,0l0,-1.333l1.447,0c1.473,0 2.667,1.194 2.667,2.667l0,18.667c0,1.473 -1.194,2.667 -2.667,2.667l-13.333,0c-1.473,0 -2.667,-1.194 -2.667,-2.667l0,-18.667c0,-1.473 1.194,-2.667 2.667,-2.667l1.447,0Zm0.642,17.334c-0.417,0 -0.756,-0.298 -0.756,-0.667c0,-0.369 0.338,-0.667 0.756,-0.667l9.155,0c0.417,0 0.756,0.298 0.756,0.667c0,0.369 -0.338,0.667 -0.756,0.667l-9.155,0Zm0,2.666c-0.417,0 -0.756,-0.298 -0.756,-0.667c0,-0.369 0.338,-0.667 0.756,-0.667l9.155,0c0.417,0 0.756,0.298 0.756,0.667c0,0.369 -0.338,0.667 -0.756,0.667l-9.155,0Z" style="fill-rule:nonzero;"/><path d="M14.844,4.668l-0.385,0.666l-1.792,0c-0.368,0 -0.667,0.298 -0.667,0.667c0,0.369 0.298,0.667 0.667,0.667l6.667,0c0.368,0 0.667,-0.298 0.667,-0.667c0,-0.369 -0.298,-0.667 -0.667,-0.667l-1.792,0l-0.385,-0.666c-0.238,-0.411 -0.674,-0.668 -1.156,-0.668c-0.482,0 -0.918,0.257 -1.156,0.668l-0.001,0Zm1.156,-2.001c0.987,0 1.849,0.536 2.31,1.333l1.023,0c1.105,0 2,0.895 2,2c0,1.105 -0.895,2 -2,2l-6.667,0c-1.105,0 -2,-0.895 -2,-2c0,-1.105 0.895,-2 2,-2l1.023,0c0.461,-0.797 1.323,-1.333 2.31,-1.333l0.001,0Zm-5.22,2.666l0,1.333l-1.447,0c-0.736,0 -1.333,0.597 -1.333,1.333l0,18.667c0,0.736 0.597,1.333 1.333,1.333l13.333,0c0.736,0 1.333,-0.597 1.333,-1.333l0,-18.667c0,-0.736 -0.597,-1.333 -1.333,-1.333l-1.447,0l0,-1.333l1.447,0c1.473,0 2.667,1.194 2.667,2.667l0,18.667c0,1.473 -1.194,2.667 -2.667,2.667l-13.333,0c-1.473,0 -2.667,-1.194 -2.667,-2.667l0,-18.667c0,-1.473 1.194,-2.667 2.667,-2.667l1.447,0Zm0.642,14.596c-0.417,0 -0.756,-0.298 -0.756,-0.667c0,-0.369 0.338,-0.667 0.756,-0.667l9.155,0c0.417,0 0.756,0.298 0.756,0.667c0,0.369 -0.338,0.667 -0.756,0.667l-9.155,0Zm0,5.404c-0.417,0 -0.756,-0.298 -0.756,-0.667c0,-0.369 0.338,-0.667 0.756,-0.667l9.155,0c0.417,0 0.756,0.298 0.756,0.667c0,0.369 -0.338,0.667 -0.756,0.667l-9.155,0Z" style="fill-rule:nonzero;"/></svg>